<?xml version="1.0" standalone="no"?>
<!DOCTYPE svg PUBLIC "-//W3C//DTD SVG 20010904//EN"
 "http://www.w3.org/TR/2001/REC-SVG-20010904/DTD/svg10.dtd">
<svg version="1.0" xmlns="http://www.w3.org/2000/svg"
 width="1300.000000pt" height="1300.000000pt" viewBox="0 0 1300.000000 1300.000000"
 preserveAspectRatio="xMidYMid meet">
<metadata>
Created by potrace 1.16, written by Peter Selinger 2001-2019
</metadata>
<g transform="translate(0.000000,1300.000000) scale(0.100000,-0.100000)"
fill="#000000" stroke="none">
<path d="M10263 11572 c-27 -66 -184 -435 -213 -502 -15 -36 -49 -116 -75
-177 -43 -101 -67 -133 -77 -103 -2 6 -35 -2 -78 -18 -41 -16 -102 -37 -135
-47 -33 -10 -80 -24 -105 -32 -188 -61 -617 -142 -935 -177 -344 -38 -516 -48
-890 -49 l-340 -2 -33 -65 c-69 -137 -33 -254 112 -365 l35 -26 161 27 161 27
60 -59 c82 -80 189 -207 232 -275 35 -55 93 -186 86 -193 -10 -9 -250 -125
-303 -147 l-58 -24 6 -69 c15 -163 93 -245 233 -246 59 0 65 2 130 52 37 29
94 74 126 100 32 26 59 48 60 48 1 0 59 -7 129 -15 140 -16 278 -42 291 -54 4
-5 -5 -32 -21 -62 -16 -30 -61 -112 -99 -184 -39 -71 -92 -170 -118 -220 -26
-49 -53 -99 -60 -110 -7 -11 -47 -87 -90 -170 -43 -82 -99 -186 -123 -230 -25
-44 -63 -114 -85 -155 -22 -41 -42 -77 -44 -79 -4 -6 -217 -37 -310 -46 l-69
-7 -49 58 c-27 33 -50 61 -51 62 -1 2 -110 -3 -241 -12 -131 -9 -265 -17 -297
-19 l-60 -2 -9 38 -9 37 -115 0 -115 0 6 63 c30 318 36 786 13 967 -9 69 -21
187 -26 262 -9 119 -67 420 -121 628 -5 19 -11 54 -14 77 -8 67 -71 150 -141
185 -49 25 -103 28 -179 12 -39 -9 -82 -18 -96 -20 -300 -58 -924 -272 -1355
-465 -125 -56 -617 -300 -695 -345 -25 -14 -84 -48 -132 -75 -86 -50 -86 -50
-98 -102 -6 -29 -16 -88 -21 -132 -40 -309 131 -700 353 -808 80 -38 190 -54
278 -39 117 20 178 49 245 115 179 178 482 408 910 692 160 106 304 200 320
209 17 9 59 34 94 56 34 22 67 40 71 40 10 0 24 -62 46 -215 25 -167 24 -616
-1 -880 -9 -104 -22 -193 -28 -197 -5 -3 -157 -8 -336 -10 l-326 -3 -143 -73
c-345 -175 -496 -290 -726 -552 -60 -69 -130 -148 -155 -175 -99 -109 -258
-292 -282 -325 -75 -103 -238 -403 -324 -595 -128 -287 -234 -617 -302 -938
-4 -21 -12 -39 -17 -40 -18 -4 -89 134 -121 238 -54 174 -60 231 -60 532 l0
272 -25 -16 c-194 -126 -352 -311 -451 -529 -91 -201 -152 -452 -166 -688 l-6
-108 -36 5 c-20 4 -72 13 -116 21 -347 64 -793 64 -1117 2 -73 -14 -288 -72
-295 -80 -9 -9 244 -369 376 -536 452 -572 953 -1011 1437 -1261 64 -32 109
-59 101 -59 -38 0 -467 -200 -508 -236 -8 -8 -19 -14 -22 -14 -23 0 -267 -164
-402 -269 -176 -138 -370 -337 -343 -352 54 -29 548 -151 783 -194 543 -99
1108 -112 1570 -35 154 26 447 113 533 159 15 8 25 7 43 -7 41 -31 190 -118
284 -165 126 -62 243 -110 360 -145 407 -122 662 -143 1162 -97 202 19 636 79
656 92 10 6 116 32 135 33 7 0 30 -38 52 -85 22 -46 74 -128 114 -182 171
-228 289 -290 574 -300 227 -9 333 15 482 107 187 115 231 160 366 386 9 15
13 12 36 -27 65 -109 209 -215 350 -256 253 -73 585 28 784 238 100 106 154
205 200 367 23 82 26 106 22 210 -4 106 -7 124 -36 185 -32 69 -119 167 -183
204 -37 22 -36 29 5 44 19 7 32 17 29 22 -3 6 -1 7 6 3 14 -9 128 57 189 110
128 109 242 360 242 528 0 70 -28 205 -59 286 -12 30 -21 58 -21 62 0 4 19 17
42 29 107 55 251 200 351 354 118 183 232 448 321 740 29 97 87 338 82 342 -5
5 -79 -30 -498 -238 -142 -70 -258 -125 -258 -123 0 9 126 213 203 329 226
340 532 687 770 874 62 49 67 56 67 91 l0 39 -72 -5 c-559 -38 -1049 -195
-1467 -468 -56 -37 -104 -66 -105 -64 -2 2 -61 143 -131 313 -70 171 -152 369
-182 440 -30 72 -61 146 -68 165 -44 118 -239 472 -316 575 -68 92 -232 238
-341 304 -80 49 -192 98 -257 113 -28 6 -51 16 -51 21 0 5 66 123 147 261 80
138 161 277 180 309 75 129 106 183 249 429 l150 256 50 -31 c116 -74 252
-199 343 -317 38 -49 42 -59 37 -95 -3 -22 -11 -102 -17 -178 l-12 -138 24
-25 c13 -14 50 -38 84 -55 107 -52 203 -37 265 41 l30 38 0 185 0 186 78 18
c119 28 426 25 587 -5 65 -13 130 -28 144 -35 19 -9 36 -42 75 -144 l51 -133
65 -27 c86 -35 195 -38 256 -6 43 23 94 75 118 121 13 26 11 33 -51 147 -35
66 -86 161 -112 210 -80 149 -237 439 -249 460 -6 11 -75 139 -153 285 -78
146 -156 292 -174 325 -18 33 -48 89 -67 125 -301 564 -373 698 -386 713 -8 9
-26 17 -39 17 -12 0 -23 2 -23 5 0 7 46 66 291 377 151 191 188 245 194 277 9
57 -2 112 -30 147 -22 28 -26 29 -112 30 -106 2 -216 34 -341 100 l-83 43 -16
-37z m159 -250 c40 -16 81 -32 91 -35 16 -6 13 -14 -29 -60 -43 -47 -125 -166
-168 -242 -9 -17 -32 -57 -51 -90 -26 -46 -104 -195 -111 -212 -2 -7 -104 29
-104 36 0 8 77 177 180 396 24 50 58 123 76 163 18 39 35 72 38 72 3 0 38 -13
78 -28z m-3855 -1335 c4 -6 1 -7 -8 -2 -8 5 -6 -1 5 -13 17 -19 17 -25 5 -54
-7 -18 -21 -39 -32 -47 -10 -7 -16 -19 -13 -26 3 -8 2 -15 -2 -17 -4 -2 -20
-29 -36 -60 -17 -32 -44 -75 -60 -96 l-31 -38 0 142 c1 79 -3 140 -7 138 -4
-3 -8 2 -8 11 0 10 5 13 12 9 7 -5 8 -3 4 5 -5 7 -14 10 -22 7 -11 -4 -12 -2
-1 15 6 11 21 22 32 24 70 15 153 16 162 2z m-306 -44 c0 -15 2 -15 8 2 7 17
9 16 13 -10 7 -35 -1 -53 -14 -34 -8 11 -9 11 -5 -1 2 -8 10 -14 16 -12 6 1
11 1 11 0 0 -2 3 -39 6 -83 11 -142 -21 -285 -63 -285 -12 0 -14 10 -11 40 2
22 0 40 -5 40 -5 0 -6 8 -3 17 4 9 3 19 -2 22 -14 9 -23 81 -10 81 6 0 0 9
-13 20 -13 10 -21 19 -16 20 4 0 1 12 -6 28 -7 15 -12 36 -10 47 3 15 2 16 -5
7 -7 -11 -10 -10 -16 3 -3 9 -3 22 1 28 3 7 2 8 -2 4 -5 -4 -14 3 -21 15 -12
22 -10 24 59 45 89 27 87 27 88 6z m-214 -150 c18 -33 29 -63 26 -67 -4 -3 -1
-6 5 -6 7 0 12 -9 12 -21 0 -13 4 -18 12 -13 7 4 1 -8 -12 -26 -13 -18 -19
-31 -13 -27 6 4 13 4 16 0 2 -5 2 -1 0 7 -3 11 -1 12 7 3 7 -6 14 -49 17 -95
l5 -83 -132 -64 c-109 -53 -133 -62 -141 -50 -8 10 -9 9 -4 -7 4 -17 0 -24
-22 -33 -28 -11 -99 -50 -162 -89 -28 -17 -38 -19 -50 -9 -14 10 -14 10 -3 -5
11 -14 11 -18 -5 -26 -10 -5 -24 -7 -30 -5 -7 3 -13 -1 -13 -9 -1 -7 -7 -2
-15 12 l-15 25 6 -29 c6 -24 4 -27 -12 -22 -11 3 -26 1 -34 -5 -13 -9 -12 -10
3 -5 39 13 12 -11 -50 -44 -84 -44 -88 -45 -78 -30 5 8 4 11 -3 6 -6 -4 -9
-13 -5 -21 3 -9 -1 -15 -8 -15 -8 0 -36 -16 -63 -35 -27 -19 -55 -35 -63 -35
-7 0 -13 -4 -13 -10 0 -5 -5 -10 -11 -10 -5 0 -7 4 -4 10 3 5 0 7 -9 4 -8 -3
-12 -12 -9 -20 3 -8 0 -15 -6 -15 -6 -1 -15 -3 -21 -4 -5 -1 -14 -3 -20 -4 -5
0 -10 -7 -10 -13 -1 -12 -68 -60 -103 -74 -17 -6 -21 23 -20 134 0 12 -3 22
-6 22 -11 0 -43 98 -36 110 3 5 0 10 -7 10 -8 0 -28 20 -45 44 -17 24 -48 56
-69 72 -45 32 -66 51 -45 39 10 -5 12 -4 7 4 -4 6 -11 9 -16 6 -12 -8 -41 6
-34 16 3 6 15 7 27 4 21 -5 21 -4 -1 7 -13 6 -21 17 -18 24 3 8 0 11 -10 7
-18 -7 -18 2 2 21 12 13 20 14 36 5 11 -6 18 -7 14 -1 -7 11 18 34 61 55 21
10 32 11 30 4 -2 -14 60 -20 68 -7 9 14 -16 23 -28 11 -16 -16 -27 -14 -27 5
0 8 4 13 9 10 5 -3 14 1 21 9 7 8 16 12 21 9 5 -3 9 -1 9 3 0 9 69 39 83 35 4
-1 7 3 7 9 0 6 7 8 16 5 8 -3 13 -2 10 3 -8 12 22 23 37 14 7 -3 9 -3 5 2 -10
11 71 47 85 38 5 -3 7 -2 4 4 -7 12 11 22 111 62 39 16 75 25 78 20 3 -5 17
-8 32 -8 21 1 22 2 7 6 -40 10 -33 19 28 42 34 13 78 31 97 41 38 19 172 70
193 74 6 1 22 8 35 15 12 6 32 9 44 5 13 -4 18 -2 14 4 -8 13 19 23 41 15 11
-4 14 -3 9 5 -4 7 -3 12 3 12 5 0 13 -4 16 -10 3 -5 12 -10 18 -10 7 0 6 4 -3
10 -18 11 -14 14 30 26 39 11 34 16 87 -83z m603 -19 c6 -14 10 -57 10 -97 l0
-71 -52 -48 c-29 -28 -57 -47 -65 -44 -8 3 -12 2 -9 -3 6 -10 -63 -55 -71 -47
-3 3 -12 -2 -21 -10 -12 -13 -16 -13 -23 -2 -13 20 -12 23 27 70 21 24 45 42
55 42 10 -1 16 3 13 7 -3 5 -10 6 -16 3 -6 -4 -9 -3 -6 2 21 47 33 64 45 64 7
0 12 3 12 8 -3 13 34 92 43 92 4 0 8 6 8 14 0 8 5 18 12 22 7 5 8 3 3 -6 -6
-9 -4 -11 4 -6 7 5 10 14 7 22 -3 8 -1 14 5 14 5 0 14 -12 19 -26z m11 -323
c-8 -5 -14 -29 -15 -60 -2 -53 7 -57 19 -8 5 17 3 27 -4 27 -15 0 -14 17 2 23
8 3 13 -9 15 -40 3 -39 -1 -48 -25 -69 -15 -13 -34 -22 -41 -19 -7 3 -11 1 -8
-4 3 -4 -14 -16 -37 -26 -23 -9 -50 -21 -61 -27 -12 -6 -16 -6 -11 1 3 6 1 11
-4 11 -6 0 -11 -6 -12 -12 0 -9 -2 -9 -6 1 -5 11 -7 11 -14 0 -6 -10 -9 -2
-10 24 -1 20 -2 45 -3 55 0 9 4 17 9 18 6 0 28 8 49 17 32 14 41 15 49 5 6 -9
7 -8 3 4 -5 17 26 48 49 48 5 0 3 -5 -5 -11 -13 -9 -13 -10 0 -6 8 2 15 9 15
15 0 12 35 41 50 42 6 0 4 -4 -4 -9z m27 -243 c0 -7 4 -150 8 -318 6 -298 -8
-798 -24 -810 -4 -3 -8 -34 -8 -70 -2 -79 -9 -159 -29 -310 -25 -192 -74 -440
-87 -440 -5 0 -7 -8 -3 -19 3 -12 0 -21 -10 -25 -8 -3 -15 -13 -14 -23 0 -16
1 -16 9 2 13 29 12 8 -2 -36 -6 -22 -15 -39 -21 -39 -5 0 -7 -7 -3 -15 3 -8 1
-26 -5 -39 -13 -27 -31 -27 -100 0 -27 11 -39 22 -39 36 0 26 40 268 48 288 6
16 7 30 10 93 1 26 6 36 13 31 8 -5 10 1 6 18 -4 14 -3 59 2 99 6 41 13 101
16 134 4 33 9 69 11 80 3 11 7 65 11 120 3 55 9 105 13 110 12 16 12 739 0
870 -18 208 -23 184 40 206 30 10 62 17 70 14 8 -4 11 -3 7 2 -4 4 11 17 35
30 24 12 43 22 44 23 0 0 1 -6 2 -12z m-2075 -23 c13 -8 26 -13 29 -10 9 9 89
-77 84 -91 -3 -8 0 -11 10 -7 10 4 12 0 7 -13 -4 -11 -3 -15 4 -11 14 9 34
-38 21 -51 -5 -5 -8 -18 -5 -28 4 -16 5 -15 6 4 2 37 19 25 26 -19 11 -67 9
-152 -6 -219 -13 -60 -16 -65 -68 -99 -49 -32 -62 -36 -133 -40 -43 -2 -86 0
-96 5 -9 4 -20 6 -24 6 -11 -3 -108 58 -108 67 0 4 -9 17 -19 28 -26 28 -46
102 -32 116 14 14 14 30 0 22 -7 -5 -10 20 -8 78 2 47 5 84 9 82 3 -2 6 14 6
36 2 56 20 91 60 117 30 20 40 22 66 13 40 -14 88 -14 88 0 0 7 -10 9 -25 5
-31 -8 -82 3 -65 14 24 15 149 11 173 -5z m4238 -698 l49 -87 -36 -72 c-20
-40 -58 -107 -85 -151 -27 -43 -49 -81 -49 -83 0 -2 -24 -46 -53 -97 -30 -50
-66 -114 -82 -142 -15 -27 -48 -86 -73 -130 -25 -44 -75 -134 -111 -200 -37
-66 -134 -238 -215 -382 l-148 -263 -52 -1 c-28 -1 -86 -3 -128 -5 -43 -2 -78
1 -78 5 0 5 61 116 136 247 76 132 148 259 162 284 13 25 39 70 57 100 18 30
63 109 101 175 137 243 224 396 357 628 75 130 137 240 137 243 0 2 8 16 17
30 16 25 17 25 30 8 8 -11 37 -58 64 -107z m-1790 -593 l24 -46 165 6 c91 3
226 9 301 13 l136 6 74 -99 c40 -54 74 -101 75 -102 1 -2 31 -6 66 -8 35 -3
78 -7 95 -10 l33 -5 -25 -49 c-29 -57 -23 -56 -160 -35 -55 9 -167 25 -250 36
-82 11 -186 26 -230 34 -44 8 -132 19 -195 25 -63 5 -162 17 -220 26 l-105 16
12 92 c6 50 12 101 12 113 1 19 8 22 49 26 124 9 117 11 143 -39z m-773 1 c1
-17 -4 -64 -11 -105 l-13 -75 -110 4 c-294 9 -446 -98 -479 -339 -8 -58 9
-135 41 -183 30 -46 163 -146 259 -195 38 -20 72 -37 75 -37 3 -1 32 -14 65
-29 33 -15 96 -40 140 -55 44 -16 127 -47 184 -70 157 -62 263 -87 531 -121
91 -12 174 -23 185 -25 35 -8 474 -44 670 -55 280 -17 486 1 675 57 63 19 237
129 287 182 45 47 102 167 110 230 7 64 -21 125 -86 183 -56 51 -157 112 -222
135 l-45 16 29 53 c15 30 32 56 36 58 13 8 208 -62 278 -100 133 -71 143 -81
177 -170 24 -64 39 -87 68 -110 21 -15 38 -34 38 -42 0 -7 -17 -50 -39 -95
-60 -128 -60 -122 1 -136 29 -6 58 -15 65 -19 8 -5 -23 -43 -92 -112 -57 -58
-127 -131 -155 -162 l-51 -58 -19 -176 c-11 -98 -20 -192 -20 -211 0 -18 -5
-33 -11 -33 -6 0 -113 53 -237 118 -125 64 -232 118 -238 120 -9 2 -178 -385
-247 -565 -11 -29 -23 -53 -26 -53 -4 0 -74 71 -156 157 -83 87 -200 209 -260
273 -103 107 -308 324 -326 344 -6 6 -273 -184 -416 -296 -9 -7 -55 21 -158
96 -81 59 -151 103 -157 100 -7 -4 -8 -2 -4 4 6 10 -14 27 -104 84 -27 18 -27
18 -56 -18 -55 -69 -404 -427 -410 -421 -4 3 -69 211 -137 435 -17 56 -35 102
-40 102 -5 0 -76 -40 -159 -90 -82 -49 -153 -90 -157 -90 -4 0 -11 78 -15 173
-3 94 -9 226 -13 292 l-6 121 -206 -33 c-379 -59 -501 -76 -507 -70 -3 3 -1
21 4 39 105 334 98 318 165 389 34 36 90 95 125 132 l62 67 0 -102 0 -103 123
-51 c67 -28 123 -48 125 -44 1 3 -16 44 -39 90 l-41 85 21 164 c11 90 22 164
23 165 2 1 26 20 53 42 28 22 76 61 108 87 32 26 62 47 67 47 4 0 11 -18 15
-40 4 -22 10 -42 13 -44 4 -2 75 21 157 52 l150 54 155 8 c198 9 185 10 188
-25z m4818 -1947 c-23 -24 -59 -65 -81 -93 -22 -27 -53 -65 -70 -83 -46 -52
-49 -61 -28 -85 18 -22 18 -22 -3 -5 -20 17 -21 17 -50 -15 -17 -17 -42 -50
-57 -72 -15 -22 -38 -53 -52 -70 -13 -16 -29 -35 -34 -41 -25 -31 -178 -233
-192 -254 -9 -14 -25 -35 -35 -47 -11 -12 -49 -64 -86 -115 -38 -51 -96 -131
-130 -178 l-63 -85 -7 155 c-9 188 -31 369 -58 486 -12 48 -19 93 -16 100 8
20 254 154 441 239 119 54 349 145 368 145 7 0 17 3 21 8 11 11 128 50 152 51
19 1 16 -5 -20 -41z m-7812 -270 c11 -70 35 -135 84 -221 48 -86 166 -218 240
-269 42 -29 43 -31 37 -71 -3 -23 -12 -108 -19 -188 -7 -80 -16 -152 -21 -158
-5 -9 -13 -8 -29 7 -47 43 -162 113 -264 162 -59 28 -118 56 -132 63 -20 10
-28 26 -38 72 -18 86 -9 279 18 380 29 108 81 236 93 228 6 -3 7 -1 4 5 -9 13
2 44 13 37 4 -2 10 -24 14 -47z m-1339 -769 c61 -5 134 -9 163 -8 30 0 52 -4
49 -8 -3 -4 31 -9 76 -10 44 -1 112 -7 151 -14 39 -6 80 -11 91 -10 11 0 65
-8 120 -18 55 -11 122 -22 150 -26 68 -9 340 -80 422 -109 163 -58 192 -70
186 -79 -3 -6 -1 -7 5 -3 6 4 42 -9 79 -29 149 -77 192 -105 162 -105 -10 0
-11 -2 -2 -8 7 -5 14 -52 17 -129 l6 -122 -30 11 c-17 5 -28 13 -26 17 3 4 -3
7 -12 8 -9 0 -64 16 -122 36 -127 42 -240 70 -375 91 -136 21 -185 25 -184 18
0 -4 55 -34 122 -66 135 -66 265 -151 403 -262 92 -74 283 -256 285 -271 1
-12 7 -34 17 -70 6 -17 8 -34 4 -37 -11 -12 14 -6 28 7 8 6 6 2 -4 -10 -11
-13 -14 -23 -8 -23 7 0 11 -3 10 -7 -1 -5 10 -34 25 -67 15 -32 24 -63 20 -70
-3 -6 -2 -8 2 -3 7 6 75 -122 75 -143 0 -20 -163 10 -273 51 -43 16 -84 26
-89 23 -6 -4 -8 -3 -5 2 3 6 -55 41 -128 78 -77 39 -132 73 -128 79 3 6 1 7
-4 4 -6 -4 -22 2 -36 13 -14 11 -28 20 -31 20 -11 0 -227 149 -346 239 -225
170 -595 482 -743 627 -12 12 -53 49 -92 84 -38 35 -93 84 -120 109 -103 93
-191 171 -210 185 -18 14 -10 15 85 15 58 0 155 -4 215 -10z m2750 -100 c-5
-7 3 -10 21 -8 58 4 74 0 74 -22 0 -11 14 -34 30 -51 25 -24 30 -38 30 -75 0
-64 -40 -133 -78 -134 -15 0 -21 -3 -15 -6 10 -3 9 -9 -3 -20 -21 -22 -119
-21 -161 0 -21 11 -36 30 -47 59 -10 27 -14 32 -10 14 4 -25 3 -28 -9 -18 -18
15 -31 136 -18 160 9 15 11 14 12 -8 1 -17 3 -20 6 -7 2 9 9 17 14 17 5 0 9 5
9 11 0 5 -4 7 -10 4 -15 -10 -12 31 4 44 12 10 13 1 11 -56 -1 -37 0 -60 2
-50 3 9 9 17 13 17 5 0 7 15 5 33 -4 28 -4 29 4 7 5 -14 9 -40 10 -57 1 -22 6
-33 16 -33 8 0 15 -4 15 -10 0 -5 11 -10 25 -10 14 0 25 5 25 10 0 6 -5 10
-11 10 -7 0 -8 7 -4 18 4 9 9 42 11 72 5 71 12 100 25 100 6 0 7 -5 4 -11z
m6265 -6 c0 -20 -117 -221 -152 -263 -7 -8 -13 -18 -13 -22 0 -9 -57 -78 -135
-162 -51 -55 -190 -166 -208 -166 -4 0 -24 -11 -45 -26 l-38 -25 -57 20 c-31
11 -87 23 -124 26 -62 7 -67 9 -63 29 25 117 55 278 55 299 0 32 18 43 90 52
54 7 85 14 230 56 41 12 81 22 88 22 6 0 12 4 12 9 0 5 6 8 13 7 6 -1 44 12
82 30 39 18 75 34 80 35 6 1 36 16 68 34 32 18 62 30 66 27 5 -3 11 1 14 8 4
12 37 20 37 10z m-6004 -283 c-4 -27 -2 -40 5 -40 7 0 9 -14 5 -42 -3 -24 -7
-51 -8 -60 -1 -10 -11 -19 -23 -19 -11 -1 -28 -2 -38 -3 -24 -1 -37 -26 -30
-53 4 -17 1 -23 -12 -23 -9 0 -13 -5 -9 -11 4 -7 -2 -7 -17 1 -19 11 -24 10
-35 -5 -8 -10 -11 -28 -8 -40 5 -19 1 -23 -25 -27 -29 -4 -30 -4 -37 48 -3 28
-2 62 2 75 7 20 10 15 15 -31 l6 -55 1 61 c2 53 5 62 22 67 11 3 20 11 19 19
0 10 -2 10 -6 1 -2 -7 -10 -13 -15 -13 -6 0 16 27 50 61 49 49 65 60 84 55 13
-3 17 -3 11 0 -19 8 -16 34 4 34 9 0 13 3 10 7 -8 8 11 33 26 33 6 0 7 -16 3
-40z m4439 -284 c75 -44 128 -104 145 -164 20 -69 29 -197 20 -298 -11 -119
-37 -224 -86 -347 -41 -100 -43 -120 -19 -147 41 -45 78 -31 147 57 101 126
174 284 207 447 l18 88 69 31 c61 28 80 32 159 32 78 0 97 -4 147 -28 84 -41
139 -135 174 -297 24 -111 19 -149 -39 -295 -27 -68 -43 -91 -103 -152 -43
-42 -106 -91 -153 -119 -45 -26 -78 -51 -74 -57 3 -6 1 -7 -6 -3 -6 4 -40 1
-74 -8 -34 -8 -89 -18 -122 -21 -80 -8 -115 -23 -126 -52 -19 -52 5 -74 142
-128 69 -27 145 -63 168 -79 67 -47 155 -147 169 -193 16 -55 15 -77 -8 -167
-58 -226 -194 -372 -421 -452 -198 -70 -410 -6 -516 155 -34 52 -47 85 -70
185 -29 125 -45 156 -86 156 -43 0 -57 -21 -76 -115 -24 -113 -40 -150 -107
-250 -100 -149 -152 -195 -314 -276 l-105 -53 -121 -4 c-224 -7 -333 24 -412
117 -170 202 -216 311 -193 459 15 99 83 240 148 307 115 120 302 209 466 222
68 5 81 9 94 29 19 30 10 69 -20 88 -12 8 -51 19 -85 25 -113 18 -359 123
-425 180 -46 41 -93 149 -106 241 -19 137 13 263 92 368 81 107 175 169 270
179 73 7 208 -18 302 -57 147 -62 278 -225 335 -420 30 -102 41 -123 72 -134
20 -7 33 -5 52 7 79 52 15 398 -106 570 -29 40 -23 163 11 227 66 126 147 177
304 190 138 12 181 5 262 -44z m-5690 -1196 c39 -5 97 -10 130 -10 36 0 55 -4
50 -9 -6 -5 -140 -76 -300 -156 -159 -81 -292 -149 -294 -151 -12 -11 13 -12
99 -4 52 5 192 16 310 25 118 9 260 20 315 25 55 6 131 12 170 14 l70 5 34
-37 c19 -20 67 -72 107 -114 63 -66 71 -79 56 -86 -66 -34 -351 -107 -458
-117 -31 -3 -60 -7 -64 -10 -14 -9 -364 -44 -512 -51 -95 -5 -135 -10 -131
-18 3 -6 0 -5 -8 2 -10 9 -75 12 -254 12 -229 0 -555 17 -555 29 0 3 -35 7
-79 8 -43 2 -89 6 -102 11 l-23 9 25 15 c32 20 241 139 304 173 28 15 60 37
73 49 13 11 26 20 28 18 2 -1 17 4 33 12 16 9 31 12 35 9 3 -4 6 -1 6 6 0 7 4
10 9 7 5 -4 11 -2 13 3 8 23 569 280 619 284 10 1 19 4 19 8 0 7 53 22 66 19
4 -1 10 2 13 7 10 15 74 32 101 27 14 -2 57 -8 95 -14z"/>
<path d="M9247 3883 c-3 -4 -8 -71 -11 -148 -11 -216 -21 -283 -61 -381 -49
-122 -45 -118 -91 -105 -85 24 -161 7 -246 -55 l-50 -35 -61 47 c-34 27 -84
68 -112 92 -143 126 -359 267 -392 255 -23 -8 -13 -30 25 -55 53 -37 135 -110
314 -283 l157 -152 -16 -44 c-8 -25 -16 -81 -17 -129 -1 -86 10 -129 46 -181
l18 -27 -83 -89 c-45 -49 -142 -149 -214 -222 -120 -120 -156 -171 -122 -171
29 0 314 223 429 336 l75 73 65 -21 c109 -35 262 -25 350 22 21 11 29 5 104
-69 98 -98 202 -177 339 -257 117 -69 155 -87 168 -79 20 13 6 33 -48 72 -149
106 -443 382 -443 415 0 8 7 23 15 35 25 36 45 103 50 166 2 33 6 61 7 62 2 2
30 15 63 30 107 49 299 174 390 253 51 45 132 139 152 176 11 20 12 31 4 39
-8 8 -24 -1 -59 -34 -107 -104 -213 -172 -441 -288 l-143 -73 -29 34 c-15 18
-28 36 -29 40 0 11 -85 58 -103 58 -22 0 -22 -3 12 82 49 127 55 165 47 352
-8 210 -15 260 -38 264 -9 2 -18 -1 -21 -5z"/>
</g>
</svg>
