<?xml version="1.0" standalone="no"?>
<!DOCTYPE svg PUBLIC "-//W3C//DTD SVG 20010904//EN"
 "http://www.w3.org/TR/2001/REC-SVG-20010904/DTD/svg10.dtd">
<svg version="1.0" xmlns="http://www.w3.org/2000/svg"
 width="494.000000pt" height="505.000000pt" viewBox="0 0 494.000000 505.000000"
 preserveAspectRatio="xMidYMid meet">
<metadata>
Created by potrace 1.16, written by Peter Selinger 2001-2019
</metadata>
<g transform="translate(0.000000,505.000000) scale(0.100000,-0.100000)"
fill="#000000" stroke="none">
<path d="M2496 5000 c-758 -87 -1488 -449 -1951 -967 -131 -147 -127 -133 -81
-267 58 -167 93 -239 111 -232 19 7 59 -8 102 -37 29 -19 33 -28 33 -66 0 -41
-1 -43 -25 -39 -20 4 -23 3 -14 -8 8 -10 8 -18 1 -26 -6 -9 -6 -21 0 -38 6
-15 12 -20 15 -12 12 32 66 -6 69 -49 2 -23 -2 -29 -12 -25 -8 3 -14 1 -14 -4
0 -16 230 -248 299 -302 135 -106 289 -249 367 -341 l41 -49 12 63 c11 53 11
65 -1 73 -8 6 -17 19 -21 28 -3 9 -25 22 -49 28 -24 7 -48 16 -54 21 -6 5 -20
6 -29 2 -15 -5 -17 -2 -13 15 4 12 3 20 -2 17 -4 -3 -13 2 -20 10 -13 15 -44
9 -33 -8 3 -6 1 -7 -5 -3 -7 4 -17 16 -23 28 -8 15 -8 19 0 14 7 -5 11 2 11
18 0 16 -6 26 -15 26 -8 0 -15 5 -15 10 0 9 14 14 32 11 4 0 19 17 33 39 26
42 34 47 51 30 7 -7 16 -4 27 8 15 16 15 21 4 31 -11 9 -17 8 -27 -4 -15 -18
-28 -19 -63 -2 -31 14 -34 37 -10 73 14 22 14 33 5 75 -9 36 -9 56 -1 70 9 18
7 20 -17 17 -16 -2 -29 3 -32 11 -3 9 0 11 8 6 9 -5 10 -2 6 12 -4 12 -1 25 9
33 16 13 10 34 -7 24 -6 -4 -26 -8 -45 -10 -39 -3 -51 13 -33 45 8 16 8 21 -2
21 -16 1 -60 68 -48 75 4 3 16 2 25 -1 9 -4 25 2 38 13 12 12 39 28 59 38 37
17 48 37 28 50 -5 3 -35 -8 -66 -25 -67 -35 -84 -37 -84 -10 0 15 -7 20 -26
20 -26 0 -26 0 -9 27 10 14 33 41 51 60 19 19 34 38 34 43 0 6 -20 10 -44 10
-57 0 -84 10 -125 49 -22 21 -31 38 -29 53 3 26 24 28 75 7 29 -12 37 -10 97
21 36 18 66 37 66 42 0 5 14 21 30 35 38 31 39 47 3 38 -38 -9 -52 -22 -46
-43 3 -15 -6 -21 -48 -30 -44 -11 -55 -10 -69 3 -9 8 -24 15 -33 15 -9 0 -19
11 -23 25 -5 20 -9 23 -25 15 -17 -10 -18 -7 -12 37 7 58 20 78 39 62 17 -14
44 -5 44 14 0 8 18 20 39 27 31 10 41 18 43 39 4 37 67 58 103 35 16 -11 34
-14 55 -9 27 6 30 11 31 43 1 72 12 92 58 115 16 8 25 20 23 30 -2 10 6 30 18
46 11 16 20 32 20 35 0 4 10 20 22 36 54 74 205 57 302 -33 27 -25 57 -48 68
-50 20 -6 22 -2 32 45 3 15 13 34 22 42 13 14 19 14 50 1 19 -8 47 -24 61 -35
14 -11 33 -20 42 -20 9 0 28 -6 42 -14 23 -12 26 -11 25 2 -1 10 11 18 32 23
17 3 32 3 32 -2 0 -5 6 -9 14 -9 9 0 12 8 8 26 -9 51 34 77 269 163 167 61
254 70 331 32 57 -27 70 -42 77 -89 5 -31 11 -38 34 -40 15 -2 39 5 55 16 34
25 213 75 236 66 11 -4 15 -13 10 -27 -5 -14 -3 -19 7 -15 92 34 86 34 122 0
20 -19 43 -32 59 -32 33 0 240 -36 293 -51 54 -15 65 -27 41 -45 -19 -13 -18
-14 12 -14 17 0 35 6 39 14 7 12 20 12 88 -4 106 -26 154 -48 159 -74 30 -161
28 -186 -15 -186 -17 0 -46 -7 -67 -16 -20 -9 -61 -17 -90 -19 -70 -5 -78 -12
-50 -42 17 -18 31 -24 55 -21 25 3 34 -1 42 -19 17 -36 -18 -53 -109 -53 -42
0 -81 5 -86 10 -7 7 -19 7 -34 2 l-24 -9 22 -12 c13 -7 32 -9 43 -6 14 5 28 0
42 -13 12 -10 30 -24 41 -29 17 -9 16 -11 -8 -17 -15 -4 -24 -11 -21 -16 13
-20 -15 -9 -29 12 -14 20 -17 21 -31 7 -9 -8 -24 -38 -33 -65 -20 -56 -67 -94
-115 -94 -19 0 -28 -4 -24 -12 2 -7 0 -24 -4 -37 -8 -19 -14 -22 -35 -17 -22
6 -25 4 -20 -9 3 -9 6 -23 6 -31 0 -8 8 -14 18 -14 17 0 52 50 52 76 0 8 10
14 24 14 13 0 31 3 40 6 12 4 16 0 16 -16 0 -13 -8 -24 -20 -27 -34 -9 -22
-23 19 -23 29 0 40 -5 43 -18 3 -10 16 -18 30 -19 20 -2 32 7 54 40 26 37 95
111 102 108 14 -6 42 3 59 18 15 14 23 17 32 8 8 -8 11 -7 11 6 0 16 2 16 26
1 16 -11 24 -24 22 -38 -3 -24 -29 -29 -36 -7 -3 9 0 11 8 6 9 -6 11 -4 5 4
-5 9 -10 10 -18 2 -9 -9 -8 -17 1 -31 11 -17 10 -20 -8 -20 -11 0 -20 -4 -20
-8 0 -5 -22 -23 -50 -41 -48 -31 -59 -49 -42 -65 4 -4 7 -13 7 -19 0 -7 14
-11 35 -9 28 2 37 -2 45 -20 8 -18 18 -23 50 -23 42 0 45 -5 30 -55 -5 -16 -4
-22 3 -15 13 14 34 104 27 116 -4 5 -13 9 -20 9 -8 0 -19 9 -25 21 -15 27 3
49 40 49 22 0 29 6 35 28 3 15 16 37 27 49 25 27 17 54 -14 50 -15 -1 -23 4
-26 18 -9 52 -25 75 -60 85 -25 6 -40 6 -49 -2 -10 -8 -18 -6 -33 7 -25 23
-11 35 42 35 46 0 58 17 23 30 -33 13 -27 36 8 32 22 -3 27 2 33 25 29 119 45
178 54 188 8 9 6 14 -5 19 -10 3 -15 18 -15 41 l0 36 31 -22 31 -21 51 26 c75
38 148 37 188 -3 16 -16 29 -40 29 -53 0 -46 26 -68 81 -68 28 0 49 -5 49 -11
0 -5 5 -7 10 -4 6 4 28 -11 49 -32 28 -29 53 -44 99 -57 34 -9 62 -22 62 -27
0 -13 -31 -73 -41 -79 -4 -3 -10 -18 -13 -34 -5 -26 -39 -76 -58 -84 -4 -2
-21 -23 -37 -48 -30 -43 -30 -44 -13 -74 9 -16 23 -30 31 -30 21 0 80 -40 118
-79 18 -20 32 -30 31 -22 -2 7 3 16 11 19 10 3 13 -2 9 -22 -3 -15 -2 -29 3
-32 14 -8 31 36 24 66 -5 23 -2 31 15 40 25 14 22 16 49 -38 12 -23 26 -40 31
-37 4 3 18 -20 29 -50 20 -52 20 -57 5 -80 -9 -14 -20 -25 -25 -25 -5 0 -9 -6
-9 -12 0 -7 -7 -26 -15 -42 -14 -26 -14 -31 2 -48 22 -24 25 -48 7 -48 -9 0
-12 -4 -9 -10 3 -5 17 -10 30 -10 13 0 27 -4 30 -10 22 -36 25 29 23 566 l-3
577 -110 44 c-68 27 -151 72 -220 117 -183 122 -232 148 -520 281 -139 65
-343 135 -392 135 -13 0 -36 6 -51 14 -32 16 -154 40 -307 62 -131 18 -717 28
-839 14z m-1591 -1363 c4 -90 2 -127 -6 -127 -6 0 -8 -7 -5 -16 5 -14 1 -16
-26 -10 -46 9 -52 19 -37 61 10 28 11 38 1 44 -9 5 -7 20 9 62 11 29 22 65 23
78 3 20 25 45 33 37 2 -1 5 -59 8 -129z"/>
<path d="M2807 4426 c-9 -7 -28 -11 -42 -9 -15 3 -34 -3 -51 -16 -22 -17 -38
-20 -95 -19 -38 1 -69 6 -69 10 0 11 -137 3 -152 -9 -7 -6 -22 -12 -33 -14
-11 -2 -24 -14 -30 -27 -8 -18 -15 -21 -37 -17 -39 9 -108 -32 -108 -64 0 -22
3 -23 41 -17 22 4 56 4 75 0 27 -5 34 -11 34 -30 0 -31 17 -39 32 -14 7 11 18
20 24 20 6 0 28 13 48 30 33 25 45 29 89 26 29 -2 60 -6 70 -10 9 -3 25 -9 35
-12 18 -6 18 -6 -31 -39 -11 -7 -14 -20 -10 -42 6 -40 36 -44 77 -12 21 16 36
20 63 16 23 -4 43 -1 58 9 17 11 25 12 30 3 5 -6 1 -16 -9 -21 -20 -11 -20
-25 -2 -44 22 -21 36 -17 36 11 0 18 5 25 20 25 11 0 37 7 59 16 31 12 44 13
60 4 12 -6 19 -15 16 -21 -4 -5 -3 -19 0 -30 7 -20 12 -21 67 -15 33 4 66 10
74 13 19 7 18 -16 -3 -39 -15 -17 -15 -19 1 -36 15 -18 20 -18 72 -5 31 8 58
12 61 10 3 -3 8 -22 13 -41 6 -28 5 -36 -6 -36 -17 0 -17 -2 -2 -34 6 -14 19
-28 30 -31 29 -10 21 -35 -16 -50 -22 -9 -37 -25 -44 -45 -8 -21 -15 -28 -26
-24 -9 3 -16 12 -16 19 0 7 -6 15 -14 18 -7 3 -16 24 -20 46 -5 33 -11 42 -32
47 -22 6 -31 1 -51 -25 -14 -18 -31 -30 -38 -27 -7 2 -17 -6 -23 -19 -6 -13
-25 -31 -42 -40 -20 -10 -28 -20 -23 -28 4 -7 6 -22 5 -34 -5 -32 47 -58 74
-38 11 8 35 14 54 14 l35 0 -27 -24 c-36 -31 -37 -65 -4 -65 14 0 28 5 31 10
13 21 55 11 65 -15 11 -29 44 -33 78 -9 14 9 33 13 46 10 18 -4 26 0 34 18 9
21 8 27 -14 40 -13 9 -24 23 -24 31 0 21 -32 35 -53 24 -20 -12 -23 2 -7 32 6
11 21 19 36 19 16 0 28 8 34 23 5 12 20 33 35 46 14 13 23 26 20 29 -10 10 28
42 50 42 11 0 30 -7 41 -15 10 -8 27 -15 36 -15 9 0 18 -6 21 -12 3 -10 8 -10
18 1 11 10 11 15 2 18 -7 3 -13 20 -13 39 0 19 -4 34 -8 34 -13 0 -42 68 -42
98 0 29 -37 151 -50 165 -4 5 -21 2 -38 -7 -16 -8 -32 -12 -36 -9 -4 4 -5 -4
-4 -17 3 -21 -3 -26 -36 -34 -34 -9 -40 -8 -56 12 -12 14 -24 20 -35 16 -14
-6 -67 11 -117 37 -26 13 -45 11 -52 -6 -8 -21 -24 -19 -31 5 -5 15 -12 19
-29 14 -18 -4 -28 1 -46 26 -20 28 -22 68 -3 57 14 -8 53 12 53 27 0 18 -48
49 -66 42 -7 -3 -29 1 -48 9 -43 18 -66 18 -89 1z"/>
<path d="M3195 4381 c-3 -6 -1 -27 6 -46 9 -25 22 -38 45 -45 18 -6 42 -20 55
-30 30 -27 49 -26 21 1 -25 22 -21 39 8 39 10 0 31 11 46 24 l28 23 -24 13
c-13 7 -51 14 -84 15 -34 2 -68 6 -77 10 -10 3 -20 2 -24 -4z"/>
<path d="M1468 3998 c-2 -24 -10 -36 -30 -46 -33 -16 -37 -48 -9 -83 13 -17
17 -34 14 -54 l-6 -30 26 23 c21 20 29 22 46 13 12 -7 21 -20 21 -29 0 -20
-35 -62 -50 -62 -6 0 -10 -4 -10 -10 0 -22 32 -8 70 31 22 23 42 40 44 38 3
-2 7 -16 11 -30 5 -20 1 -32 -16 -48 -25 -23 -20 -38 8 -25 10 4 23 8 28 9 6
0 36 9 67 19 38 12 66 16 85 11 15 -5 32 -7 37 -6 4 1 17 -1 28 -5 18 -6 19
-7 2 -25 -14 -16 -15 -19 -2 -19 24 0 69 47 62 65 -5 11 -10 13 -19 5 -14 -12
-26 -3 -18 15 2 8 11 11 19 8 20 -7 17 11 -5 31 -16 15 -17 22 -8 47 7 17 21
32 34 35 29 8 29 15 -2 42 -27 23 -26 42 2 42 13 0 12 5 -7 25 -32 34 -46 32
-74 -13 -15 -25 -44 -49 -79 -67 l-55 -29 -53 17 c-36 11 -57 13 -65 6 -9 -7
-19 8 -40 61 -29 75 -51 90 -56 38z"/>
<path d="M2317 3993 c-4 -3 -7 -15 -7 -25 0 -26 -44 -42 -71 -25 -18 10 -23 9
-40 -13 -19 -23 -19 -25 -3 -37 9 -7 25 -30 35 -53 25 -55 43 -53 36 5 -5 36
-4 45 8 45 8 0 15 -7 15 -15 0 -8 11 -25 25 -39 50 -50 25 -90 -80 -131 -76
-29 -93 -40 -80 -52 4 -5 10 -2 12 5 8 21 21 13 32 -18 5 -17 18 -33 28 -37
10 -3 37 -19 60 -35 23 -15 53 -32 67 -38 14 -5 26 -16 26 -24 0 -18 68 -78
81 -71 24 15 8 55 -36 87 -24 18 -44 41 -45 51 0 20 9 21 62 5 31 -9 44 -9 60
1 17 10 24 9 52 -12 l32 -25 27 24 c15 13 27 27 27 33 0 5 10 11 23 14 20 3
20 4 4 12 -13 5 -25 1 -41 -14 -27 -25 -39 -26 -56 -6 -7 9 -20 13 -28 10 -7
-3 -26 4 -42 15 -15 11 -35 20 -43 20 -9 0 -29 8 -46 17 -33 19 -34 44 -4 92
13 20 13 25 2 32 -14 9 -28 12 -41 10 -4 0 -4 7 -1 16 4 10 2 14 -4 10 -7 -5
-9 1 -5 15 3 12 7 17 10 10 5 -16 18 -16 19 1 1 6 4 27 8 44 7 30 5 34 -25 47
-20 8 -28 16 -21 20 18 11 13 36 -7 36 -10 0 -22 -3 -25 -7z"/>
<path d="M4252 3993 c-6 -3 -10 -8 -7 -13 3 -4 -13 -27 -35 -51 -38 -42 -50
-69 -31 -69 5 0 23 -14 40 -31 33 -32 32 -47 -7 -91 -13 -16 -13 -18 2 -24 23
-9 69 16 56 30 -8 11 -1 59 15 99 4 9 19 20 34 23 14 4 33 13 43 21 19 17 43
71 35 80 -4 3 -28 6 -55 7 -27 0 -55 6 -63 12 -8 6 -20 9 -27 7z"/>
<path d="M2513 3944 c-7 -18 20 -44 44 -44 22 0 14 -20 -12 -32 -19 -9 -25
-19 -25 -45 0 -18 2 -33 5 -33 2 0 25 10 50 22 37 18 48 20 54 9 6 -9 18 -11
40 -6 24 5 31 3 31 -9 0 -21 53 -22 70 -1 17 20 36 19 59 -4 27 -27 106 -22
106 5 0 12 -8 20 -20 20 -11 1 -23 2 -27 3 -4 1 -3 12 2 26 12 32 -15 50 -55
35 -34 -13 -35 -13 -35 5 0 8 -18 26 -39 41 -32 21 -43 24 -60 14 -12 -6 -21
-16 -21 -23 0 -8 -18 -13 -50 -14 -47 -1 -50 1 -50 23 0 20 -5 24 -30 24 -19
0 -33 -6 -37 -16z"/>
<path d="M3430 3886 c-6 -8 -10 -28 -8 -43 2 -23 -1 -29 -20 -31 -12 -2 -26
-11 -31 -20 -10 -21 -2 -92 11 -92 5 0 8 12 6 28 -3 25 0 27 34 30 26 2 39 9
43 22 6 19 7 19 28 0 26 -25 53 -22 49 5 -2 11 -6 35 -9 53 -5 29 -9 33 -30
29 -16 -3 -27 1 -34 14 -12 23 -22 24 -39 5z"/>
<path d="M2030 3720 c-14 -11 -34 -19 -46 -18 -11 2 -32 -7 -48 -19 -15 -12
-69 -43 -121 -69 -74 -37 -99 -45 -123 -39 -28 6 -47 30 -40 51 1 5 -3 19 -10
32 l-13 23 -32 -32 -31 -32 22 -17 c12 -10 22 -23 22 -29 0 -6 5 -11 10 -11 6
0 10 5 10 10 0 6 5 10 10 10 16 0 11 -27 -6 -34 -13 -5 -14 -9 -4 -22 10 -12
11 -17 1 -27 -10 -9 -14 -8 -22 5 -9 16 -11 16 -27 -1 -24 -26 -53 -81 -42
-81 6 0 10 4 10 10 0 17 59 41 84 34 17 -4 27 -1 34 11 7 14 13 15 30 6 11 -6
41 -11 65 -11 47 0 57 -10 57 -52 0 -17 5 -20 30 -16 17 3 30 1 30 -4 0 -4 6
-8 14 -8 18 0 30 30 16 44 -14 14 -13 26 4 26 8 0 17 7 20 16 4 12 15 15 37
12 25 -4 33 -1 37 14 3 14 7 16 18 7 11 -9 16 -6 24 15 5 14 14 26 20 26 14 0
40 -43 54 -92 7 -23 21 -47 31 -53 36 -20 54 -41 77 -92 14 -31 40 -66 67 -88
49 -40 68 -39 29 3 -47 50 -144 211 -177 294 -16 41 -21 66 -16 89 l7 32 -61
-7 c-51 -6 -61 -5 -61 9 0 20 -27 19 -39 -2 -12 -22 -25 -11 -17 14 7 22 85
53 131 53 33 0 24 15 -15 24 -17 4 -33 -1 -50 -14z"/>
<path d="M207 3533 c-26 -54 -52 -105 -56 -113 -14 -24 -51 -124 -51 -136 0
-7 -7 -17 -15 -24 -8 -7 -13 -16 -10 -20 2 -4 -4 -24 -15 -44 -10 -21 -16 -44
-13 -52 3 -8 0 -20 -6 -28 -6 -8 -14 -31 -17 -52 -2 -22 -9 -55 -14 -74 -6
-20 -10 -381 -10 -896 l0 -862 36 -32 c20 -17 53 -38 73 -47 20 -8 44 -20 55
-25 10 -5 34 -12 52 -14 50 -6 159 -49 224 -89 31 -19 111 -88 176 -152 149
-147 211 -200 344 -294 100 -72 205 -139 215 -139 3 0 27 -13 53 -30 27 -16
59 -30 70 -30 12 0 26 -9 32 -20 6 -11 23 -23 38 -26 15 -4 38 -14 51 -23 13
-8 29 -16 35 -17 6 -1 45 -18 87 -38 42 -20 82 -36 88 -36 6 0 19 -4 29 -9 57
-30 375 -120 477 -136 17 -2 71 -11 120 -20 277 -46 680 -44 960 6 116 21 121
21 134 5 8 -9 20 -16 28 -16 11 0 9 5 -7 18 -22 18 -22 18 46 31 70 13 166 37
194 48 8 3 20 7 25 8 8 2 87 25 105 30 3 1 19 7 35 14 17 7 57 23 90 36 153
57 175 67 175 76 0 5 5 9 12 9 6 0 30 8 52 19 23 10 48 21 56 25 8 3 29 14 45
24 17 10 50 30 75 44 25 14 66 38 92 52 25 15 52 33 58 41 7 8 16 15 21 15 10
0 112 68 209 138 72 53 86 64 157 130 17 16 40 36 50 43 45 34 73 80 73 122
l0 41 -30 -29 c-16 -15 -27 -33 -23 -38 3 -6 1 -7 -4 -4 -6 4 -37 -18 -69 -49
-54 -51 -203 -167 -329 -255 -106 -75 -326 -198 -442 -247 -67 -29 -126 -52
-132 -52 -6 0 -19 -4 -29 -10 -65 -37 -438 -146 -466 -137 -6 2 5 7 24 12 73
16 363 106 452 141 366 142 709 362 991 633 l57 55 0 106 -1 105 -34 -55 c-19
-30 -35 -66 -35 -80 0 -18 -3 -21 -9 -11 -6 9 -11 10 -15 2 -4 -6 -12 -11 -17
-11 -6 0 -8 4 -5 9 3 5 -1 12 -9 15 -8 3 -14 11 -13 17 2 6 -3 14 -9 16 -10 3
-9 -3 1 -28 10 -24 11 -39 3 -56 -7 -16 -7 -27 3 -38 11 -13 10 -14 -4 -9 -11
4 -30 -8 -61 -41 -25 -25 -45 -49 -45 -53 -1 -14 -257 -192 -277 -192 -5 0
-14 -9 -21 -20 -7 -11 -17 -20 -23 -20 -5 0 -7 5 -3 11 4 7 1 10 -7 7 -8 -3
-13 -12 -11 -20 1 -10 -8 -18 -23 -22 -14 -4 -25 -10 -25 -15 0 -9 -61 -51
-74 -51 -4 0 -4 6 -1 13 4 6 -3 1 -15 -13 -20 -23 -21 -24 -17 -4 2 12 1 28
-4 35 -4 8 -4 16 2 20 7 4 5 8 -4 12 -17 6 -57 -27 -57 -48 0 -8 -5 -15 -11
-15 -6 0 -28 -17 -48 -38 -21 -21 -42 -37 -47 -35 -6 2 -20 -6 -32 -18 -13
-11 -37 -22 -55 -24 -64 -7 -97 -14 -116 -24 -11 -6 -29 -11 -41 -11 -12 0
-34 -8 -48 -19 -42 -29 -95 -42 -143 -35 l-44 6 30 -26 30 -26 -33 -29 c-38
-32 -72 -42 -97 -29 -10 6 -26 6 -43 -1 -42 -17 -171 -48 -166 -40 2 4 -5 10
-16 14 -12 4 -40 -3 -73 -19 -80 -38 -119 -45 -297 -47 -173 -3 -318 7 -360
24 -14 5 -48 10 -77 9 -40 0 -51 3 -46 14 6 17 -13 19 -23 3 -6 -11 -47 -9
-119 6 -59 12 -67 16 -56 29 14 17 4 26 -30 26 -24 0 -28 4 -31 33 -3 30 -5
32 -37 29 -19 -1 -41 -8 -48 -14 -10 -8 -18 -7 -31 6 -23 20 -32 20 -32 1 0
-9 -7 -18 -16 -22 -8 -3 -13 -12 -9 -20 4 -12 0 -14 -15 -10 -11 3 -23 1 -26
-5 -4 -7 -9 -7 -13 0 -4 6 -23 13 -42 15 -20 2 -53 13 -75 25 -21 12 -64 31
-94 42 -169 63 -454 216 -513 275 -9 8 -20 15 -25 15 -5 0 -16 7 -23 16 -12
15 -11 16 11 9 14 -4 29 -11 35 -16 17 -16 53 -10 60 11 3 11 10 20 14 20 14
0 7 36 -10 53 -9 9 -28 19 -43 23 -14 3 -26 10 -26 16 0 5 -4 7 -9 3 -20 -12
-21 15 -1 32 11 10 20 29 20 42 0 22 -3 20 -28 -19 -37 -57 -28 -90 25 -90 18
0 33 -3 33 -8 0 -4 -18 -6 -39 -4 -36 4 -41 8 -58 47 -17 41 -18 42 -40 28
-18 -12 -26 -13 -38 -3 -12 10 -18 6 -36 -24 -23 -39 -34 -43 -62 -21 -13 9
-17 20 -12 35 6 18 3 21 -12 18 -10 -2 -17 -10 -15 -17 4 -22 -38 8 -48 35 -5
13 -17 24 -26 24 -20 0 -94 41 -94 52 0 24 -48 76 -84 91 -23 10 -59 33 -81
52 l-40 36 52 -28 c28 -15 55 -25 59 -20 11 10 -1 19 -31 22 -33 4 -79 42
-102 85 -10 19 -25 44 -33 54 -14 18 -13 19 3 13 13 -5 17 -1 17 17 0 35 41
89 83 109 34 16 36 19 25 40 -7 12 -16 25 -21 28 -4 3 -12 21 -17 40 l-10 34
20 -25 c11 -14 23 -35 26 -48 4 -14 12 -21 20 -18 7 3 16 1 19 -4 10 -16 65
-12 65 4 0 7 7 19 15 26 8 7 15 17 15 22 0 6 -6 6 -14 -1 -11 -9 -24 -3 -64
28 -28 22 -55 48 -60 57 -5 9 -22 18 -36 20 -24 2 -26 1 -14 -14 12 -15 11
-16 -4 -3 -10 7 -15 17 -12 22 3 5 1 9 -5 9 -25 0 -100 171 -130 299 -46 193
-52 485 -16 746 36 259 29 480 -21 677 -33 132 -93 318 -102 318 -4 0 -29 -44
-55 -97z"/>
<path d="M3546 3563 c-3 -4 -6 -19 -6 -34 0 -22 -8 -32 -32 -45 -28 -15 -33
-15 -42 -2 -8 13 -12 12 -29 -5 -19 -19 -19 -20 -2 -34 14 -10 15 -13 4 -13
-8 0 -23 -13 -32 -30 -14 -22 -26 -30 -47 -30 -20 0 -31 -6 -35 -20 -5 -15
-15 -20 -45 -20 -52 0 -64 30 -25 66 15 14 33 23 39 21 14 -6 39 29 31 42 -3
5 -14 7 -24 4 -10 -3 -22 0 -25 6 -12 18 -49 14 -42 -5 7 -19 -10 -54 -28 -54
-7 0 -21 9 -31 20 -28 31 -48 26 -43 -10 3 -20 -1 -35 -13 -46 -17 -15 -18
-14 -24 9 -5 17 -18 29 -37 36 -43 15 -48 14 -48 -9 0 -17 5 -19 25 -14 27 7
35 -12 14 -33 -27 -27 -89 39 -89 95 l0 27 -19 -24 -19 -24 -41 32 c-22 18
-41 39 -41 47 0 17 -21 19 -37 3 -8 -8 -17 -8 -31 0 -15 8 -23 6 -36 -8 -9 -9
-16 -22 -16 -28 0 -6 27 -35 60 -64 48 -43 59 -58 55 -76 -4 -18 -1 -23 13
-23 10 0 22 -3 26 -7 4 -4 23 -6 42 -4 25 2 33 -1 29 -11 -3 -7 17 -35 44 -63
27 -27 47 -54 44 -58 -3 -5 4 -6 16 -3 11 3 30 9 41 12 14 4 20 1 20 -10 0
-22 39 -40 82 -37 50 2 98 -23 98 -52 0 -38 14 -51 40 -37 18 10 21 9 18 -2
-3 -7 2 -18 11 -24 24 -18 -3 -43 -47 -44 -230 -1 -253 3 -268 45 -6 15 -8 9
-11 -25 -3 -31 -11 -50 -26 -62 -19 -15 -22 -15 -33 0 -10 13 -15 14 -27 4
-19 -16 -70 -5 -63 13 6 17 -72 41 -87 26 -6 -6 -19 -11 -29 -11 -10 0 -18 -7
-18 -15 0 -9 6 -15 13 -14 6 2 29 -5 51 -14 21 -9 42 -17 47 -17 4 0 17 -9 27
-21 14 -14 35 -21 67 -23 49 -3 44 -6 103 74 2 2 6 0 10 -6 10 -16 94 -35 107
-24 6 5 36 10 67 12 31 1 56 7 55 12 -1 6 7 12 18 14 16 3 18 1 8 -9 -18 -18
-16 -36 5 -41 27 -7 40 1 35 23 -6 20 -6 20 33 0 21 -12 49 -21 61 -21 26 0
153 135 153 162 0 10 6 18 14 18 8 0 17 9 21 19 3 10 15 21 26 24 13 4 18 10
14 18 -6 8 -3 9 10 2 20 -11 55 -6 55 8 0 5 -10 9 -22 9 -17 0 -19 3 -10 12
16 16 15 28 -3 28 -8 0 -15 -7 -15 -16 0 -11 -5 -14 -17 -9 -47 19 -91 27
-127 22 -22 -3 -48 -1 -59 5 -30 16 -34 -1 -5 -25 14 -12 32 -33 38 -46 12
-23 11 -24 -19 -18 -19 4 -31 2 -31 -4 0 -7 -11 -4 -26 6 -21 13 -28 14 -34 4
-6 -9 -29 9 -79 60 -66 69 -72 73 -104 67 -22 -4 -44 -1 -62 8 -16 9 -34 12
-39 7 -6 -4 -21 3 -34 15 l-23 22 22 15 c25 18 60 9 95 -24 23 -21 59 -16 117
19 18 10 53 25 80 32 33 9 60 26 89 56 24 24 50 44 58 44 9 0 26 14 39 31 13
17 25 28 28 25 8 -7 -28 -50 -76 -90 l-41 -34 43 -7 c57 -10 82 -24 68 -38
-16 -16 -14 -27 4 -27 26 0 75 -30 75 -45 0 -26 45 -17 91 18 24 17 62 39 84
48 44 18 61 49 26 46 -12 -1 -21 -5 -21 -10 0 -4 -5 -5 -11 -1 -7 4 -7 9 -2
13 9 6 33 45 33 54 0 2 -18 9 -40 16 -30 9 -45 9 -61 0 -15 -8 -19 -8 -15 0 4
6 5 15 1 21 -9 14 -53 -8 -104 -52 -24 -21 -48 -38 -53 -38 -13 0 21 42 60 75
40 34 41 49 2 43 -20 -3 -30 0 -30 9 0 7 5 13 10 13 18 0 11 19 -12 34 -27 16
-83 28 -92 19z"/>
<path d="M4475 3370 c-3 -5 -15 -10 -26 -10 -11 0 -19 -7 -19 -16 0 -13 -3
-14 -15 -4 -12 10 -16 9 -21 -3 -8 -22 12 -54 38 -63 23 -7 38 -22 38 -38 0
-6 -6 -2 -12 7 -10 12 -17 14 -28 7 -13 -9 -12 -12 4 -25 11 -8 30 -15 42 -15
25 0 49 24 39 40 -3 5 1 10 9 10 27 0 40 38 22 63 -41 59 -57 69 -71 47z"/>
<path d="M4832 3022 c-7 -9 -10 -11 -7 -4 10 20 -40 14 -60 -8 -11 -12 -13
-20 -6 -20 6 0 14 7 17 15 9 23 19 18 20 -10 1 -13 11 -36 23 -51 12 -15 21
-32 21 -38 0 -7 11 -27 24 -44 21 -29 22 -37 14 -83 -5 -28 -13 -60 -17 -72
-8 -20 -9 -20 -27 13 -10 19 -23 44 -29 54 -5 11 -16 21 -22 23 -22 7 32 -101
55 -112 31 -14 29 -39 -3 -32 -17 3 -24 0 -22 -7 3 -6 10 -10 16 -8 8 1 6 -9
-5 -28 -10 -16 -23 -30 -30 -30 -6 0 -23 -9 -37 -20 -14 -11 -36 -20 -49 -20
-13 0 -29 -5 -36 -12 -9 -9 -12 -9 -12 0 0 19 -18 14 -25 -8 -3 -11 -13 -20
-21 -20 -8 0 -14 -4 -14 -10 0 -14 -33 -13 -47 1 -6 6 -9 17 -7 24 3 7 1 16
-5 20 -6 3 -9 0 -5 -8 3 -9 -7 -20 -30 -31 -19 -9 -38 -21 -41 -27 -4 -5 -15
-7 -26 -4 -22 7 -25 -5 -6 -24 10 -10 8 -11 -6 -5 -15 6 -17 3 -11 -20 6 -25
4 -26 -34 -26 -47 0 -61 21 -29 43 16 11 18 15 6 13 -10 -1 -23 -7 -30 -12
-17 -13 -52 19 -38 33 11 11 1 43 -13 43 -5 0 -7 -4 -4 -9 3 -5 -3 -11 -14
-14 -11 -3 -18 -2 -15 2 8 14 -95 5 -108 -9 -9 -10 -9 -11 1 -6 14 9 75 -31
67 -44 -3 -5 -25 -9 -49 -8 -39 0 -43 3 -40 22 2 11 2 15 -2 9 -13 -28 -26
-11 -22 27 2 22 -1 40 -6 40 -5 0 -6 3 -3 6 14 14 -44 46 -81 44 -20 -1 -47
-2 -59 -2 -19 0 -20 -2 -8 -14 7 -8 25 -14 40 -14 15 0 24 -4 20 -10 -3 -5 0
-7 8 -4 20 7 42 -24 39 -57 -4 -35 5 -38 18 -6 6 16 9 17 9 5 1 -9 -4 -20 -9
-23 -6 -4 -8 -14 -5 -24 3 -12 -1 -17 -15 -18 -11 -1 -20 4 -19 10 7 58 -26
67 -71 20 -30 -30 -35 -32 -48 -19 -13 13 -13 18 -1 33 12 16 11 16 -9 -1
l-22 -19 0 30 c0 32 -14 43 -51 43 -16 0 -18 -3 -9 -19 5 -11 10 -28 10 -38 0
-11 15 -25 38 -36 29 -14 38 -24 37 -40 -2 -33 -28 -31 -44 3 l-13 31 -20 -20
c-10 -12 -24 -21 -29 -21 -18 0 -79 32 -79 40 0 5 -8 10 -17 13 -10 2 -1 4 19
3 21 -1 38 -5 38 -10 0 -6 5 -5 12 2 7 7 17 12 23 12 5 0 3 -5 -5 -10 -13 -8
-13 -10 1 -10 9 0 19 3 22 7 11 10 -13 33 -34 33 -12 0 -19 7 -19 20 0 13 5
18 15 14 9 -4 15 0 15 9 0 10 -7 13 -20 10 -14 -4 -22 1 -27 15 -5 12 -12 22
-18 23 -20 4 -55 22 -55 30 0 7 27 21 43 23 8 1 27 26 27 37 0 4 -9 9 -21 12
-12 3 -18 10 -14 16 3 6 10 9 15 6 5 -3 21 2 36 11 14 10 45 19 67 22 23 2 47
8 54 14 16 13 17 -4 2 -19 -7 -7 -7 -13 0 -17 5 -4 8 -13 4 -21 -3 -8 0 -15 6
-15 17 0 26 31 11 40 -10 6 -10 9 1 16 8 5 14 18 14 28 0 11 8 20 18 22 27 4
30 10 15 33 -11 19 -19 21 -58 15 -53 -8 -68 -18 -52 -37 12 -14 7 -27 -10
-27 -5 0 -7 4 -3 9 3 5 1 12 -5 16 -5 3 -10 2 -10 -4 0 -5 -8 -11 -17 -13 -10
-2 -18 -12 -18 -22 0 -12 -10 -23 -27 -28 -26 -9 -59 6 -106 50 -7 6 -18 12
-23 12 -5 0 -9 7 -9 15 0 8 4 15 10 15 5 0 7 8 4 18 -5 13 -4 14 4 3 6 -8 17
-11 25 -8 8 3 19 1 25 -5 7 -7 10 -6 9 3 -4 26 -19 40 -35 35 -20 -6 -37 3
-43 23 -3 8 -12 -1 -24 -23 -19 -35 -19 -35 3 -65 21 -29 16 -49 -10 -36 -7 4
-5 0 5 -8 22 -19 22 -34 -3 -47 -12 -6 -20 -7 -20 -1 0 5 6 11 13 14 6 2 10 7
7 10 -3 3 -18 -6 -35 -20 -16 -14 -23 -22 -15 -18 12 7 13 5 3 -6 -16 -16 -17
-33 -2 -23 6 3 15 1 19 -5 5 -9 17 -6 44 10 20 12 40 19 43 15 4 -3 0 -6 -7
-6 -9 0 -5 -9 9 -24 13 -14 21 -31 18 -38 -2 -7 -1 -20 3 -28 14 -27 -6 -58
-34 -55 -14 2 -26 -1 -26 -6 0 -5 7 -9 15 -9 19 0 19 -7 1 -26 -16 -16 -36
-19 -36 -5 0 5 -14 4 -30 -2 -27 -10 -32 -9 -46 11 -8 12 -24 22 -35 22 -10 0
-19 4 -19 8 0 5 -6 9 -14 9 -8 0 -12 -6 -9 -13 3 -8 -2 -11 -16 -7 -11 3 -33
-1 -48 -9 -25 -13 -31 -13 -42 0 -11 12 -15 12 -22 0 -7 -10 -15 -7 -34 15
-27 31 -48 36 -38 10 3 -10 3 -15 -1 -11 -5 4 -18 -2 -29 -13 -19 -18 -23 -18
-33 -4 -6 8 -18 15 -26 15 -8 0 -27 14 -42 31 -25 27 -27 34 -17 56 21 45 -9
84 -37 50 -8 -10 -8 -19 1 -33 14 -20 15 -67 2 -97 -5 -11 -1 -25 10 -37 16
-18 17 -20 2 -20 -10 0 -17 7 -17 15 0 9 -6 12 -15 9 -8 -4 -15 -1 -15 5 0 6
-7 11 -15 11 -8 0 -15 -4 -15 -10 0 -5 5 -10 10 -10 5 0 19 -9 29 -19 16 -16
17 -21 5 -25 -7 -3 -17 1 -21 8 -5 7 -24 22 -43 32 -31 16 -32 19 -14 22 14 2
24 12 26 27 3 14 1 22 -3 19 -5 -3 -14 6 -21 20 -17 39 -28 31 -28 -21 -1 -44
-2 -47 -15 -29 -12 16 -15 17 -15 4 0 -8 7 -21 16 -29 9 -7 14 -22 11 -36 -2
-13 0 -23 6 -23 6 0 7 -3 3 -7 -3 -4 -27 -9 -52 -11 -39 -3 -46 -1 -51 17 -3
12 -11 21 -19 21 -7 0 -11 6 -8 14 7 19 -15 31 -49 27 -17 -1 -29 3 -33 13 -4
11 -19 16 -44 16 -42 0 -52 13 -39 49 7 17 15 22 29 18 11 -3 20 -1 20 4 0 14
53 11 75 -4 11 -8 34 -19 52 -25 27 -9 31 -8 26 4 -3 9 0 26 7 40 17 31 8 39
-30 25 -33 -11 -70 -1 -70 20 0 6 -5 7 -11 4 -5 -4 -19 1 -29 10 -10 9 -24 14
-29 10 -7 -3 -11 2 -11 14 0 28 -10 26 -54 -8 -34 -27 -120 -51 -134 -37 -3 3
8 6 24 6 l29 0 -38 20 c-29 16 -42 18 -57 10 -11 -6 -20 -7 -20 -2 0 6 -11 12
-25 14 -14 3 -25 2 -25 -2 0 -9 76 -60 89 -60 11 0 27 -43 36 -92 3 -21 10
-38 14 -38 5 0 12 -17 16 -37 9 -49 14 -56 30 -43 16 13 28 -1 19 -24 -18 -47
-99 -18 -177 64 -57 61 -80 74 -75 43 2 -12 -4 -19 -19 -21 -17 -3 -23 2 -23
16 0 11 -6 22 -14 25 -10 4 -12 0 -9 -14 3 -10 0 -19 -6 -19 -6 0 -11 9 -11
20 0 11 -5 20 -11 20 -8 0 -8 4 1 15 6 8 12 42 12 75 0 46 3 60 15 60 8 0 12
-4 9 -9 -3 -5 1 -22 9 -37 8 -16 15 -23 15 -15 0 15 45 61 61 61 18 0 8 28
-16 44 -14 9 -27 27 -31 41 -8 30 -8 30 -47 3 -18 -13 -51 -23 -84 -26 -29 -2
-53 -7 -54 -11 -1 -3 -2 -45 -3 -93 -2 -66 0 -85 10 -81 12 5 31 -7 57 -35 7
-7 22 -24 35 -37 13 -14 31 -25 42 -25 10 0 22 -4 25 -10 3 -5 20 -10 38 -10
31 0 31 0 9 -16 -12 -8 -20 -20 -17 -25 9 -13 -9 -11 -23 3 -7 7 -12 8 -12 2
0 -6 12 -17 28 -25 15 -8 33 -20 40 -26 15 -15 46 -18 38 -4 -7 10 16 21 43
21 24 0 61 -33 61 -54 0 -11 5 -15 13 -10 6 4 4 -2 -6 -13 -16 -19 -16 -21 3
-38 11 -10 20 -13 20 -7 0 7 -6 12 -12 13 -7 0 -4 4 6 8 11 4 39 4 63 1 42 -7
45 -5 71 29 14 20 29 40 33 45 4 5 25 -5 46 -23 20 -17 48 -31 60 -31 13 0 23
-4 23 -10 0 -5 10 -10 23 -10 41 0 64 -11 75 -35 9 -20 9 -23 -3 -18 -8 3 -15
0 -15 -6 0 -6 6 -11 13 -11 6 0 4 -5 -6 -11 -10 -6 -25 -8 -34 -5 -8 4 -22 1
-29 -5 -7 -6 -19 -7 -25 -3 -8 4 -9 3 -5 -4 4 -7 2 -12 -3 -12 -6 0 -11 -7
-11 -15 0 -8 6 -15 14 -15 7 0 19 -7 26 -15 7 -8 18 -15 24 -15 6 0 3 5 -7 11
-9 6 -15 14 -12 20 4 5 -2 9 -12 10 -14 0 -15 2 -3 6 8 3 18 10 21 16 8 12 71
18 63 6 -3 -5 2 -9 10 -9 8 0 21 -7 30 -15 13 -14 16 -13 30 7 21 30 21 30
-16 85 -26 37 -32 58 -33 98 0 43 3 50 21 53 11 2 34 -2 50 -9 71 -29 75 -13
4 18 -28 12 -50 26 -50 32 0 6 15 2 33 -9 17 -10 48 -21 68 -25 39 -7 42 -4
59 70 l7 30 8 -32 c5 -22 17 -36 40 -47 42 -20 59 -20 51 0 -3 9 -6 18 -6 20
0 2 -8 4 -18 4 -10 0 -27 7 -38 15 -18 14 -18 14 11 16 17 1 44 3 60 3 23 1
29 5 27 19 -2 9 2 17 8 17 5 0 9 -5 7 -11 -1 -6 6 -13 16 -14 27 -5 30 -11 17
-37 -10 -19 -10 -21 1 -10 19 17 32 15 50 -11 17 -22 16 -23 -17 -19 -21 3
-34 0 -34 -7 0 -6 9 -11 20 -11 11 0 28 -4 38 -9 9 -5 25 -12 35 -15 9 -3 17
-11 17 -17 0 -14 -73 -4 -78 11 -2 5 -10 10 -17 10 -7 0 -24 17 -36 37 -13 20
-25 31 -27 24 -2 -6 2 -19 9 -27 11 -14 10 -18 -4 -29 -16 -11 -16 -14 3 -37
l20 -26 -23 -7 c-19 -6 -19 -8 -4 -12 9 -2 17 -9 17 -15 0 -6 11 -7 28 -3 l27
7 -25 -28 c-14 -15 -19 -24 -11 -19 20 12 81 15 81 4 0 -5 10 -9 23 -9 16 0
18 -3 9 -9 -8 -4 -13 -11 -13 -15 1 -3 1 -8 1 -11 0 -3 -14 2 -30 10 -28 14
-31 14 -37 -1 -12 -31 11 -49 61 -48 25 0 46 -3 46 -7 0 -10 33 -4 57 12 13 7
33 9 58 5 35 -7 37 -9 31 -38 -3 -17 -17 -46 -31 -63 -22 -30 -39 -37 -110
-49 -16 -2 -20 -11 -20 -44 0 -22 -3 -44 -7 -48 -7 -6 -38 -13 -75 -16 -19 -2
-17 -6 23 -44 34 -32 51 -39 81 -35 7 1 19 -9 28 -22 8 -13 36 -34 60 -47 25
-13 45 -29 45 -37 0 -7 11 -18 24 -24 13 -6 26 -20 29 -30 4 -16 12 -17 56
-12 59 7 64 -3 18 -34 -36 -25 -76 -30 -95 -11 -12 12 -13 9 -12 -29 0 -5 14
-7 31 -6 23 1 29 -2 25 -12 -3 -8 -2 -16 2 -19 13 -7 77 29 78 44 2 39 18 69
41 79 24 11 24 13 9 30 -17 19 -22 36 -7 27 5 -4 11 -1 13 5 2 7 18 0 38 -17
24 -19 18 -10 -17 28 -53 57 -60 68 -45 68 5 0 14 -11 20 -25 8 -18 19 -25 39
-25 41 0 58 13 41 31 -7 8 -14 23 -15 34 -3 18 -2 18 9 3 11 -15 13 -14 24 8
11 20 10 32 -8 77 -12 28 -39 69 -60 89 -41 40 -45 48 -24 48 7 0 20 7 27 17
13 15 12 15 -11 3 -17 -9 -25 -10 -28 -1 -2 6 -20 10 -40 10 -22 -1 -29 -3
-17 -6 11 -3 28 -15 38 -27 10 -11 26 -30 35 -41 18 -21 27 -100 13 -109 -5
-3 -14 1 -21 9 -7 8 -20 15 -28 15 -12 0 -13 -3 -5 -11 9 -9 8 -15 0 -24 -15
-15 -37 -8 -37 12 0 10 -6 13 -16 9 -9 -3 -17 -6 -20 -6 -2 0 -1 -6 2 -13 6
-18 -29 -16 -51 3 -14 12 -18 12 -26 -1 -8 -12 -10 -12 -18 0 -5 7 -23 15 -40
17 -38 4 -41 -15 -9 -66 12 -19 22 -39 23 -43 0 -4 7 -12 15 -18 24 -16 -31 1
-57 18 -19 13 -44 51 -25 39 5 -3 9 14 9 37 1 47 6 73 16 83 4 4 7 15 7 24 0
29 39 69 80 81 36 11 39 15 33 38 -3 14 -12 32 -20 39 -15 15 -18 42 -4 42 5
0 11 9 14 20 6 23 -8 27 -17 5 -5 -13 -9 -13 -26 -3 -11 7 -20 17 -20 21 0 5
-10 17 -22 27 -34 27 -15 35 29 13 21 -11 50 -19 66 -18 30 2 33 -4 15 -25 -7
-8 -4 -7 8 3 11 9 32 17 47 17 14 0 29 4 32 10 4 6 12 6 23 -1 13 -8 17 -21
14 -48 -4 -36 -4 -36 13 -13 9 12 22 22 30 22 8 0 19 9 25 20 14 26 55 22 130
-14 30 -14 60 -26 65 -26 12 -1 55 -36 55 -45 0 -3 -5 -3 -12 1 -13 8 -3 -12
20 -39 14 -16 14 -21 -1 -46 -23 -39 -21 -48 3 -26 11 10 33 18 50 17 44 -1
44 11 -1 52 -27 24 -39 42 -35 52 3 9 6 28 6 44 0 20 6 29 22 33 28 8 48 -9
48 -38 0 -50 51 -78 108 -60 18 6 20 10 10 16 -24 16 45 10 76 -6 35 -19 42
-19 27 -1 -11 13 -6 14 28 11 23 -2 41 1 41 6 0 5 4 9 10 9 5 0 7 -7 4 -15 -7
-18 7 -20 24 -3 9 9 12 8 12 -5 0 -9 4 -17 10 -17 5 0 7 -7 4 -15 -4 -8 -2
-15 4 -15 12 0 26 30 23 49 -2 9 3 12 13 8 11 -5 16 0 16 14 0 17 3 18 21 8
16 -8 18 -13 9 -19 -9 -5 -9 -13 -3 -25 9 -15 11 -14 17 10 4 16 2 33 -5 41
-9 10 -9 14 0 14 6 0 14 -7 17 -15 10 -26 21 -16 22 22 1 35 17 57 34 47 5 -3
17 -22 28 -42 14 -26 19 -29 14 -12 -10 40 -43 88 -64 95 -11 4 -20 10 -20 15
0 10 96 -14 114 -29 6 -5 21 -10 31 -10 11 0 36 -4 55 -8 19 -5 46 -7 60 -3
l25 6 3 144 c1 79 -1 147 -6 152 -12 12 -116 -46 -158 -90 -36 -38 -37 -29 0
21 11 15 39 36 61 46 83 37 95 75 102 319 l4 152 -26 0 c-14 0 -25 -6 -25 -12
-1 -23 -30 25 -30 48 0 30 -13 37 -28 16z m-584 -603 c11 -18 11 -23 -5 -34
-14 -11 -16 -18 -7 -32 6 -10 15 -18 20 -18 25 -1 64 -17 64 -25 0 -6 9 -10
20 -10 37 0 21 -17 -21 -23 -42 -6 -93 9 -83 24 3 5 -3 9 -14 9 -11 0 -31 9
-46 21 -23 18 -26 18 -26 4 0 -13 -6 -16 -25 -13 -14 3 -25 2 -25 -1 0 -4 -9
-7 -20 -8 -11 -1 -20 2 -20 8 0 5 5 9 10 9 7 0 7 6 0 20 -8 15 -8 20 2 20 7 0
24 9 38 20 33 26 38 25 33 -4 -3 -16 1 -25 12 -30 20 -7 45 10 45 31 0 10 6
12 20 8 23 -7 28 13 8 33 -7 7 -8 12 -2 12 5 0 15 -9 22 -21z"/>
<path d="M4584 2867 c3 -32 15 -49 29 -40 7 4 7 0 -1 -10 -8 -9 -11 -21 -7
-26 3 -6 -11 -17 -30 -26 -35 -14 -36 -16 -20 -32 17 -16 19 -16 41 10 21 25
24 26 40 10 16 -16 16 -16 10 5 -15 45 22 16 43 -35 8 -20 22 -34 38 -38 34
-8 53 10 29 28 -10 8 -18 26 -18 40 0 28 -12 35 -23 17 -4 -7 -17 0 -31 16
-14 14 -24 27 -22 28 2 2 14 10 28 19 l24 17 -25 0 c-15 0 -38 9 -52 20 -34
27 -56 26 -53 -3z"/>
<path d="M2735 2776 c-17 -13 -39 -25 -50 -27 -28 -6 -28 -54 -1 -54 11 0 21
-6 23 -12 3 -7 26 -23 51 -35 52 -24 136 -32 128 -12 -3 7 10 19 27 27 39 19
91 72 83 85 -6 10 -65 9 -107 -3 -16 -4 -30 -2 -33 4 -12 18 -21 12 -22 -15
-1 -14 -12 -36 -23 -48 -21 -22 -23 -23 -57 -7 -29 13 -33 17 -20 27 9 6 13
14 9 17 -3 4 2 9 11 13 9 3 13 10 10 15 -3 5 -11 7 -17 3 -7 -3 -2 3 11 14 42
38 23 44 -23 8z"/>
<path d="M795 2391 c-11 -5 -22 -7 -25 -6 -3 2 -17 -5 -30 -16 -18 -13 -21
-19 -9 -19 9 0 19 3 23 7 4 4 35 8 70 10 52 3 71 -1 102 -19 31 -18 35 -24 20
-26 -10 -2 -22 2 -27 10 -6 9 -9 4 -9 -15 0 -21 -6 -30 -21 -34 -13 -4 -16 -8
-9 -13 7 -4 -2 -16 -24 -31 -24 -16 -36 -33 -37 -49 -1 -14 -3 -31 -3 -38 -1
-8 -9 -18 -19 -23 -19 -11 -24 -64 -7 -74 17 -10 -8 -45 -32 -45 l-21 0 21
-23 c28 -30 28 -39 0 -35 -15 2 -23 -2 -23 -12 0 -10 8 -14 28 -12 l28 3 -17
-33 c-16 -31 -17 -32 -25 -10 -7 19 -12 21 -36 11 -19 -7 -29 -7 -31 0 -5 14
-32 14 -32 1 0 -6 15 -27 33 -46 17 -20 32 -40 32 -45 0 -4 9 -15 20 -23 11
-8 17 -18 12 -22 -8 -8 -47 29 -47 44 0 5 -7 15 -15 22 -18 15 -19 7 -3 -39
14 -39 45 -74 59 -65 5 3 7 10 4 15 -4 5 0 9 7 10 7 1 27 2 44 4 24 2 30 -1
29 -16 -1 -22 -12 -34 -28 -34 -7 0 -12 -7 -12 -15 0 -9 7 -14 18 -12 19 3 23
-14 5 -21 -8 -3 -6 -6 4 -6 12 -1 16 -7 12 -18 -4 -10 3 -4 13 12 11 17 28 37
39 45 10 8 7 0 -8 -18 -15 -18 -30 -49 -34 -70 -4 -20 -14 -43 -23 -51 -9 -8
-6 -7 9 2 14 9 24 20 22 26 -4 20 25 75 56 106 19 19 29 39 28 55 -2 14 6 39
16 57 18 31 18 32 -7 79 -45 85 -27 153 47 172 24 6 72 19 108 28 36 9 101 20
144 23 77 6 79 7 62 24 -10 10 -16 20 -13 23 7 7 -63 119 -97 157 -30 32 -35
22 -8 -14 19 -26 62 -111 62 -124 0 -15 -51 42 -67 75 -9 19 -20 37 -23 40 -4
3 -12 15 -19 28 -6 12 -18 22 -26 22 -11 0 -12 -6 -4 -29 6 -16 17 -32 25 -35
8 -3 14 -16 14 -30 0 -14 5 -28 10 -31 13 -8 13 -25 0 -25 -5 0 -12 16 -16 36
-5 25 -9 32 -15 22 -5 -7 -9 -8 -9 -2 0 17 -58 74 -75 74 -8 0 -15 -7 -15 -15
0 -8 -4 -15 -10 -15 -5 0 -11 7 -11 15 -1 8 -3 20 -4 25 -1 6 -3 14 -4 20 -2
15 -44 40 -77 44 -16 3 -45 7 -64 10 -19 3 -44 2 -55 -3z m157 -188 c22 -26
33 -47 21 -40 -16 10 -24 -18 -10 -33 10 -10 7 -12 -10 -7 -32 7 -38 -8 -11
-27 l22 -16 -23 0 c-18 0 -22 -4 -18 -20 3 -11 2 -20 -3 -20 -4 0 -7 -6 -6
-12 0 -7 -3 -14 -8 -15 -5 -1 -13 -7 -17 -15 -5 -7 -9 -8 -9 -3 0 6 4 16 9 24
10 15 -6 61 -21 61 -5 0 -1 -11 8 -25 9 -14 12 -25 7 -25 -8 0 -43 52 -43 65
0 3 5 3 10 0 6 -4 10 8 10 29 0 74 55 121 92 79z"/>
<path d="M2025 2290 c-3 -5 -4 -20 0 -33 5 -19 5 -20 -5 -4 -14 22 -33 12 -25
-13 9 -28 -29 -101 -67 -131 -19 -15 -53 -36 -76 -48 -41 -21 -42 -22 -25 -40
10 -10 26 -21 37 -25 18 -6 18 -7 1 -26 -17 -19 -17 -20 6 -28 13 -5 30 -7 37
-5 15 6 15 -2 2 -28 -12 -22 7 -49 34 -49 18 0 33 -25 38 -63 4 -27 18 -50 18
-28 0 8 5 9 19 1 44 -23 101 -7 101 29 0 13 -2 14 -9 2 -12 -19 -82 -20 -103
-2 -22 18 -23 52 -2 111 9 25 18 52 21 60 4 13 5 13 14 0 9 -12 10 -11 5 4 -4
10 -2 24 3 30 22 27 50 86 40 86 -5 0 -8 4 -5 9 3 5 -1 14 -9 21 -19 16 -19
30 -1 30 17 0 15 56 -3 101 -5 15 -7 31 -3 35 4 5 3 6 -2 2 -5 -4 -15 -3 -22
3 -8 7 -14 7 -19 -1z"/>
<path d="M2331 2228 c0 -11 -9 -18 -22 -18 -11 0 -18 -4 -15 -9 3 -5 -2 -23
-10 -41 -10 -19 -19 -28 -23 -21 -9 13 -41 -50 -41 -80 0 -11 -4 -18 -9 -15
-4 3 -5 -12 -1 -34 5 -30 2 -48 -15 -82 -12 -24 -25 -56 -29 -71 -6 -25 -5
-27 13 -18 10 6 22 22 25 36 4 14 10 23 15 21 13 -8 20 29 9 47 -11 21 15 63
45 71 34 8 58 106 26 106 -18 0 -8 29 17 47 20 15 25 25 21 49 -2 16 -5 21 -6
12z"/>
<path d="M1650 2060 c0 -5 -7 -10 -15 -10 -12 0 -13 -4 -3 -25 6 -14 19 -25
29 -25 10 0 20 -4 23 -9 8 -12 -39 -23 -69 -15 -20 5 -24 3 -19 -9 3 -8 2 -17
-3 -20 -19 -11 -54 16 -81 62 -27 49 -29 50 -51 35 -17 -13 -20 -19 -10 -30 6
-8 8 -14 4 -14 -4 0 -2 -6 4 -14 6 -7 9 -21 5 -30 -4 -11 -1 -16 10 -16 9 0
13 -6 10 -13 -3 -8 2 -19 10 -26 8 -7 12 -20 9 -29 -8 -25 -73 -83 -84 -77 -5
4 -9 -12 -9 -34 l0 -41 40 2 c45 1 60 -9 89 -63 22 -41 45 -48 62 -18 10 19 9
25 -5 35 -13 9 -15 17 -8 31 5 10 16 32 24 50 14 27 14 31 2 26 -12 -4 -14 0
-9 20 9 34 -3 54 -19 31 -12 -15 -13 -15 -29 1 -13 12 -15 21 -7 36 6 10 17
19 24 19 7 0 21 9 30 19 14 16 23 18 49 10 22 -6 35 -5 46 5 9 8 27 16 41 18
l25 4 -26 11 c-51 22 -42 55 18 73 l28 8 -28 1 c-15 1 -44 8 -64 16 -42 18
-43 18 -43 5z"/>
<path d="M4660 2041 c-8 -6 -17 -8 -21 -5 -4 2 -12 -3 -19 -11 -17 -20 -54
-20 -46 0 7 18 -9 20 -25 2 -7 -7 -26 -12 -43 -10 -28 3 -29 2 -8 -7 12 -5 22
-15 22 -21 0 -6 9 -9 20 -6 11 3 20 1 20 -4 0 -13 -65 -5 -83 9 -8 7 -17 9
-21 5 -4 -4 -4 1 0 11 7 18 6 18 -19 1 -29 -19 -35 -27 -13 -19 8 3 17 1 20
-5 5 -7 -14 -9 -55 -6 l-63 4 43 -40 42 -40 -3 -69 c-3 -59 0 -71 17 -84 18
-13 20 -13 23 7 2 12 -1 23 -7 25 -21 7 -11 20 11 14 17 -4 20 -2 15 11 -4 12
-1 17 9 17 10 0 14 -6 11 -15 -4 -8 -2 -17 3 -20 6 -4 11 0 11 7 4 40 18 68
34 68 8 0 25 -15 39 -32 17 -22 26 -27 26 -17 0 9 -9 24 -19 33 -18 17 -18 18
21 57 22 21 49 42 61 45 30 8 85 74 62 74 -9 0 -24 -4 -34 -9 -13 -7 -17 -5
-17 9 0 10 4 17 7 14 4 -2 10 0 14 6 8 12 -15 13 -35 1z"/>
<path d="M4839 1990 c-6 -16 -14 -30 -18 -30 -4 0 -15 -14 -24 -30 -10 -17
-31 -37 -47 -45 -16 -8 -27 -21 -24 -28 10 -27 -120 -139 -140 -120 -3 4 -6
19 -6 35 0 18 -4 27 -11 23 -6 -4 -8 -26 -5 -55 6 -57 -16 -87 -58 -76 -16 4
-26 1 -30 -9 -6 -17 -36 -21 -36 -5 0 6 -5 10 -11 10 -6 0 -9 -7 -5 -15 6 -17
-11 -20 -33 -6 -10 7 -2 14 33 29 25 12 46 27 46 34 0 10 -2 10 -9 -1 -5 -8
-39 -21 -76 -30 -67 -17 -88 -33 -48 -39 12 -2 24 -10 27 -18 8 -20 -33 -84
-54 -84 -13 0 -16 -6 -12 -25 5 -28 -25 -61 -64 -71 -15 -4 -21 -11 -17 -21 5
-12 7 -12 14 -1 7 10 9 10 9 1 0 -7 5 -13 11 -13 5 0 7 4 4 10 -3 6 1 7 9 4 9
-3 30 3 48 14 18 11 51 24 73 27 22 4 45 11 50 15 19 14 69 18 85 7 29 -17 50
-1 50 37 0 24 5 36 18 40 12 4 17 17 18 45 2 35 -2 41 -27 51 -16 7 -26 17
-22 23 5 8 8 7 11 -1 5 -16 23 -15 21 1 -4 29 2 38 24 36 12 -1 34 3 48 9 32
13 86 66 94 92 4 11 10 20 14 20 4 0 8 13 8 29 0 18 9 38 25 52 14 13 30 34
37 46 6 12 17 20 25 17 18 -7 30 27 14 38 -22 13 -29 9 -39 -22z m-284 -350
c3 -5 -1 -10 -9 -10 -9 0 -16 -4 -16 -10 0 -11 32 -1 41 13 4 5 9 5 13 -1 3
-5 -6 -22 -19 -38 -14 -16 -25 -34 -25 -40 0 -14 -44 -34 -75 -34 -13 0 -30
-6 -37 -13 -7 -8 -19 -12 -26 -9 -6 2 -12 -3 -12 -11 0 -13 -49 -31 -59 -21
-3 2 5 14 16 27 11 12 23 33 26 47 8 29 69 72 91 64 12 -5 13 -10 5 -26 -6
-11 -8 -23 -4 -26 3 -3 8 4 12 16 3 12 13 22 22 22 12 0 13 2 3 9 -11 7 -11 9
2 14 9 4 16 10 15 14 -4 24 23 34 36 13z"/>
<path d="M4243 1885 c9 -21 -11 -29 -29 -11 -20 21 -26 20 -47 -4 -9 -11 -23
-20 -31 -20 -8 0 -16 -6 -19 -14 -7 -18 18 -42 28 -26 3 5 11 10 17 10 7 0 7
-4 1 -12 -6 -7 -13 -22 -17 -32 -5 -15 -4 -17 7 -8 8 7 17 9 21 5 3 -4 13 3
22 15 16 23 44 30 44 11 0 -7 10 -9 25 -7 13 3 26 1 27 -4 2 -4 16 -11 31 -14
16 -2 26 -1 23 5 -7 11 22 24 35 15 15 -9 10 13 -7 27 -9 8 -13 21 -10 35 8
30 -18 44 -79 44 -37 0 -46 -3 -42 -15z"/>
<path d="M3271 1808 c-20 -7 -22 -13 -17 -43 6 -29 4 -34 -9 -29 -13 5 -15 1
-9 -22 10 -45 10 -49 -4 -46 -9 2 -11 -4 -7 -18 7 -23 -9 -48 -40 -60 -19 -8
-19 -9 3 -9 12 -1 22 4 22 9 0 6 7 10 15 10 8 0 28 9 46 19 l31 19 -29 10 -28
10 25 2 c42 4 44 4 65 25 35 35 44 67 27 92 -8 13 -18 20 -23 17 -5 -3 -9 -1
-9 4 0 14 -33 20 -59 10z"/>
<path d="M2212 1788 c-7 -7 -12 -17 -12 -23 0 -6 -16 -9 -41 -7 -37 4 -44 0
-81 -37 -39 -41 -39 -42 -11 -35 15 4 31 12 35 18 5 7 8 5 8 -5 0 -9 -19 -22
-49 -33 -27 -9 -52 -24 -55 -32 -3 -8 -16 -18 -29 -23 -19 -8 -25 -19 -31 -58
-6 -52 5 -116 18 -95 4 7 18 12 31 12 18 0 31 11 50 45 15 24 23 50 19 56 -5
8 -3 10 7 4 8 -5 11 -5 7 0 -4 4 -2 15 5 23 11 13 9 14 -14 1 -39 -21 -102
-96 -87 -102 8 -3 6 -6 -4 -6 -22 -1 -23 12 -3 29 8 7 15 19 15 26 0 8 6 14
13 14 8 0 7 4 -3 10 -13 9 -13 11 0 20 8 5 11 10 6 10 -17 0 49 50 74 57 14 3
30 10 36 15 8 5 14 3 18 -7 3 -8 18 -15 33 -16 27 0 27 0 5 -10 -14 -5 -20
-13 -16 -20 4 -7 3 -9 -4 -6 -5 4 -33 -22 -61 -58 -28 -36 -47 -65 -41 -65 15
0 70 61 64 71 -5 8 14 22 34 25 6 1 12 -1 12 -4 -1 -15 -77 -90 -98 -96 -34
-11 -26 -22 16 -24 20 -1 53 -3 72 -6 19 -2 44 1 55 7 11 6 25 10 31 9 7 -1
15 5 18 14 4 11 10 13 19 7 6 -6 23 -7 37 -3 l25 7 -27 8 c-16 4 -28 10 -28
14 0 9 51 31 71 31 24 0 34 19 15 26 -15 6 -11 34 6 34 5 0 7 -4 4 -9 -7 -11
20 -34 32 -27 5 3 12 15 15 26 4 17 3 19 -9 9 -11 -9 -15 -8 -20 5 -3 9 -15
16 -25 16 -10 0 -19 5 -19 10 0 17 -18 11 -24 -8 -3 -9 -26 -40 -52 -67 -42
-46 -52 -46 -15 0 13 16 13 17 1 9 -8 -6 -23 -14 -34 -18 -14 -5 -17 -2 -12 9
6 17 -4 20 -22 5 -30 -25 8 11 48 46 25 21 39 32 33 23 -7 -9 -9 -20 -5 -24 4
-5 3 -6 -3 -3 -5 3 -18 -2 -28 -12 -17 -17 -17 -18 14 -15 34 2 61 28 53 50
-12 29 81 36 104 7 11 -14 13 -14 26 4 36 47 22 62 -40 43 -17 -5 -40 -12 -50
-14 -10 -2 -29 -7 -40 -10 -12 -4 -25 -2 -28 4 -5 7 3 11 19 11 14 0 24 4 21
9 -3 4 6 7 19 5 14 -1 27 2 31 7 3 5 0 9 -7 9 -8 0 -7 5 2 17 12 15 12 16 -5
9 -19 -7 -19 -6 -1 14 24 27 12 39 -45 43 -33 3 -52 -1 -69 -15 -13 -10 -27
-16 -30 -12 -3 3 3 12 13 20 11 8 15 14 10 14 -6 0 -15 -5 -22 -12z"/>
<path d="M2981 1621 c-12 -8 -13 -15 -3 -38 11 -25 11 -26 -2 -10 -11 14 -15
15 -20 5 -3 -7 -3 -3 0 10 4 15 1 22 -10 22 -8 0 -13 -6 -11 -12 3 -7 -10 -21
-27 -31 l-33 -19 19 21 c35 38 7 22 -38 -23 -38 -37 -44 -49 -40 -72 8 -43 22
-56 47 -42 16 8 22 8 25 -1 9 -27 22 -7 22 34 0 47 5 53 50 57 17 2 25 -2 25
-12 0 -8 -5 -14 -10 -13 -6 1 -11 -7 -11 -17 0 -15 4 -16 18 -9 29 16 23 2
-20 -46 -7 -8 -19 -12 -27 -9 -7 3 -19 -4 -25 -17 -11 -19 -10 -21 3 -16 11 4
18 -1 23 -15 6 -20 7 -21 19 -4 10 13 14 14 18 4 4 -10 10 -8 21 6 12 15 16
16 16 5 0 -12 2 -12 11 1 9 13 10 13 6 0 -2 -8 -14 -20 -28 -27 -14 -7 -24
-21 -24 -35 0 -16 -6 -23 -17 -22 -10 1 -15 -3 -12 -8 3 -5 12 -7 19 -4 19 7
36 -16 25 -34 -15 -24 -12 -32 9 -21 14 8 23 6 37 -12 16 -19 17 -20 1 -8 -16
13 -30 10 -33 -7 -7 -31 -18 -48 -35 -49 -22 -2 -24 8 -6 26 10 10 9 11 -5 6
-9 -4 -19 -13 -22 -20 -4 -11 -12 -11 -47 1 -23 8 -44 12 -47 9 -3 -3 0 -5 6
-5 7 0 12 -7 12 -15 0 -8 3 -14 8 -14 28 5 40 -3 35 -21 -3 -11 -9 -20 -13
-20 -4 0 -10 -10 -13 -21 l-6 -21 21 21 c22 24 39 21 18 -4 -9 -11 -9 -15 -1
-15 7 0 9 -4 6 -10 -3 -5 -1 -10 4 -10 6 0 11 -4 11 -10 0 -14 -27 -12 -33 3
-3 8 -9 7 -18 -5 -9 -12 -22 -16 -37 -12 -16 5 -20 10 -13 18 6 7 6 17 1 26
-8 12 -10 11 -10 -6 0 -27 -35 -59 -66 -59 -13 -1 -24 3 -24 7 0 4 -7 8 -15 8
-11 0 -14 -7 -9 -24 4 -16 1 -25 -10 -29 -17 -7 -22 8 -7 17 5 3 7 15 4 26 -3
11 -1 20 5 20 6 0 23 5 39 11 25 9 26 12 10 20 -13 8 -25 4 -50 -14 -17 -14
-37 -22 -44 -20 -6 2 -22 -6 -34 -18 -24 -24 -24 -24 29 -2 6 3 12 1 13 -3 0
-5 2 -19 5 -31 3 -16 -1 -23 -11 -23 -8 0 -24 -9 -35 -20 -23 -23 -38 -27 -20
-5 20 25 7 26 -35 4 -28 -15 -40 -17 -45 -9 -6 9 -9 9 -14 1 -4 -6 -11 -9 -16
-6 -4 3 -10 -1 -13 -9 -3 -8 1 -17 9 -20 8 -3 14 -14 14 -25 0 -11 5 -23 10
-26 6 -3 10 -11 10 -16 0 -20 -38 11 -44 36 -4 14 -11 25 -16 25 -5 0 -2 -16
6 -35 13 -32 13 -36 -6 -47 -11 -7 -20 -18 -20 -25 0 -20 28 -15 40 7 6 10 17
17 24 14 8 -3 17 -1 20 5 4 6 13 8 21 5 8 -4 13 -10 10 -15 -3 -4 -12 -6 -20
-2 -9 3 -15 -1 -15 -10 0 -9 9 -19 20 -22 21 -7 27 -30 10 -40 -5 -3 -10 -17
-10 -30 0 -13 -8 -30 -18 -37 -10 -7 -21 -21 -25 -30 -4 -11 -17 -18 -33 -18
-16 0 -24 5 -21 13 2 6 9 11 15 10 5 -1 13 4 16 13 3 8 2 12 -4 9 -6 -3 -10
-1 -10 5 0 7 -7 10 -15 6 -8 -3 -15 -1 -15 4 0 14 -16 12 -32 -4 -8 -7 -23
-16 -35 -20 -12 -4 -27 -13 -33 -21 -21 -26 -39 -16 -50 27 -7 23 -15 37 -18
32 -12 -15 -62 -11 -62 5 0 10 -7 8 -24 -8 -14 -13 -29 -20 -35 -16 -6 3 -11
-1 -11 -9 0 -9 -8 -16 -19 -16 -10 0 -21 -7 -25 -15 -6 -17 5 -20 20 -5 11 11
74 2 74 -10 0 -4 -7 -10 -15 -14 -20 -7 -19 -18 5 -46 11 -13 20 -28 20 -34 0
-21 60 -39 95 -29 24 8 41 7 65 -3 39 -17 41 -17 37 -2 -3 16 89 41 128 34 18
-4 38 -13 45 -21 16 -19 40 -19 124 2 54 14 70 15 73 6 7 -19 55 -16 83 4 19
14 48 18 120 20 52 1 113 6 135 11 65 16 125 21 125 10 0 -5 12 -1 28 10 37
27 102 53 114 46 5 -3 15 0 23 6 12 10 15 10 15 0 0 -21 44 -49 76 -50 20 0
41 9 58 25 15 14 33 22 42 18 8 -3 25 3 37 14 12 11 37 26 55 33 20 8 38 25
48 45 8 18 23 40 32 48 73 66 82 77 82 104 0 29 23 73 57 108 11 12 22 27 25
35 3 11 21 15 66 15 51 0 61 -3 56 -15 -11 -30 -16 -86 -6 -71 6 8 7 21 4 30
-5 14 -3 14 11 2 15 -12 17 -10 17 21 0 19 6 40 13 47 10 10 9 15 -5 25 -11 8
-15 20 -11 34 6 24 18 28 29 10 5 -8 11 -6 19 6 11 15 13 15 19 1 4 -10 -3
-19 -19 -27 -30 -13 -32 -24 -7 -37 10 -5 25 -28 32 -51 11 -33 16 -39 24 -28
6 7 17 13 24 12 6 -1 17 -2 22 -3 6 0 10 -6 10 -12 0 -8 -4 -8 -14 0 -11 9
-13 6 -13 -14 0 -19 5 -25 21 -25 12 0 27 -5 34 -12 9 -9 12 -9 12 0 0 9 4 10
19 0 10 -6 17 -17 14 -25 -6 -16 36 -33 57 -23 8 4 34 11 58 15 24 4 42 12 42
20 0 7 10 15 23 19 12 3 28 19 36 37 8 18 29 49 46 68 18 20 36 46 40 59 4 13
9 21 13 18 3 -3 10 4 16 15 6 12 27 34 45 48 19 14 31 19 27 11 -7 -12 -6 -12
8 1 18 17 21 38 17 109 -3 44 -3 45 -13 15 -26 -80 -62 -135 -89 -135 -11 0
-19 7 -19 18 -1 9 -7 31 -14 47 -13 29 -13 29 -8 -17 5 -56 -4 -98 -21 -98
-17 0 -58 -46 -49 -55 4 -3 -1 -3 -11 0 -14 6 -15 16 -11 61 4 34 3 54 -4 54
-6 0 -13 -6 -16 -12 -3 -7 -5 -4 -4 7 3 24 -33 80 -41 66 -4 -5 -22 -20 -40
-33 -19 -13 -36 -30 -37 -38 -15 -70 -22 -86 -44 -97 -30 -15 -42 -6 -16 13
11 7 16 17 11 21 -4 5 -10 2 -12 -5 -3 -6 -10 -9 -15 -6 -6 4 -17 -1 -25 -11
-12 -18 -13 -18 -13 4 0 12 -4 19 -10 16 -5 -3 -10 3 -10 15 0 12 -4 18 -10
15 -18 -11 -10 11 10 30 21 19 28 41 10 30 -15 -9 -35 16 -36 47 -1 19 2 25
12 21 8 -3 14 -11 14 -19 0 -8 6 -14 14 -14 8 0 23 -3 33 -6 15 -5 15 -4 3 5
-13 9 -12 11 6 11 11 0 29 10 40 21 10 12 30 26 44 32 23 11 21 12 -25 15 -27
2 -66 -1 -86 -7 -27 -8 -45 -8 -73 2 -21 7 -36 15 -34 17 7 11 -45 70 -79 90
-24 14 -32 16 -24 6 18 -21 2 -20 -22 2 -19 16 -20 16 -14 -1 4 -11 3 -16 -3
-12 -6 3 -10 12 -10 18 0 7 -10 18 -22 26 -21 13 -22 13 -8 -3 8 -10 15 -23
17 -30 16 -66 16 -64 -11 -63 -14 1 -24 7 -22 12 2 6 0 17 -5 26 -4 8 -4 41 0
72 4 31 4 54 0 51 -11 -6 -40 26 -34 37 4 5 12 9 18 9 7 0 6 -4 -3 -10 -13 -8
-12 -10 5 -11 11 -1 25 -2 30 -4 6 -1 18 -3 28 -3 10 -1 15 -7 12 -13 -4 -6
-13 -8 -20 -5 -20 7 -27 -23 -10 -40 13 -14 15 -13 15 4 0 11 9 26 21 33 20
14 18 16 -43 49 -40 23 -72 49 -87 73 -13 20 -26 35 -29 32 -4 -4 4 -18 43
-72 7 -10 6 -16 -5 -23 -8 -5 -10 -10 -3 -10 6 0 9 -9 5 -22 -3 -12 -1 -19 4
-15 17 10 13 -61 -3 -75 -12 -10 -18 -9 -29 7 -19 26 -30 11 -15 -22 10 -26
10 -27 -4 -9 -19 24 -19 41 -2 58 15 15 17 102 3 105 -5 1 -13 7 -17 15 -7 10
-9 10 -9 0 0 -7 -4 -11 -9 -7 -6 3 -14 -3 -20 -12 -10 -17 -10 -17 -11 1 0 18
-2 17 -27 -6 -16 -14 -47 -32 -70 -38 -37 -12 -44 -11 -72 9 -17 12 -31 18
-31 12 0 -5 7 -14 16 -19 12 -7 15 -19 12 -40 -3 -21 0 -33 10 -37 11 -4 12 2
7 26 -5 22 -4 29 4 25 6 -4 11 -18 11 -31 0 -13 5 -27 10 -30 6 -3 10 -14 10
-24 0 -10 7 -32 15 -47 20 -38 19 -88 -2 -105 -15 -13 -15 -10 -9 34 4 26 4
57 0 69 -6 19 -8 20 -18 6 -11 -15 -49 -18 -62 -6 -3 4 -13 4 -21 1 -13 -5
-13 -3 -3 16 11 21 12 22 25 5 10 -15 16 -16 27 -6 8 6 18 9 21 5 18 -18 4 16
-15 37 -21 22 -22 22 -29 4 -6 -17 -8 -16 -14 9 -4 15 -11 27 -16 27 -6 0 -5
-8 1 -20 8 -15 6 -21 -11 -30 -24 -14 -37 -6 -21 12 8 10 6 20 -8 38 -11 14
-20 20 -20 13 0 -6 5 -15 10 -18 22 -13 9 -26 -19 -20 -17 3 -39 1 -50 -5 -31
-16 -26 2 11 39 30 31 40 33 81 16 12 -5 17 -2 17 9 0 9 -6 16 -12 16 -10 0
-9 3 1 9 7 5 11 13 7 19 -3 5 4 13 17 16 l22 6 -24 14 c-13 7 -31 11 -40 9 -9
-2 -25 3 -36 10 -16 13 -22 13 -41 1 -35 -23 -82 -34 -88 -21 -3 9 -7 9 -13 1
-9 -12 -47 -34 -60 -34 -4 0 -1 5 7 10 10 6 12 12 4 20 -7 7 -22 5 -50 -7 -21
-9 -42 -16 -46 -15 -4 1 -4 -6 -1 -15 4 -11 3 -14 -5 -9 -7 4 -12 2 -12 -3 0
-6 -3 -10 -7 -9 -14 4 -53 -23 -53 -36 0 -8 -9 -16 -20 -19 -23 -6 -26 3 -8
21 9 9 8 12 -6 12 -12 0 -16 5 -12 15 3 10 -1 15 -14 15 -10 0 -21 4 -24 9 -4
5 2 7 13 4 16 -4 18 0 15 26 -3 25 2 35 26 53 17 12 30 26 30 32 0 5 -13 -3
-29 -18 -23 -22 -29 -25 -34 -12 -4 9 -14 16 -24 16 -15 0 -16 2 -3 10 8 5 11
10 5 10 -5 0 -16 -4 -24 -9z m244 -311 c-2 -22 1 -42 6 -45 5 -4 9 -11 9 -16
0 -6 -7 -3 -16 5 -20 20 -30 21 -14 1 14 -16 0 -21 -15 -5 -6 6 -10 0 -10 -15
0 -22 4 -25 38 -25 21 0 37 -5 37 -11 0 -8 5 -7 15 1 13 11 20 11 40 0 13 -7
21 -18 18 -26 -4 -10 0 -12 11 -8 9 3 14 9 12 13 -3 4 9 16 25 26 16 11 29 29
29 40 0 11 9 26 20 33 12 7 18 17 15 21 -3 5 3 8 12 6 10 -1 22 0 28 3 21 13
64 11 75 -3 10 -13 9 -15 -10 -15 -16 0 -21 -4 -16 -16 4 -12 2 -15 -9 -10 -9
3 -15 0 -15 -9 0 -14 -8 -17 -27 -13 -5 0 -7 11 -5 22 2 19 2 19 -8 3 -8 -13
-7 -22 4 -39 10 -14 12 -27 6 -38 -5 -10 -7 -20 -4 -23 3 -3 -2 -4 -12 -3 -9
0 -19 -5 -22 -13 -3 -9 0 -11 8 -6 8 5 11 4 6 -3 -9 -14 2 -20 51 -26 35 -4
42 -2 52 20 11 25 26 31 36 14 10 -15 35 -12 35 5 0 8 4 15 10 15 5 0 22 19
37 43 30 46 43 58 54 51 4 -2 10 0 14 6 3 5 11 10 17 10 7 0 7 -4 -1 -13 -8
-10 -7 -17 1 -25 15 -15 2 -46 -17 -38 -11 4 -15 -2 -15 -20 0 -19 -4 -25 -15
-20 -8 3 -15 2 -15 -3 0 -5 -9 -11 -21 -14 -15 -4 -19 -11 -14 -26 4 -12 0
-23 -10 -28 -14 -8 -14 -13 0 -47 13 -30 20 -36 35 -31 16 5 20 2 20 -17 0
-13 -4 -18 -8 -13 -4 6 -11 11 -17 11 -5 1 -20 5 -32 9 -19 5 -22 3 -16 -11 5
-13 3 -16 -10 -11 -9 3 -17 3 -17 -1 1 -10 26 -42 34 -42 12 0 46 -40 46 -55
0 -8 5 -24 11 -34 10 -15 7 -23 -16 -49 -33 -38 -43 -40 -39 -9 4 33 4 33 13
18 7 -11 11 -10 19 6 7 12 7 25 1 34 -7 11 -9 11 -9 -3 0 -10 -4 -18 -9 -18
-11 0 -26 59 -17 67 3 3 1 14 -5 25 -11 20 -11 20 -31 -2 -26 -28 -36 -18 -14
15 9 14 12 25 6 25 -6 0 -14 -8 -17 -17 -6 -15 -7 -15 -14 3 -7 17 -8 17 -8 2
-1 -10 -5 -18 -10 -18 -5 0 -11 -6 -14 -12 -2 -7 -2 -3 0 10 3 21 2 22 -29 9
-18 -7 -37 -23 -43 -35 -6 -13 -16 -20 -23 -17 -8 3 -16 -3 -19 -15 -3 -11
-11 -20 -18 -20 -6 0 -20 -15 -30 -33 -24 -46 -125 -88 -125 -52 0 9 6 12 15
9 10 -4 15 0 15 10 0 9 -8 20 -17 23 -10 4 -22 13 -26 20 -14 24 -35 -9 -32
-50 2 -20 -1 -39 -6 -43 -9 -5 -13 15 -10 52 1 12 -5 27 -14 34 -22 18 -18 32
7 25 17 -6 20 -4 14 10 -4 11 2 23 19 37 18 14 24 26 21 44 -4 19 0 24 15 24
23 0 24 -17 4 -44 -8 -11 -15 -24 -15 -30 0 -5 11 5 25 24 l25 34 -22 22 c-18
16 -26 19 -38 11 -8 -6 -12 -7 -8 -3 10 11 -11 38 -23 30 -5 -3 -2 -16 7 -28
9 -14 12 -34 9 -47 -7 -27 -55 -68 -55 -47 0 9 -3 9 -12 0 -7 -7 -22 -12 -35
-12 -13 0 -22 -5 -21 -12 2 -6 -6 -13 -17 -15 -53 -10 -65 -14 -65 -28 0 -13
-36 -45 -52 -45 -5 0 -8 7 -8 15 0 8 7 15 15 15 8 0 15 5 15 10 0 7 -6 7 -19
0 -30 -16 -36 -12 -16 10 10 11 24 20 31 20 8 0 28 9 46 20 18 11 39 20 46 20
7 0 21 7 29 16 9 8 19 12 22 7 12 -16 50 -10 48 8 -1 10 -7 15 -16 11 -11 -4
-13 -1 -8 13 7 16 6 17 -17 1 -14 -9 -35 -16 -47 -16 l-22 0 22 24 c13 14 20
29 16 35 -10 17 -26 13 -23 -6 2 -11 -2 -17 -11 -15 -8 2 -18 -3 -22 -10 -6
-9 -9 -6 -9 9 0 15 13 31 40 49 23 15 39 33 36 39 -2 6 3 12 11 12 9 0 13 -7
10 -19 -4 -15 -2 -17 7 -9 7 6 15 9 17 7 2 -2 13 6 24 17 11 11 14 17 8 13 -7
-4 -13 -3 -13 3 0 5 9 13 20 16 23 7 26 28 6 44 -10 8 -16 9 -21 1 -3 -6 -10
-8 -15 -5 -5 3 -11 1 -15 -5 -3 -5 -2 -10 4 -10 15 0 2 -27 -16 -34 -14 -6
-14 -4 -2 10 11 14 11 18 1 21 -6 3 -10 9 -6 14 3 5 0 9 -5 9 -6 0 -11 -4 -11
-10 0 -5 -4 -10 -10 -10 -6 0 -5 10 2 25 9 21 8 28 -7 45 -16 18 -16 20 -2 26
9 3 19 15 23 26 3 11 8 17 11 14 13 -12 65 31 80 66 9 21 18 38 19 38 2 0 1
-18 -1 -40z"/>
<path d="M4755 1449 c5 -16 3 -20 -12 -17 -12 2 -17 -2 -16 -12 2 -10 -5 -16
-17 -16 -23 0 -25 7 -7 25 10 11 8 11 -9 1 -15 -9 -26 -10 -39 -2 -15 8 -22 6
-31 -6 -12 -17 -93 -23 -131 -9 -18 6 -24 3 -36 -19 -12 -22 -15 -24 -20 -10
-5 12 -3 15 6 10 6 -4 9 -4 5 1 -4 4 -3 14 4 22 10 12 7 12 -18 2 -42 -18 -52
-29 -26 -29 26 0 28 -14 5 -32 -25 -18 -29 -49 -6 -45 10 1 23 5 28 9 6 3 25
9 43 13 26 5 32 10 27 26 -5 15 -1 19 19 19 14 0 26 -4 26 -10 0 -5 -5 -10
-11 -10 -8 0 -7 -5 1 -15 7 -9 19 -14 26 -11 7 3 14 0 16 -6 3 -7 30 -13 61
-15 32 -1 55 2 52 6 -3 5 3 7 13 4 10 -2 26 -18 36 -34 21 -36 30 -36 73 -3
36 27 44 49 14 39 -12 -3 -21 0 -25 10 -3 8 0 15 6 15 6 0 1 11 -11 24 -28 30
-33 57 -12 73 9 7 12 13 6 13 -5 1 -18 3 -28 5 -14 3 -16 -1 -12 -16z"/>
<path d="M923 1433 c-15 -5 -17 -49 -4 -58 5 -3 12 -1 16 5 8 14 57 1 72 -19
7 -9 13 -12 13 -7 0 6 -10 20 -22 33 -21 22 -21 24 -3 17 11 -5 31 -14 45 -21
14 -7 31 -13 38 -13 11 0 16 -18 13 -50 -2 -12 0 -12 7 -1 8 10 11 11 17 1 5
-8 1 -18 -10 -26 -26 -19 -13 -27 18 -13 21 9 30 9 42 -1 19 -16 19 -40 0 -40
-8 0 -15 -7 -15 -15 0 -8 -5 -15 -11 -15 -5 0 -7 6 -4 13 4 6 0 3 -9 -7 -9
-11 -30 -20 -53 -21 -65 -4 -96 -27 -53 -38 28 -7 35 -4 33 13 -2 9 0 10 3 3
4 -10 11 -10 32 1 26 13 61 23 110 32 12 3 22 -1 22 -7 0 -8 4 -8 14 1 11 8
20 9 33 1 11 -6 13 -11 5 -11 -7 0 -10 -5 -6 -11 4 -7 25 -9 58 -5 47 5 52 4
63 -19 6 -15 7 -25 1 -25 -5 0 -7 -4 -4 -9 7 -11 46 -2 46 10 0 5 -4 9 -10 9
-5 0 -10 9 -10 19 0 10 -6 21 -13 24 -26 10 -77 99 -77 135 0 34 0 34 -25 18
-27 -18 -39 -21 -31 -7 3 5 -16 12 -42 16 -26 4 -52 11 -58 16 -6 5 -23 10
-38 11 -14 1 -26 6 -26 10 0 4 -8 8 -19 8 -10 0 -30 9 -45 21 -17 13 -36 19
-52 16 -13 -2 -27 0 -30 4 -6 10 -12 10 -31 2z"/>
<path d="M1765 1271 c-3 -6 -1 -11 5 -11 6 0 4 -10 -6 -25 -9 -14 -20 -22 -25
-19 -5 3 -9 1 -9 -5 0 -5 -17 -15 -37 -22 -21 -6 -42 -18 -46 -25 -4 -8 -14
-14 -22 -14 -8 0 -23 -10 -35 -22 -11 -12 -20 -18 -20 -12 0 5 -4 4 -8 -3 -7
-11 -65 -5 -104 12 -10 4 -18 3 -18 -1 1 -20 19 -36 44 -37 28 -2 34 -23 16
-57 -9 -16 -7 -18 14 -14 21 3 23 1 19 -17 -4 -16 -2 -20 8 -17 8 3 26 2 41
-3 21 -6 26 -4 21 7 -5 14 7 18 36 14 8 -1 12 4 8 13 -10 26 18 26 41 0 17
-19 18 -25 7 -29 -7 -3 -16 -12 -19 -20 -10 -26 9 -14 32 19 18 27 22 47 22
105 0 59 4 76 20 92 11 11 27 20 35 20 9 0 15 9 15 23 -1 28 -25 62 -35 48z"/>
<path d="M1613 768 c-17 -18 -29 -38 -26 -44 2 -6 -12 -21 -32 -32 -38 -23
-41 -22 -24 11 6 12 -2 7 -19 -13 -18 -20 -31 -29 -32 -20 0 10 -3 11 -11 3
-12 -12 -3 -37 11 -28 4 3 6 -4 3 -14 -4 -16 -1 -19 16 -14 16 4 21 1 21 -16
0 -11 5 -21 10 -21 6 0 10 7 10 15 0 8 7 15 15 15 9 0 18 6 21 14 3 8 23 26
44 40 29 19 37 30 33 45 -4 15 2 24 21 32 29 14 35 31 9 27 -10 -2 -18 3 -18
11 0 26 -20 22 -52 -11z"/>
</g>
</svg>
