<?xml version="1.0" standalone="no"?>
<!DOCTYPE svg PUBLIC "-//W3C//DTD SVG 20010904//EN"
 "http://www.w3.org/TR/2001/REC-SVG-20010904/DTD/svg10.dtd">
<svg version="1.0" xmlns="http://www.w3.org/2000/svg"
 width="670.000000pt" height="686.000000pt" viewBox="0 0 670.000000 686.000000"
 preserveAspectRatio="xMidYMid meet">
<metadata>
Created by potrace 1.16, written by Peter Selinger 2001-2019
</metadata>
<g transform="translate(0.000000,686.000000) scale(0.100000,-0.100000)"
fill="#000000" stroke="none">
<path d="M3460 6799 c-195 -17 -534 -77 -725 -129 -104 -28 -279 -85 -380
-123 -286 -108 -331 -128 -560 -252 -365 -198 -589 -359 -874 -629 -151 -144
-341 -363 -341 -394 0 -33 149 -433 174 -467 11 -16 17 -17 29 -7 19 16 68 -2
138 -51 45 -31 46 -32 42 -77 -6 -61 -11 -73 -27 -67 -9 4 -16 -3 -19 -21 -2
-15 -7 -34 -11 -42 -3 -9 1 -24 10 -35 15 -19 15 -19 10 5 -4 21 -3 22 7 10 7
-9 19 -14 28 -12 9 1 28 -11 42 -27 13 -16 28 -27 32 -23 3 4 2 -6 -4 -21 -6
-15 -7 -35 -4 -44 6 -16 5 -16 -10 -4 -10 8 -20 11 -23 8 -19 -18 266 -315
416 -433 184 -145 425 -372 503 -474 14 -19 29 -31 33 -28 11 12 42 158 33
158 -5 0 -9 -7 -9 -16 0 -8 -4 -13 -9 -10 -5 3 -7 15 -4 26 3 12 0 20 -7 20
-7 0 -10 7 -6 15 6 16 -46 55 -74 55 -8 0 -28 7 -44 15 -15 8 -41 15 -55 15
-38 0 -44 10 -24 33 17 20 17 20 -1 13 -13 -4 -27 1 -43 15 -13 13 -23 17 -23
10 0 -7 -5 -9 -12 -5 -8 5 -9 2 -5 -9 3 -10 3 -17 -2 -17 -13 0 -41 35 -41 51
0 11 2 12 9 1 6 -10 10 -9 14 7 8 30 -3 63 -19 57 -7 -3 -16 0 -20 6 -9 14 23
38 40 32 13 -5 48 39 52 65 5 27 58 43 66 20 5 -16 34 0 46 26 10 20 8 25 -9
30 -13 4 -27 1 -38 -9 -22 -20 -51 -20 -76 -2 -11 8 -25 12 -32 9 -9 -4 -13 6
-13 31 0 20 5 36 10 36 6 0 10 9 10 19 0 11 5 23 10 26 13 8 13 62 0 70 -5 3
-7 12 -4 20 3 7 1 22 -4 31 -7 12 -5 28 4 51 13 31 13 33 -5 33 -11 0 -23 -5
-26 -10 -5 -8 -11 -7 -21 1 -18 15 -18 29 0 29 9 0 12 8 9 24 -4 17 2 28 19
40 19 14 20 18 9 26 -9 5 -23 4 -35 -3 -30 -16 -89 -15 -103 3 -8 11 -8 21 4
43 13 27 13 29 -6 34 -11 3 -23 14 -26 24 -4 11 -16 28 -27 38 -16 16 -18 23
-8 41 11 21 13 21 31 5 18 -17 20 -16 54 14 19 17 48 34 63 37 31 8 72 42 72
60 0 23 -37 25 -71 4 -55 -33 -113 -60 -131 -60 -11 0 -18 10 -20 28 -3 24 -7
27 -35 26 -18 -1 -33 1 -33 3 0 12 49 72 92 115 68 67 65 78 -25 78 -66 0 -77
3 -124 35 -59 40 -76 64 -71 103 4 35 25 38 83 12 57 -26 74 -23 172 31 52 29
73 46 73 60 0 10 5 19 10 19 14 0 70 58 70 71 0 12 -39 5 -80 -14 -18 -9 -25
-20 -25 -42 -1 -28 -4 -31 -65 -47 -63 -16 -66 -16 -85 2 -12 11 -32 21 -45
22 -30 4 -40 15 -40 45 0 20 -2 21 -25 11 -33 -15 -40 -6 -26 33 6 18 11 47
11 66 0 37 21 53 45 33 18 -15 52 -5 60 18 5 17 69 52 94 52 9 0 12 10 9 31
-4 26 0 34 26 50 38 23 108 25 126 4 14 -17 47 -19 83 -6 21 8 25 17 31 82 7
81 19 100 79 130 30 16 36 24 32 42 -6 24 43 116 95 178 28 34 28 34 121 36
62 1 104 -3 127 -13 19 -8 41 -14 49 -14 8 0 47 -30 86 -66 98 -90 137 -103
137 -48 0 35 26 93 45 100 26 10 88 -13 135 -50 27 -21 60 -37 87 -41 24 -3
47 -13 53 -23 8 -15 9 -15 10 4 0 27 16 40 57 46 21 3 34 0 37 -9 3 -7 12 -13
20 -13 11 0 13 9 9 38 -4 27 0 43 14 58 28 31 123 82 215 113 46 16 130 48
188 70 108 43 259 69 318 55 90 -21 182 -91 182 -139 0 -13 5 -36 12 -50 9
-21 17 -25 45 -21 18 2 50 15 70 29 45 31 250 90 296 85 28 -3 32 -6 30 -31
-2 -25 1 -27 25 -21 15 4 39 13 54 20 41 21 55 17 102 -26 28 -26 54 -41 72
-41 89 -5 394 -62 438 -83 l48 -23 -26 -20 c-24 -19 -24 -21 -7 -26 29 -7 71
4 71 19 0 20 30 18 148 -11 113 -27 176 -55 192 -84 5 -11 10 -40 10 -65 0
-25 5 -68 11 -97 16 -75 4 -95 -59 -101 -27 -3 -67 -14 -89 -25 -28 -15 -59
-21 -112 -21 -94 -1 -111 -14 -71 -54 24 -24 38 -29 78 -30 41 0 49 -3 59 -25
26 -54 -14 -74 -156 -75 -79 -1 -104 2 -114 14 -10 12 -18 12 -46 3 l-33 -12
33 -16 c19 -8 46 -13 61 -10 19 4 36 -2 55 -16 69 -53 77 -61 63 -56 -8 2 -24
-2 -35 -11 -17 -13 -18 -16 -5 -24 11 -7 11 -10 2 -10 -7 0 -25 12 -39 26 -29
29 -49 25 -68 -13 -6 -12 -17 -28 -23 -36 -7 -9 -12 -21 -11 -29 2 -7 0 -25
-4 -39 -8 -33 -98 -84 -147 -84 -32 0 -35 -2 -32 -27 2 -15 -2 -36 -8 -48 -9
-17 -17 -20 -41 -15 l-30 7 7 -39 c3 -21 11 -42 17 -48 7 -7 7 -5 2 4 -6 11
-3 13 12 9 16 -4 26 4 47 43 14 27 25 54 24 60 -3 12 10 16 71 21 24 2 36 -1
35 -10 -1 -6 -2 -18 -2 -26 -1 -8 -16 -17 -33 -21 -45 -10 -20 -30 38 -30 41
0 48 -3 53 -24 4 -19 13 -25 43 -28 28 -3 39 1 44 13 3 9 17 27 29 40 13 12
24 28 24 34 0 22 96 105 124 108 15 1 37 7 49 14 12 7 26 11 31 10 5 -2 6 6 3
18 -6 23 11 28 19 5 9 -22 24 -18 24 6 0 19 2 19 35 -7 37 -28 44 -54 20 -74
-18 -15 -35 -5 -35 21 0 10 -4 19 -10 19 -16 0 -12 -40 5 -46 24 -10 18 -34
-9 -34 -13 0 -29 -7 -36 -15 -7 -9 -27 -22 -44 -30 -17 -9 -46 -28 -64 -43
-31 -26 -32 -28 -17 -56 8 -15 15 -34 15 -40 0 -14 37 -19 45 -5 4 5 16 9 29
9 16 0 24 -8 31 -32 10 -32 12 -33 64 -33 61 0 68 -8 51 -60 -6 -19 -8 -40 -4
-47 5 -7 14 16 22 57 22 107 21 118 -8 125 -32 7 -57 55 -40 75 6 8 30 15 52
17 37 3 41 6 54 43 7 22 21 45 31 52 9 7 13 13 9 13 -4 0 0 7 8 16 9 8 16 22
16 30 0 15 -8 17 -52 14 -25 -1 -28 2 -28 29 0 51 -41 105 -90 120 -35 10 -44
10 -58 -3 -15 -13 -19 -13 -37 2 -50 42 -48 47 18 50 34 2 70 5 80 8 28 9 14
28 -26 37 -40 10 -45 18 -23 36 11 9 20 9 35 2 16 -9 23 -7 35 11 9 12 16 28
16 35 0 7 7 34 16 60 9 26 16 58 16 71 0 12 4 22 9 22 5 0 9 14 9 32 0 19 9
41 22 55 l22 24 -22 6 c-12 3 -23 13 -23 22 -1 9 -3 33 -5 54 -3 39 -3 39 19
23 75 -54 63 -53 129 -16 83 45 177 53 236 20 42 -23 51 -39 72 -122 17 -64
29 -72 95 -65 41 4 59 2 69 -9 10 -9 17 -11 21 -4 9 15 35 -7 35 -29 0 -30
126 -101 178 -101 21 0 43 -5 50 -12 16 -16 15 -59 -3 -82 -8 -11 -15 -28 -15
-39 0 -13 -5 -17 -15 -13 -15 6 -20 -8 -16 -51 1 -13 -3 -23 -9 -23 -5 0 -10
-6 -10 -14 0 -7 -22 -33 -50 -57 -27 -24 -50 -47 -50 -52 0 -4 -11 -24 -25
-45 l-25 -38 20 -42 c14 -29 27 -42 41 -42 11 0 40 -13 63 -30 24 -16 46 -27
48 -24 3 2 13 -8 23 -23 19 -29 33 -41 50 -41 5 0 12 -9 16 -19 6 -14 8 -12 8
10 1 15 6 27 12 27 6 0 9 -16 8 -40 -4 -50 5 -59 26 -26 13 19 16 37 11 65 -5
36 -3 42 23 60 36 26 41 26 41 1 0 -28 47 -100 64 -100 9 0 23 -24 35 -57 12
-32 26 -66 31 -75 13 -22 13 -31 1 -23 -5 3 -12 -4 -16 -15 -4 -11 -17 -28
-30 -36 -15 -10 -27 -30 -31 -52 -4 -21 -13 -44 -20 -53 -12 -14 -10 -19 16
-39 23 -18 27 -26 19 -36 -9 -11 -8 -14 5 -14 10 0 14 -4 11 -10 -3 -5 -1 -10
4 -10 6 0 11 -5 11 -12 0 -9 -3 -9 -12 0 -7 7 -21 12 -32 12 -27 0 -9 -17 27
-25 19 -5 27 -3 27 6 0 7 7 3 16 -9 8 -12 19 -22 25 -22 5 0 9 299 9 783 l0
782 -64 23 c-35 13 -81 32 -101 42 -21 11 -42 17 -46 14 -5 -3 -9 -1 -9 4 0 5
-17 14 -38 20 -30 9 -244 142 -378 236 -50 35 -372 198 -444 226 -19 7 -80 35
-135 62 -56 26 -111 50 -122 52 -12 3 -31 10 -43 16 -48 26 -275 90 -320 90
-19 0 -43 7 -54 15 -16 12 -87 30 -258 65 -231 47 -929 75 -1228 49z m-2233
-1822 c1 -72 5 -150 9 -171 7 -37 6 -39 -14 -34 -23 6 -32 -15 -12 -27 22 -13
-2 -23 -33 -13 -17 5 -38 10 -46 11 -13 0 -11 52 5 105 5 17 2 22 -11 22 -12
0 -15 5 -10 18 4 9 13 36 20 58 8 23 21 56 30 73 9 17 13 36 10 42 -9 14 23
59 38 54 8 -4 13 -43 14 -138z"/>
<path d="M3816 6015 c-14 -10 -33 -13 -60 -10 -35 5 -45 2 -71 -22 -28 -26
-35 -28 -120 -28 -97 -1 -118 2 -110 15 7 12 -32 10 -78 -2 -27 -8 -44 -8 -63
1 -22 10 -30 9 -45 -5 -10 -9 -33 -19 -50 -23 -23 -5 -37 -16 -48 -39 -11 -22
-22 -31 -33 -28 -9 2 -19 -1 -22 -8 -2 -6 -5 -4 -5 6 -1 19 -24 14 -88 -20
-48 -25 -66 -50 -53 -73 8 -13 25 -15 87 -13 103 3 123 -5 123 -51 0 -41 13
-45 36 -11 8 14 30 30 48 36 18 6 45 24 61 40 32 33 79 47 100 30 8 -7 26 -9
43 -6 17 4 40 1 58 -9 16 -8 37 -15 46 -15 35 0 27 -20 -17 -41 -35 -17 -44
-26 -39 -38 4 -9 9 -31 12 -48 6 -43 33 -44 96 -2 41 27 52 30 91 25 45 -7 70
0 99 30 15 14 16 13 16 -15 0 -17 -4 -31 -9 -31 -18 0 -20 -32 -5 -56 27 -41
52 -27 44 25 -2 19 19 31 58 31 19 0 47 8 62 17 22 13 36 14 62 7 30 -9 33
-13 33 -49 1 -28 -5 -45 -19 -57 -12 -9 -17 -20 -13 -25 5 -4 15 1 23 12 10
14 28 20 62 21 57 2 111 10 134 19 31 12 34 -24 5 -48 l-26 -22 23 -28 c22
-27 24 -28 72 -16 27 6 60 16 73 21 31 12 39 3 50 -55 7 -39 6 -47 -6 -47 -11
0 -13 -6 -8 -22 3 -13 9 -33 12 -45 3 -12 16 -24 29 -27 16 -4 24 -13 24 -29
0 -18 -9 -26 -42 -37 -37 -13 -45 -21 -56 -57 -15 -46 -24 -52 -44 -27 -7 8
-22 25 -33 37 -11 12 -20 29 -21 37 -1 8 -2 27 -3 42 -1 28 -16 41 -63 52 -24
5 -31 1 -54 -35 -20 -33 -30 -40 -49 -37 -18 4 -26 -2 -39 -29 -10 -22 -29
-39 -52 -49 -27 -12 -34 -19 -29 -32 9 -21 9 -33 0 -54 -5 -12 4 -23 32 -42
43 -30 56 -32 73 -11 12 14 96 32 106 22 8 -8 -19 -47 -32 -47 -20 0 -35 -27
-29 -52 5 -18 13 -24 36 -23 16 0 33 6 38 13 9 14 61 19 80 8 6 -4 11 -18 11
-31 0 -39 70 -44 111 -8 9 8 32 15 50 16 45 3 59 13 59 41 0 15 -9 27 -25 34
-14 6 -25 20 -25 30 0 11 -9 27 -20 37 -17 15 -26 17 -54 8 -32 -10 -34 -9
-31 10 7 32 36 57 67 57 23 0 32 6 43 33 7 17 23 38 35 45 12 7 29 32 40 56
26 61 60 72 120 40 25 -13 53 -24 62 -24 10 0 18 -7 18 -15 0 -19 14 -19 30 0
11 13 10 18 -6 29 -13 10 -18 24 -16 49 2 21 -3 39 -13 47 -8 7 -15 17 -15 23
0 6 -7 18 -15 27 -8 9 -17 40 -20 70 -6 67 -52 216 -73 236 -13 13 -16 13 -31
0 -9 -8 -29 -18 -44 -21 -19 -5 -26 -12 -23 -24 10 -30 -7 -41 -75 -49 -29 -3
-40 1 -55 21 -16 19 -26 23 -51 20 -20 -3 -49 3 -75 15 -24 11 -63 27 -88 37
-44 16 -45 16 -59 -4 -13 -20 -43 -30 -39 -13 5 24 -15 40 -46 35 -28 -4 -36
0 -59 30 -36 48 -34 63 11 78 40 13 62 27 62 40 0 4 -16 20 -36 35 -28 22 -45
27 -80 25 -24 -1 -44 2 -44 7 0 5 -6 9 -12 10 -7 1 -29 4 -48 7 -23 4 -42 0
-54 -10z"/>
<path d="M4327 5946 c-4 -9 0 -28 8 -43 8 -16 16 -35 19 -44 2 -10 27 -24 54
-33 27 -9 59 -28 70 -41 12 -14 29 -25 38 -25 13 0 11 6 -10 25 -14 13 -26 28
-26 34 0 5 23 18 52 29 29 11 59 29 66 41 14 20 12 22 -24 37 -22 9 -73 18
-114 20 -41 2 -87 6 -101 9 -19 5 -28 2 -32 -9z"/>
<path d="M3393 5724 c-20 -19 -33 -42 -33 -58 0 -14 -9 -34 -21 -45 -12 -11
-16 -21 -10 -25 5 -4 8 -13 5 -20 -3 -7 6 -20 20 -30 33 -21 36 -20 36 8 0 16
15 36 44 61 45 38 51 65 15 65 -23 0 -23 8 -4 34 40 52 -3 60 -52 10z"/>
<path d="M2003 5468 c-5 -7 -10 -24 -11 -36 -1 -34 -28 -70 -54 -74 -34 -5
-31 -69 5 -106 24 -25 26 -31 15 -60 -16 -42 -6 -49 25 -18 15 14 32 26 40 26
18 0 57 -37 57 -55 0 -20 -48 -73 -71 -80 -11 -4 -19 -11 -19 -16 0 -13 37
-11 45 2 4 5 18 14 31 19 13 5 29 21 34 34 5 13 18 27 30 31 26 8 26 8 35 -32
5 -27 2 -37 -19 -56 -14 -14 -26 -29 -26 -36 0 -14 37 -15 45 -1 4 6 16 8 27
4 15 -4 18 -3 13 6 -5 9 -4 11 3 6 6 -4 25 0 42 9 16 8 30 13 30 11 0 -3 15 1
33 9 25 10 44 11 77 4 24 -5 49 -8 57 -5 7 3 18 -1 25 -8 7 -7 22 -11 33 -8
19 5 19 4 -2 -17 -12 -11 -27 -21 -33 -21 -5 0 -10 -4 -10 -10 0 -28 95 19
103 51 9 33 -5 94 -25 116 -19 21 -20 27 -9 63 11 39 18 44 53 41 9 -1 19 3
22 8 9 13 -15 50 -36 56 -34 12 -32 67 3 58 27 -7 23 8 -11 34 -48 39 -56 38
-88 -9 -41 -59 -67 -81 -133 -112 -67 -31 -69 -31 -143 -6 -45 16 -61 18 -72
9 -8 -7 -16 -10 -17 -8 -13 20 -65 143 -68 163 -5 24 -23 31 -36 14z"/>
<path d="M3145 5420 c-4 -6 -9 -8 -13 -6 -4 2 -7 -10 -7 -27 0 -26 -5 -32 -35
-40 -27 -7 -36 -5 -46 7 -16 23 -29 20 -58 -14 -26 -31 -26 -60 0 -60 8 0 19
-12 25 -27 25 -63 43 -93 57 -93 11 0 13 10 10 43 -3 23 -6 48 -9 56 -8 28 30
24 41 -4 5 -14 20 -36 33 -48 57 -54 33 -110 -68 -158 -34 -16 -67 -29 -73
-29 -23 0 -82 -34 -82 -47 0 -7 5 -13 11 -13 5 0 8 4 4 9 -3 5 0 13 6 17 14 8
48 -33 49 -58 0 -10 16 -26 38 -37 20 -10 62 -35 92 -55 30 -20 62 -36 70 -36
23 0 40 -20 40 -47 0 -15 10 -28 30 -38 17 -9 30 -19 30 -23 0 -13 39 -32 53
-26 29 11 -10 114 -43 114 -27 1 -81 55 -74 74 7 18 13 18 115 0 26 -4 40 -1
52 10 20 20 23 20 47 -4 11 -11 27 -20 35 -20 8 0 15 -7 15 -15 0 -8 3 -15 6
-15 14 0 94 74 94 86 0 9 11 14 28 14 21 0 24 2 12 10 -20 13 -60 13 -60 0 0
-5 -7 -18 -16 -29 -18 -20 -46 -18 -65 5 -6 8 -24 14 -40 14 -16 0 -47 11 -69
25 -22 14 -51 25 -65 25 -14 0 -25 4 -25 10 0 5 -16 17 -37 25 -34 14 -35 16
-18 29 16 11 17 17 7 29 -8 10 -9 17 -3 21 10 7 41 64 41 76 0 4 -12 5 -26 2
-19 -3 -25 -1 -20 7 5 7 0 11 -13 11 -15 0 -19 4 -14 17 4 10 2 14 -5 9 -6 -3
-13 -2 -17 4 -3 5 -1 10 4 10 6 0 11 7 11 15 0 8 5 15 10 15 6 0 10 -4 10 -10
0 -5 4 -10 10 -10 5 0 7 6 4 14 -5 13 36 32 62 27 6 0 17 6 24 14 18 21 -12
20 -46 -1 -29 -20 -48 -9 -20 12 11 7 16 17 13 21 -4 3 -7 2 -7 -3 -1 -5 -7 5
-15 23 -8 20 -22 33 -37 35 -22 3 -23 6 -11 51 4 13 -1 17 -20 17 -14 0 -29
-5 -32 -10z"/>
<path d="M5765 5420 c-3 -6 -3 -19 0 -30 5 -15 3 -18 -8 -14 -10 3 -24 -8 -40
-31 -14 -20 -34 -43 -46 -51 -21 -15 -29 -44 -12 -44 19 0 104 -88 97 -102 -3
-7 -17 -31 -30 -53 -13 -22 -22 -43 -19 -47 6 -12 51 -10 58 2 3 6 16 10 27
10 20 0 20 1 4 19 -16 18 -16 25 -5 78 14 61 36 90 78 100 37 8 61 32 82 81
26 61 25 66 -17 59 -20 -4 -44 -2 -53 3 -10 5 -23 5 -31 0 -9 -5 -22 -2 -38
11 -28 21 -38 23 -47 9z"/>
<path d="M3407 5354 c-4 -23 1 -28 40 -46 34 -15 42 -23 34 -32 -6 -7 -8 -15
-6 -18 3 -3 -8 -8 -25 -11 -28 -6 -30 -9 -30 -52 0 -25 4 -45 9 -45 6 0 36 13
67 30 58 30 74 31 74 3 0 -11 6 -14 23 -9 58 17 67 17 67 -3 0 -30 56 -32 99
-3 39 25 63 22 95 -14 18 -21 25 -23 53 -15 18 5 41 7 51 4 24 -6 35 10 27 38
-6 17 -13 20 -37 17 -35 -6 -46 12 -30 47 16 35 -5 47 -67 39 -48 -6 -51 -5
-61 20 -5 15 -18 29 -27 33 -10 4 -20 9 -23 12 -3 4 -17 12 -32 18 -23 10 -30
9 -52 -8 -14 -11 -26 -27 -26 -35 0 -16 -5 -16 -35 -5 -12 5 -33 3 -51 -5 -36
-15 -44 -7 -44 42 0 22 -4 24 -44 24 -39 0 -44 -3 -49 -26z"/>
<path d="M4659 5282 c-26 -17 -28 -32 -14 -79 7 -20 4 -23 -22 -23 -17 0 -37
-8 -46 -18 -19 -21 -22 -57 -7 -67 6 -3 7 -17 4 -30 -3 -13 -2 -29 2 -36 10
-18 24 19 17 48 -4 20 0 23 45 29 38 5 53 12 62 29 l12 23 29 -29 c32 -33 41
-35 59 -14 11 13 10 22 -4 52 -11 23 -15 46 -11 64 6 26 4 29 -17 29 -13 0
-29 -5 -36 -12 -9 -9 -14 -4 -23 20 -13 37 -15 38 -50 14z"/>
<path d="M2747 5051 c-26 -18 -48 -26 -65 -23 -19 2 -37 -5 -61 -27 -35 -31
-236 -135 -282 -146 -15 -4 -42 0 -63 9 -33 14 -36 19 -34 49 2 41 -33 95 -49
74 -6 -6 -13 -20 -16 -29 -4 -10 -16 -18 -27 -18 -29 0 -23 -41 8 -55 12 -5
22 -18 22 -27 0 -23 16 -23 38 -1 16 16 17 15 21 -2 2 -11 -6 -27 -18 -36 -13
-10 -17 -20 -11 -24 13 -8 13 -42 0 -50 -6 -4 -17 -1 -26 5 -11 10 -12 16 -3
26 21 26 1 14 -35 -20 -20 -18 -36 -38 -36 -43 0 -6 -10 -22 -21 -37 -28 -35
-17 -46 12 -12 27 31 78 49 114 40 22 -5 31 -2 44 14 15 21 18 21 61 6 24 -8
65 -14 90 -12 l45 3 9 -50 c5 -27 10 -51 11 -52 1 -2 16 1 33 6 19 6 34 6 37
0 11 -16 44 -10 55 11 8 15 6 24 -10 40 -25 25 -26 43 -1 35 12 -3 23 0 28 8
14 23 51 39 71 29 24 -13 42 -4 42 20 0 17 3 18 15 8 18 -15 35 -5 35 20 0 49
58 29 83 -29 10 -21 17 -52 17 -69 0 -29 27 -67 48 -67 19 0 72 -49 72 -66 0
-10 3 -19 8 -19 4 0 18 -29 31 -65 14 -36 30 -64 35 -63 6 2 28 -14 48 -35 21
-20 45 -37 54 -37 18 0 15 6 -35 59 -12 14 -35 46 -49 71 -14 25 -41 66 -59
92 -18 26 -33 52 -33 57 0 4 -10 24 -23 42 -13 19 -38 70 -56 113 -28 67 -32
85 -26 129 l7 50 -43 -6 c-24 -3 -61 -9 -81 -13 -34 -6 -38 -4 -38 14 0 33
-18 35 -44 7 -31 -34 -48 -26 -33 15 7 18 19 30 30 30 10 0 25 7 33 15 9 8 27
16 42 16 15 1 38 3 52 4 14 1 33 3 43 4 27 2 20 18 -14 30 -45 15 -59 13 -102
-18z"/>
<path d="M350 4933 c0 -12 -4 -23 -9 -25 -8 -3 -93 -176 -105 -214 -4 -12 -15
-29 -26 -39 -11 -10 -20 -28 -20 -39 0 -12 -11 -44 -24 -72 -13 -28 -27 -66
-31 -83 -4 -18 -13 -35 -22 -38 -8 -3 -12 -12 -9 -19 6 -16 -13 -64 -24 -64
-4 0 -10 -9 -13 -20 -3 -11 -1 -20 3 -20 12 0 -7 -64 -20 -68 -6 -2 -10 -14
-10 -27 0 -13 -6 -26 -12 -28 -10 -4 -10 -7 0 -15 11 -7 10 -17 -5 -53 -16
-41 -18 -123 -20 -1240 l-3 -1196 37 -34 c48 -44 105 -79 139 -85 14 -3 37
-12 50 -20 13 -9 38 -18 56 -20 45 -5 58 -8 91 -22 16 -7 34 -12 42 -12 8 0
17 -4 20 -10 3 -5 13 -10 22 -10 19 0 145 -63 187 -94 17 -11 93 -84 170 -162
129 -128 173 -168 317 -289 72 -61 149 -118 178 -134 23 -12 51 -32 98 -71 7
-6 17 -10 23 -10 5 0 10 -3 10 -8 0 -9 67 -46 73 -41 2 2 11 -3 20 -11 35 -32
47 -40 59 -40 8 0 36 -15 64 -33 27 -18 55 -32 62 -29 7 2 12 -4 12 -12 0 -12
6 -15 25 -10 15 4 25 2 25 -5 0 -6 8 -11 17 -11 9 0 14 -3 10 -6 -9 -10 16
-32 30 -27 7 3 13 0 13 -6 0 -6 9 -11 19 -11 11 0 23 -4 26 -10 4 -6 -1 -7
-12 -3 -10 3 -15 3 -11 -2 4 -4 22 -9 40 -11 17 -2 34 -7 37 -12 3 -4 14 -8
24 -10 10 -2 37 -14 60 -27 23 -12 44 -23 47 -23 17 -2 48 -18 69 -36 13 -12
21 -15 17 -8 -8 14 10 17 19 2 3 -5 15 -10 25 -10 11 0 25 -6 32 -13 7 -8 20
-12 30 -9 9 2 34 -5 55 -16 50 -27 75 -36 91 -33 8 1 24 -5 38 -14 13 -8 24
-14 24 -11 0 2 28 -5 63 -15 34 -11 76 -23 92 -25 17 -3 32 -10 33 -15 2 -5 7
-7 11 -4 7 4 55 -6 156 -31 87 -22 384 -63 509 -70 49 -2 93 -7 97 -10 20 -12
528 -3 619 11 19 3 53 7 75 10 111 11 290 37 313 46 18 7 28 6 34 -3 6 -10 8
-10 8 0 0 6 7 12 15 12 8 0 15 -4 15 -10 0 -5 9 -10 19 -10 10 0 21 -7 25 -15
7 -19 33 -19 33 0 0 8 -7 15 -14 15 -8 0 -21 6 -29 14 -12 13 -10 15 14 20 59
12 108 19 133 20 14 1 33 7 42 14 9 8 21 11 27 7 6 -4 17 -2 24 4 8 7 18 11
22 10 18 -3 74 14 74 22 0 5 10 9 21 9 12 0 54 9 93 20 70 21 81 24 141 50 17
8 35 14 40 15 6 0 24 7 40 14 26 11 68 29 150 62 11 4 37 14 58 21 22 7 43 21
48 31 6 9 14 15 19 12 9 -6 86 31 96 46 3 5 19 9 35 9 17 0 32 6 35 15 3 8 21
19 40 25 19 6 34 16 34 22 0 6 3 8 7 5 3 -4 12 1 20 11 12 16 13 15 7 -3 -6
-18 -5 -17 10 3 10 12 24 22 32 22 14 0 26 8 64 42 10 9 28 19 39 23 28 9 101
56 101 66 0 4 12 12 28 18 47 20 77 41 74 52 -1 6 3 7 9 3 7 -4 17 0 23 8 6 8
19 17 29 21 10 4 15 11 12 17 -3 5 3 10 13 10 11 0 25 7 32 15 7 8 19 15 27
15 7 0 16 7 19 15 4 8 11 15 18 15 6 0 19 8 28 18 8 9 38 33 66 52 28 19 51
39 52 43 0 11 38 44 73 63 15 8 25 19 22 24 -4 6 2 13 12 17 20 8 26 12 66 46
15 14 27 28 27 33 0 5 12 20 25 33 21 20 25 32 25 84 l0 62 -87 -85 c-48 -47
-107 -104 -131 -128 -24 -23 -47 -42 -50 -42 -3 0 -23 -18 -44 -41 -21 -22
-42 -38 -46 -35 -5 3 -27 -9 -48 -28 -49 -41 -157 -121 -164 -121 -3 0 -38
-24 -77 -52 -39 -29 -73 -53 -77 -53 -4 0 -19 -8 -34 -19 -93 -64 -221 -138
-307 -178 -16 -8 -37 -18 -45 -24 -15 -9 -61 -31 -70 -34 -31 -7 -94 -32 -130
-50 -25 -13 -69 -31 -99 -40 -29 -9 -104 -36 -165 -60 -111 -43 -357 -111
-491 -135 -38 -7 -80 -17 -92 -21 -13 -5 -25 -4 -28 1 -3 5 11 12 32 15 210
34 681 183 893 282 36 17 106 49 155 72 50 23 101 47 115 54 38 18 290 171
341 206 24 17 67 47 94 65 137 93 311 236 448 368 l107 104 -1 144 c-1 80 -3
137 -6 128 -2 -10 -9 -18 -14 -18 -5 0 -9 -8 -9 -19 0 -10 -7 -24 -16 -32 -20
-16 -56 -87 -50 -97 3 -5 1 -14 -5 -22 -7 -12 -9 -11 -9 4 0 19 0 19 -19 0
-12 -13 -15 -22 -7 -27 7 -6 6 -7 -3 -5 -8 2 -21 22 -30 44 -17 43 -71 117
-71 98 0 -6 7 -17 15 -24 23 -19 47 -108 35 -130 -15 -28 -12 -57 6 -64 9 -4
14 -9 11 -13 -4 -3 -14 0 -23 8 -15 12 -23 7 -68 -44 -28 -31 -57 -57 -64 -57
-6 0 -12 -9 -12 -20 0 -11 -7 -20 -15 -20 -14 0 -20 -12 -16 -33 1 -5 -3 -6
-8 -3 -4 3 -37 -16 -72 -42 -116 -87 -214 -149 -229 -144 -8 3 -12 1 -8 -3 12
-13 -12 -35 -29 -28 -10 4 -14 2 -10 -5 4 -6 -6 -20 -23 -32 -27 -19 -35 -19
-31 2 0 5 -6 8 -14 8 -12 0 -14 -7 -9 -27 6 -21 4 -25 -9 -20 -9 3 -18 0 -21
-8 -3 -8 -11 -12 -18 -10 -7 3 -18 -4 -23 -16 -13 -28 -102 -82 -92 -56 3 9 2
17 -4 17 -6 0 -13 -8 -16 -18 -2 -9 -16 -25 -30 -36 l-25 -19 17 27 c17 25 17
38 -1 81 -7 18 -6 19 12 5 12 -9 9 -4 -6 14 -23 26 -25 26 -28 7 -2 -11 -9
-18 -15 -15 -12 4 -37 -38 -37 -63 0 -7 -7 -13 -15 -13 -20 0 -105 -80 -105
-100 0 -11 -2 -12 -8 -2 -7 10 -15 9 -39 -3 -17 -9 -33 -22 -36 -29 -5 -13
-49 -21 -152 -28 -22 -2 -45 -9 -50 -16 -6 -8 -30 -15 -54 -18 -25 -2 -64 -16
-90 -33 -75 -47 -113 -57 -173 -44 -61 13 -84 2 -39 -18 17 -8 31 -20 31 -27
0 -7 5 -10 11 -6 8 4 8 0 0 -15 -7 -11 -19 -21 -27 -21 -8 0 -13 -4 -9 -9 7
-12 -32 -34 -45 -26 -5 3 -7 0 -5 -8 7 -17 -71 -23 -91 -7 -10 9 -28 6 -76
-13 -40 -17 -65 -22 -69 -15 -4 7 -9 7 -13 0 -3 -5 -28 -15 -56 -22 -28 -7
-53 -16 -56 -21 -3 -5 -13 -9 -22 -9 -13 0 -13 2 4 15 18 13 18 14 1 15 -10 0
-16 4 -13 9 9 14 -69 -7 -108 -29 -20 -11 -41 -18 -48 -16 -7 1 -10 1 -5 -1
13 -8 7 -19 -10 -20 -10 -1 -29 -4 -43 -6 -56 -11 -123 -16 -295 -22 -138 -4
-204 -2 -285 10 -58 9 -120 13 -137 10 -18 -3 -33 -2 -33 2 0 20 -61 34 -115
28 -37 -5 -55 -4 -55 4 0 5 -7 8 -15 5 -11 -5 -13 -2 -9 10 8 20 -9 21 -25 2
-11 -13 -80 -14 -101 -1 -4 2 -29 7 -56 10 -64 7 -98 24 -83 41 15 19 1 37
-25 30 -31 -8 -46 6 -50 46 -2 20 -7 41 -10 47 -9 14 -39 14 -52 1 -5 -5 -23
-10 -41 -12 -20 -1 -29 -6 -26 -15 8 -22 -13 -15 -41 13 l-26 27 -11 -32 c-6
-17 -18 -31 -26 -31 -10 0 -14 -6 -10 -20 4 -17 1 -19 -23 -15 -16 3 -32 1
-35 -5 -4 -6 -12 -4 -22 5 -9 9 -21 14 -29 11 -7 -3 -15 0 -17 7 -3 9 -7 9
-17 0 -10 -9 -21 -6 -51 13 -21 13 -45 24 -54 24 -8 0 -15 5 -15 10 0 6 -9 10
-20 10 -11 0 -20 5 -20 11 0 5 -4 8 -10 4 -5 -3 -17 -1 -27 4 -10 6 -52 24
-93 42 -191 79 -213 90 -385 184 -99 54 -246 156 -239 166 3 5 -4 9 -14 9 -11
0 -30 9 -43 20 -23 19 -23 19 -3 20 11 0 24 -3 28 -7 4 -5 11 -8 14 -9 4 0 20
-6 35 -12 42 -18 53 -15 69 19 9 17 18 30 22 30 18 -2 20 0 7 8 -11 7 -12 13
-3 23 13 16 -1 38 -24 38 -6 0 -14 7 -18 15 -3 9 -18 15 -36 15 -18 0 -33 6
-36 15 -4 9 -14 14 -23 13 -21 -4 -16 31 9 52 16 14 25 45 21 75 -1 10 -28
-35 -50 -83 -6 -13 -16 -20 -21 -17 -6 4 -4 -10 4 -30 9 -21 16 -39 16 -41 0
-1 21 -4 47 -6 31 -2 48 -8 51 -18 4 -12 2 -13 -9 -2 -7 6 -32 12 -54 12 -39
0 -43 3 -60 40 -10 22 -22 37 -26 34 -5 -3 -6 2 -3 10 8 22 -6 42 -17 25 -4
-8 -12 -14 -16 -15 -4 0 -17 -4 -27 -9 -13 -6 -23 -3 -31 8 -7 10 -14 17 -16
17 -3 0 -18 -24 -33 -54 -31 -59 -37 -60 -88 -23 -21 16 -25 24 -18 38 14 26
13 29 -13 29 -32 0 -40 -10 -19 -26 9 -7 14 -14 11 -14 -15 0 -75 56 -71 68 3
11 -10 20 -40 26 -25 5 -68 29 -68 38 0 5 -4 7 -9 4 -10 -7 -45 24 -49 43 -2
8 -17 31 -33 52 -20 26 -25 39 -17 42 7 3 1 5 -13 4 -40 -2 -209 107 -209 135
0 5 18 -6 40 -23 23 -18 46 -34 53 -35 7 -2 22 -5 34 -8 26 -5 40 9 21 21 -20
12 -46 14 -53 3 -4 -6 -11 -5 -19 2 -7 7 -30 28 -50 46 -21 18 -51 59 -67 90
-16 31 -29 53 -29 47 0 -5 -5 -2 -11 8 -5 9 -7 22 -4 27 7 11 -13 33 -35 38
-18 4 -31 23 -24 34 10 16 31 8 44 -17 7 -14 17 -25 22 -25 4 0 8 -11 8 -25 0
-14 5 -25 11 -25 6 0 9 7 5 15 -3 8 0 29 6 47 19 56 58 99 111 121 28 12 45
23 39 25 -7 2 -12 8 -12 14 0 6 -10 30 -22 54 -12 24 -18 47 -13 51 4 5 10 2
12 -5 3 -6 10 -9 15 -6 7 4 8 2 4 -4 -8 -13 20 -72 33 -72 5 0 11 5 13 11 3 8
9 6 20 -4 18 -18 78 -20 78 -2 0 6 11 26 25 45 25 34 35 64 14 43 -9 -9 -15
-8 -26 3 -8 7 -12 18 -9 23 3 5 -3 11 -14 14 -11 3 -19 10 -18 15 2 5 -9 21
-24 35 -16 14 -28 30 -28 35 0 5 -14 21 -31 37 -25 21 -28 29 -18 36 11 7 10
9 -3 9 -10 0 -18 -7 -18 -15 0 -20 45 -92 82 -129 15 -17 28 -33 28 -38 0 -4
5 -8 11 -8 15 0 39 -26 32 -34 -4 -3 -1 -6 6 -6 7 0 10 -4 6 -9 -3 -5 -16 0
-28 12 -41 39 -77 67 -86 67 -5 0 -13 9 -16 20 -3 11 -10 20 -14 20 -4 0 -14
12 -21 27 -7 16 -14 23 -17 17 -2 -6 -16 -9 -31 -6 -22 4 -25 2 -14 -9 20 -22
14 -34 -8 -14 -14 13 -17 21 -9 26 15 9 2 30 -15 23 -19 -7 -118 197 -150 311
-55 192 -77 371 -77 605 1 166 12 338 31 485 28 210 37 376 29 547 -11 226
-33 340 -124 633 -51 162 -74 221 -75 188z"/>
<path d="M5629 4938 c0 -2 -6 -23 -12 -48 -10 -37 -18 -47 -54 -64 -35 -17
-42 -26 -45 -54 -3 -27 2 -43 26 -73 34 -42 47 -47 67 -23 7 8 25 22 40 30 24
12 28 20 27 52 -1 39 -14 65 -29 56 -5 -3 -9 0 -9 5 0 6 5 11 11 11 7 0 8 11
4 31 -6 25 -4 31 14 36 12 3 21 10 21 15 0 6 -6 8 -14 5 -8 -3 -17 1 -20 9 -4
12 -24 20 -27 12z"/>
<path d="M4810 4831 c-5 -11 -10 -33 -10 -48 0 -21 -8 -33 -29 -46 -36 -21
-67 -22 -75 -2 -4 12 -10 10 -31 -9 -29 -27 -32 -41 -9 -50 14 -5 12 -10 -11
-27 -14 -12 -31 -32 -35 -45 -8 -20 -16 -24 -55 -24 -41 0 -45 -2 -45 -25 0
-28 -26 -39 -81 -33 -31 3 -34 6 -37 41 -3 32 0 38 22 47 14 5 26 14 26 20 0
5 11 10 24 10 26 0 61 43 50 61 -3 6 -17 8 -30 5 -15 -4 -34 0 -49 10 -29 19
-58 12 -49 -11 8 -20 -15 -75 -31 -75 -7 0 -28 13 -46 30 -36 32 -58 38 -61
18 -4 -37 -4 -44 4 -54 9 -12 -22 -54 -40 -54 -6 0 -13 14 -17 30 -6 25 -45
64 -45 44 0 -3 -11 1 -24 9 -27 18 -46 6 -46 -29 0 -20 3 -22 29 -14 40 11 59
-10 31 -35 -30 -27 -65 -12 -100 43 -22 33 -29 55 -25 75 6 34 -12 35 -27 2
-14 -30 -18 -31 -48 -5 -13 11 -29 20 -36 20 -8 0 -19 9 -26 20 -7 11 -18 20
-24 20 -7 0 -10 8 -7 19 7 27 -13 34 -43 15 -21 -15 -29 -15 -46 -5 -16 10
-24 9 -44 -4 -34 -22 -30 -47 16 -89 22 -20 40 -41 40 -46 0 -6 16 -20 35 -31
37 -22 53 -53 36 -73 -14 -16 -4 -26 25 -26 13 0 26 -4 29 -10 3 -5 27 -9 52
-7 42 2 46 0 48 -22 1 -14 18 -37 43 -58 23 -19 40 -39 36 -44 -3 -5 1 -9 8
-9 16 0 41 -37 33 -50 -8 -13 -5 -13 45 5 43 15 64 12 57 -8 -7 -21 58 -46
115 -45 77 2 123 -27 132 -82 6 -40 35 -67 44 -42 2 7 10 12 19 12 10 0 12 -6
8 -22 -6 -16 -4 -20 8 -15 17 7 29 -15 21 -38 -7 -17 -8 -17 -84 -22 -125 -8
-304 -5 -308 6 -2 6 -10 11 -17 11 -8 0 -15 10 -17 22 -2 13 -11 24 -22 26
-16 4 -18 -1 -12 -52 7 -54 6 -56 -23 -74 -17 -10 -28 -22 -24 -25 3 -4 1 -7
-5 -7 -7 0 -12 7 -12 15 0 24 -28 29 -56 10 -22 -14 -28 -15 -35 -4 -4 7 -11
10 -15 6 -12 -12 -34 26 -22 40 8 10 4 13 -15 13 -13 0 -41 7 -60 15 -45 19
-44 19 -50 -4 -3 -12 -15 -21 -31 -23 -31 -4 -38 -22 -10 -26 10 -2 43 -14 72
-28 29 -13 58 -24 65 -24 7 0 24 -13 39 -30 23 -27 32 -30 80 -29 29 1 61 4
70 6 15 3 53 54 68 92 5 11 8 11 21 -1 28 -28 141 -49 153 -29 3 5 27 8 53 7
27 -1 58 2 70 7 18 8 28 4 53 -17 33 -28 39 -29 64 -20 11 4 13 11 5 31 -8 22
-7 24 13 17 12 -3 28 -13 35 -20 7 -7 34 -16 60 -20 l48 -7 87 93 c59 63 88
101 88 117 0 15 9 27 25 35 14 6 25 17 25 24 0 21 29 44 47 37 12 -5 15 -2 10
10 -8 21 8 31 22 13 9 -11 18 -12 41 -3 17 6 30 17 30 24 0 7 -7 10 -15 7 -8
-4 -23 -3 -32 1 -17 6 -17 7 1 21 15 11 17 17 8 26 -8 8 -15 8 -26 -2 -9 -7
-13 -16 -10 -21 7 -13 -13 -11 -39 3 -36 19 -168 28 -201 13 -15 -6 -17 -5
-11 5 5 8 4 11 -3 6 -6 -4 -20 -1 -31 6 -40 25 -33 -2 12 -44 52 -49 70 -88
40 -88 -10 0 -24 4 -32 9 -18 11 -43 3 -34 -12 7 -12 -14 -1 -40 21 -13 12
-20 13 -29 4 -24 -24 -48 -12 -83 42 -19 29 -57 71 -85 91 -47 35 -55 37 -101
32 -27 -3 -49 -3 -49 1 0 4 -15 13 -32 20 -28 10 -35 10 -42 -2 -8 -12 -12
-11 -21 7 -6 12 -21 23 -33 25 -29 4 -28 26 4 47 34 22 70 13 119 -29 32 -28
43 -32 69 -26 36 8 94 36 118 57 10 9 39 19 65 24 72 13 123 38 115 57 -4 11
-1 14 11 9 9 -3 19 -1 23 5 5 7 2 8 -7 3 -8 -4 6 11 30 34 24 22 51 41 61 41
10 0 30 17 46 38 15 20 29 39 31 41 2 2 6 2 9 -2 9 -9 -47 -83 -76 -101 -14
-9 -43 -32 -64 -51 l-39 -35 51 0 c46 0 132 -24 132 -37 0 -3 -10 -13 -22 -23
-22 -17 -22 -17 35 -34 43 -12 59 -23 69 -44 25 -50 94 -32 172 46 13 12 30
22 38 22 28 0 85 29 92 46 8 22 -4 40 -15 23 -8 -12 -11 -11 -19 1 -6 10 -10
11 -10 3 0 -7 -7 -13 -17 -13 -14 0 -14 2 -2 18 19 24 39 60 39 71 0 16 -111
35 -132 22 -10 -6 -23 -11 -30 -11 -10 0 -9 3 1 9 23 15 5 44 -21 36 -38 -12
-108 -59 -114 -77 -5 -16 -63 -52 -71 -44 -6 6 9 36 18 36 5 0 9 7 9 15 0 8 9
15 19 15 22 0 71 54 71 77 0 12 -8 15 -40 10 -22 -3 -40 -1 -40 3 0 18 13 40
20 35 5 -3 12 -1 15 5 11 18 -38 49 -77 50 -20 0 -40 5 -43 10 -10 16 -23 12
-35 -9z"/>
<path d="M6070 4579 c-6 -11 -21 -19 -35 -19 -16 0 -25 -6 -25 -15 0 -18 -12
-19 -27 -4 -8 8 -14 5 -24 -12 -9 -17 -9 -24 0 -27 6 -2 11 -11 11 -20 0 -17
41 -42 67 -42 7 0 13 -4 13 -10 0 -5 -11 -10 -24 -10 -13 0 -26 -7 -30 -15 -8
-23 -29 -18 -23 5 3 11 1 20 -4 20 -5 0 -9 -12 -9 -26 0 -21 4 -25 20 -21 10
3 27 -1 37 -9 29 -22 77 -17 103 11 13 14 18 25 11 25 -7 0 4 16 24 35 l37 34
-21 29 c-11 16 -27 35 -36 42 -8 7 -15 18 -15 25 0 22 -39 25 -50 4z"/>
<path d="M2497 4446 c-15 -14 -22 -28 -17 -31 6 -3 10 -2 10 3 0 6 9 8 20 5
28 -7 25 -18 -16 -80 -34 -51 -39 -55 -69 -51 -19 2 -32 1 -29 -3 2 -4 -3 -12
-11 -19 -8 -7 -15 -23 -15 -37 0 -13 -7 -35 -16 -48 -9 -14 -13 -32 -9 -42 6
-16 9 -15 31 10 13 15 24 37 24 48 0 29 18 59 35 59 8 0 20 9 27 19 6 10 17
17 23 15 6 -3 22 7 34 20 13 14 28 23 32 20 5 -3 6 1 3 9 -3 8 2 17 11 21 9 3
14 10 10 15 -3 5 4 12 15 16 27 8 25 23 -2 27 -15 2 -24 11 -26 26 -4 29 -32
28 -65 -2z"/>
<path d="M5731 4221 c-10 -6 -11 -13 -2 -29 15 -29 15 -29 -21 -30 -17 0 -35
-6 -39 -13 -9 -16 -1 -32 12 -23 5 3 7 10 4 15 -4 5 -1 9 4 9 22 0 10 -30 -14
-36 -30 -7 -28 -28 3 -32 l22 -3 -22 -29 c-21 -29 -21 -30 -2 -51 21 -23 20
-26 -10 -50 -24 -19 -95 -17 -108 3 -6 10 -10 10 -18 -2 -12 -18 -13 -33 -2
-26 4 2 27 0 52 -4 48 -10 110 3 110 22 0 6 11 8 25 5 18 -3 29 1 36 15 9 17
8 18 -10 9 -27 -15 -34 -14 -27 4 3 8 1 15 -5 15 -6 0 -9 7 -5 15 7 18 -5 20
-22 3 -7 -7 -12 -9 -12 -4 0 15 30 37 52 38 38 2 69 38 33 38 -21 0 -19 16 5
40 11 11 16 20 10 20 -5 0 -10 13 -10 28 0 36 -20 65 -39 53z"/>
<path d="M2981 4159 c-8 -15 -9 -24 -2 -28 13 -9 9 -31 -12 -61 -30 -43 -23
-59 25 -57 24 1 43 -2 43 -8 1 -18 16 -35 26 -30 5 4 9 1 9 -5 0 -7 -7 -9 -16
-6 -8 3 -13 2 -10 -2 3 -5 -1 -9 -9 -9 -14 0 -19 10 -16 30 2 13 -56 8 -68 -6
-6 -8 -13 -31 -16 -53 -3 -21 -8 -46 -11 -54 -2 -8 4 -5 15 7 10 12 22 19 26
15 3 -4 6 -2 5 3 -6 28 2 35 38 35 73 0 93 67 41 134 -12 16 -19 37 -17 53 3
24 0 28 -19 25 -13 -2 -23 2 -23 7 0 6 5 11 10 11 6 0 10 5 10 10 0 17 -14 11
-29 -11z"/>
<path d="M6570 4123 c0 -7 -14 -10 -36 -8 -39 4 -74 -12 -74 -32 0 -7 -5 -13
-12 -13 -6 0 -9 -2 -6 -5 9 -9 38 6 38 20 0 7 6 15 13 18 9 3 13 -7 13 -34 1
-28 10 -48 33 -74 17 -20 31 -44 31 -54 0 -10 13 -35 30 -56 19 -24 28 -45 25
-59 -27 -128 -31 -151 -34 -171 -1 -5 -11 6 -23 25 -45 74 -83 130 -90 130 -6
0 25 -78 55 -140 7 -14 23 -26 35 -28 17 -3 22 -9 20 -25 -4 -23 -7 -24 -48
-13 l-25 7 23 -20 c22 -19 22 -22 8 -37 -9 -8 -16 -20 -16 -25 0 -6 -15 -16
-33 -24 -18 -7 -41 -23 -51 -34 -14 -15 -31 -21 -63 -21 -23 0 -43 -4 -43 -10
0 -5 -7 -10 -16 -10 -8 0 -12 5 -9 10 3 6 1 10 -5 10 -6 0 -15 -11 -20 -25 -5
-14 -17 -25 -25 -25 -9 0 -18 -7 -21 -15 -14 -36 -87 -4 -77 33 3 11 -2 22
-10 25 -10 4 -13 0 -10 -13 5 -19 -30 -50 -57 -50 -8 0 -21 -9 -28 -21 -11
-16 -19 -19 -44 -14 -25 6 -30 4 -25 -8 3 -8 0 -20 -6 -27 -9 -10 -9 -14 1
-17 6 -3 12 -13 12 -23 0 -14 -9 -19 -40 -22 -44 -4 -57 16 -18 31 15 5 18 10
9 15 -16 10 -41 -12 -41 -36 0 -17 -2 -18 -15 -8 -11 9 -14 23 -9 49 6 35 6
36 -11 14 -20 -29 -35 -29 -35 -2 0 11 4 18 9 15 5 -4 8 1 7 10 -1 8 -9 20
-17 25 -8 5 -10 9 -4 9 5 0 4 5 -2 11 -7 7 -17 8 -25 3 -7 -5 -23 -9 -35 -9
-17 -1 -20 2 -11 12 15 18 -11 17 -36 -2 -26 -19 -29 -19 -45 6 -11 19 -11 21
3 16 9 -4 15 -2 13 3 -1 5 7 16 18 24 18 14 18 15 3 16 -10 0 -29 -10 -43 -22
-23 -20 -24 -23 -9 -39 14 -16 14 -17 -1 -15 -9 1 -20 8 -25 15 -5 9 -10 10
-14 2 -4 -6 2 -18 13 -28 11 -9 18 -20 15 -25 -3 -4 1 -5 9 -3 7 3 22 -4 33
-16 17 -21 18 -22 1 -16 -10 4 -16 3 -12 -2 3 -5 1 -12 -5 -16 -5 -3 -10 -2
-10 3 0 4 -22 7 -50 5 -49 -3 -50 -2 -37 20 6 12 18 29 25 39 9 11 10 18 3 23
-6 3 -11 0 -11 -7 -1 -15 -34 -58 -45 -58 -4 0 -5 9 -2 20 3 11 1 18 -4 14
-12 -7 -11 3 1 27 8 14 7 19 -1 19 -7 0 -4 9 7 21 18 20 18 20 -11 15 -17 -4
-24 -3 -17 0 16 8 15 24 -2 24 -7 0 -16 9 -19 21 -3 12 -10 18 -17 14 -6 -4
-21 0 -33 8 -13 8 -30 11 -42 7 -11 -4 -27 -5 -35 -2 -13 5 -13 4 0 -13 14
-16 13 -17 -8 -11 -16 6 -22 3 -22 -9 0 -9 6 -15 13 -14 38 5 68 -4 97 -30 26
-22 31 -32 23 -46 -12 -21 -5 -57 10 -52 7 2 14 14 18 28 6 20 7 20 8 4 0 -11
-8 -31 -19 -45 -11 -14 -20 -30 -20 -36 0 -15 -38 -25 -46 -13 -3 5 2 9 10 9
9 0 16 8 16 18 -1 20 -28 82 -29 65 -1 -6 -10 -9 -20 -6 -13 3 -24 -3 -33 -19
-8 -14 -22 -23 -37 -23 -13 0 -27 -7 -29 -15 -5 -13 -3 -13 11 -1 10 7 17 9
17 3 0 -5 -7 -15 -15 -22 -11 -10 -18 -9 -31 4 -8 9 -20 13 -26 10 -13 -8 -2
12 21 40 15 18 15 18 -6 5 -13 -8 -23 -17 -23 -22 0 -4 -5 -5 -10 -2 -7 4 -7
12 0 25 7 13 7 21 -1 25 -6 4 -8 14 -4 23 3 9 3 13 -1 9 -4 -4 -16 0 -26 10
-10 9 -18 11 -18 5 0 -6 -7 -9 -15 -6 -28 11 -36 -6 -16 -35 12 -17 18 -36 14
-49 -4 -18 -1 -22 16 -22 26 0 26 -5 1 -37 -24 -31 -73 -59 -78 -44 -2 5 -9 8
-16 5 -8 -3 -29 9 -47 26 -19 18 -43 36 -54 40 -19 8 -19 9 2 9 12 1 23 -4 25
-10 3 -8 17 -9 51 -1 27 5 50 6 53 1 3 -5 0 -9 -5 -9 -6 0 -11 -5 -11 -10 0
-7 6 -7 20 0 36 19 14 60 -27 52 -23 -4 -29 10 -25 61 1 11 -5 17 -17 17 -14
0 -18 5 -14 21 5 18 2 19 -23 14 -20 -5 -25 -4 -15 3 11 8 10 12 -7 21 -11 6
-28 11 -36 11 -24 0 -19 14 14 38 20 15 30 18 30 10 1 -7 11 0 24 16 28 34 25
61 -5 45 -15 -7 -19 -6 -19 6 0 8 0 18 0 23 0 4 8 7 18 8 21 1 64 23 73 37 4
5 15 4 29 -3 12 -7 20 -7 16 -2 -3 6 8 13 26 17 27 6 35 3 55 -21 26 -33 25
-45 -5 -60 -20 -10 -20 -10 -1 -22 18 -11 18 -14 4 -28 -21 -22 -19 -25 11
-14 14 6 23 6 20 1 -9 -14 16 -29 48 -29 23 0 26 2 12 10 -9 5 -21 6 -26 3 -6
-3 -10 -1 -10 6 0 8 11 10 36 6 40 -7 50 6 40 49 -6 21 -10 23 -21 14 -8 -6
-24 -10 -37 -8 -18 2 -22 9 -20 27 2 24 -27 61 -47 61 -6 0 -8 7 -5 15 4 8 10
15 15 15 5 0 9 -7 9 -15 0 -10 10 -15 28 -15 16 0 22 3 15 8 -22 14 -10 54 19
64 33 12 33 15 10 46 -17 21 -22 23 -55 14 -20 -6 -45 -8 -55 -6 -10 3 -26 -4
-36 -15 -11 -12 -14 -21 -8 -21 6 0 16 -9 22 -20 9 -17 8 -20 -9 -20 -14 0
-19 5 -15 15 4 9 0 15 -10 15 -10 0 -13 -5 -9 -17 4 -11 3 -14 -5 -9 -17 10
-47 -9 -47 -30 0 -9 -13 -25 -30 -34 -26 -15 -34 -15 -57 -4 -14 8 -28 18 -30
24 -2 6 -12 12 -21 14 -10 1 -22 7 -25 12 -4 5 -19 17 -34 27 -16 10 -28 24
-28 31 0 8 -3 16 -7 19 -5 2 -2 2 6 0 7 -2 20 2 27 8 8 6 20 9 29 6 8 -4 17
-2 21 4 3 6 11 3 18 -7 9 -12 15 -14 20 -6 4 7 2 12 -4 12 -6 0 -8 5 -5 10 3
6 0 17 -9 25 -11 11 -21 13 -40 5 -17 -6 -26 -6 -26 0 0 6 -7 10 -16 10 -11 0
-14 6 -9 20 10 31 -7 24 -32 -13 -31 -45 -29 -74 7 -107 33 -31 39 -45 14 -36
-8 3 -12 2 -9 -4 3 -6 -1 -10 -9 -10 -19 0 -31 20 -28 43 4 20 -14 23 -21 3
-8 -21 37 -59 61 -52 13 5 22 1 26 -10 4 -10 13 -14 26 -11 11 3 19 2 18 -2
-3 -25 4 -32 25 -25 12 3 18 3 14 -2 -5 -5 -29 -9 -54 -9 -41 0 -44 1 -40 22
3 15 -1 23 -10 23 -8 0 -12 -3 -9 -8 2 -4 1 -23 -4 -42 -4 -19 -8 -27 -9 -16
-1 15 -6 17 -28 11 l-28 -7 28 24 c15 13 27 27 27 32 0 5 -6 3 -14 -3 -11 -9
-15 -9 -19 1 -3 7 -6 3 -6 -9 -1 -13 -7 -23 -15 -23 -7 0 -20 -7 -27 -17 -11
-13 -12 -17 -1 -21 10 -3 8 -8 -5 -18 -17 -13 -16 -14 12 -12 21 2 29 -1 27
-10 -2 -9 19 -1 53 18 31 18 59 29 63 26 3 -4 0 -11 -8 -17 -13 -8 -10 -13 12
-29 20 -16 26 -27 23 -50 -3 -22 2 -34 23 -51 25 -20 25 -22 5 -16 -19 4 -23
1 -23 -17 0 -31 -8 -36 -36 -26 -16 6 -24 6 -24 -1 0 -6 -4 -8 -9 -4 -5 3 -13
0 -17 -6 -4 -8 -3 -9 4 -5 7 4 12 2 12 -4 0 -6 4 -9 9 -6 5 3 12 -1 15 -10 3
-9 2 -12 -5 -9 -6 4 -13 -2 -16 -14 -6 -23 -8 -24 -38 -11 -11 5 -14 9 -7 9 6
1 12 6 12 12 0 6 -12 1 -26 -10 -40 -31 -73 -28 -86 10 -9 25 -15 30 -35 26
-15 -3 -27 1 -30 9 -2 7 -13 12 -23 11 -11 -1 -16 -6 -12 -15 3 -10 0 -13 -9
-10 -8 3 -22 1 -31 -4 -13 -6 -18 -5 -18 4 0 10 -2 10 -9 -1 -5 -7 -14 -11
-20 -7 -5 4 -16 -2 -23 -14 -15 -24 -33 -27 -24 -4 4 12 2 15 -9 10 -10 -3
-15 1 -15 12 -1 16 -1 16 -14 0 -18 -24 -23 -23 -51 10 -27 31 -31 42 -12 42
6 0 21 7 32 16 16 12 17 16 6 23 -16 10 -6 31 14 31 9 0 12 -6 9 -15 -8 -20 8
-19 32 3 10 9 33 22 51 28 28 10 31 10 25 -5 -5 -14 -4 -14 11 -2 19 15 22 42
6 58 -12 12 -4 33 12 33 6 0 7 -5 3 -12 -4 -7 -3 -8 5 -4 6 4 19 2 28 -6 14
-11 15 -10 8 12 -7 22 -6 23 9 11 9 -7 16 -20 16 -28 0 -22 17 -6 22 22 3 13
2 23 -1 21 -3 -2 -17 1 -31 7 -14 5 -34 9 -45 8 -28 -3 -57 -40 -50 -62 5 -14
-1 -22 -22 -31 -15 -6 -36 -21 -46 -32 -13 -14 -17 -16 -14 -6 3 12 -3 17 -24
18 -16 1 -29 -3 -29 -9 0 -6 -6 -9 -12 -6 -7 2 -21 -3 -31 -12 -17 -15 -20
-14 -33 4 -8 10 -14 14 -14 8 0 -25 13 -43 30 -43 11 0 21 -4 24 -9 8 -12 -21
-34 -34 -26 -5 3 -10 2 -10 -4 0 -5 5 -13 12 -17 7 -5 4 -10 -11 -16 -13 -5
-19 -12 -15 -19 4 -8 3 -9 -5 -5 -6 4 -18 2 -26 -4 -17 -14 -35 -5 -35 17 0
11 -6 14 -21 10 -13 -3 -27 1 -37 13 -70 75 -66 65 -47 114 16 41 16 47 2 61
-22 22 -42 19 -57 -9 -11 -22 -10 -28 9 -52 15 -19 18 -31 11 -38 -14 -14 -13
-46 2 -46 6 0 1 -12 -13 -26 -13 -14 -23 -27 -21 -30 6 -11 1 -24 -12 -24 -8
0 -13 -11 -12 -28 1 -23 5 -28 21 -25 19 4 19 4 1 -8 -16 -10 -21 -9 -31 5 -7
9 -15 16 -19 16 -4 0 -14 7 -22 15 -9 8 -24 15 -34 15 -10 0 -21 7 -24 16 -8
21 -25 9 -23 -17 2 -29 69 -79 135 -101 30 -10 60 -18 66 -18 16 1 46 71 46
108 0 43 16 40 25 -4 9 -49 45 -84 88 -84 18 0 38 -5 45 -12 9 -9 15 -9 24 0
9 9 7 12 -10 12 -13 0 -22 6 -22 14 0 22 -42 49 -52 33 -5 -8 -8 -8 -8 -1 0 7
-12 15 -26 18 -21 6 -24 9 -14 22 10 11 16 12 26 3 9 -7 14 -8 14 -1 0 17 44
22 66 7 19 -12 23 -12 28 1 4 11 16 14 47 10 23 -3 43 -7 45 -9 3 -2 -5 -16
-17 -32 l-22 -27 30 15 c28 15 31 14 46 -3 18 -22 12 -54 -9 -46 -8 3 -24 1
-36 -4 -13 -5 -17 -10 -10 -11 6 -1 17 -3 22 -4 6 -1 16 -3 24 -4 8 0 21 -7
28 -14 7 -6 26 -13 41 -14 34 -1 41 -7 34 -27 -10 -25 -107 -6 -107 20 0 9
-11 14 -31 14 -16 0 -28 4 -25 9 3 5 -3 20 -14 34 -11 14 -20 30 -20 36 0 6
-4 11 -10 11 -5 0 -10 -9 -10 -20 0 -11 4 -20 9 -20 15 0 22 -32 10 -47 -7 -8
-18 -12 -26 -9 -7 3 -13 1 -13 -4 0 -6 7 -10 15 -10 8 0 15 -8 15 -19 0 -10
10 -26 23 -35 12 -9 15 -15 7 -13 -19 5 -50 -10 -50 -24 0 -6 9 -8 21 -4 18 6
20 4 14 -14 -7 -22 10 -30 18 -8 4 9 6 8 6 -2 1 -11 6 -10 21 4 17 16 20 16
20 2 0 -8 -12 -26 -28 -38 -18 -15 -21 -20 -7 -14 31 12 105 16 105 5 0 -6 14
-10 30 -10 17 0 30 -5 30 -11 0 -6 -7 -9 -15 -5 -8 3 -15 1 -15 -4 0 -6 4 -10
8 -10 5 0 9 -6 9 -14 0 -18 -46 -14 -58 5 -5 8 -9 10 -9 5 0 -6 -7 -1 -15 10
-9 12 -14 14 -15 5 0 -8 -6 -11 -17 -7 -14 6 -14 3 3 -15 10 -12 13 -19 7 -15
-9 5 -11 2 -6 -11 11 -31 24 -42 51 -42 15 0 34 -1 42 -2 8 -1 22 2 32 6 11 4
18 0 23 -16 4 -12 10 -18 14 -13 12 17 96 54 122 54 15 0 30 -7 33 -16 3 -8
10 -13 15 -9 6 3 15 -3 20 -14 7 -12 7 -21 1 -23 -5 -2 -11 -15 -12 -30 -1
-16 -8 -28 -15 -28 -7 0 -13 -6 -13 -13 0 -21 -47 -60 -76 -63 -14 -2 -32 -8
-39 -14 -8 -6 -27 -10 -42 -8 l-28 3 0 -65 c0 -55 -3 -65 -19 -68 -11 -3 -16
0 -12 7 11 17 2 13 -25 -10 -17 -14 -32 -19 -51 -15 -21 4 -26 2 -21 -9 3 -8
11 -15 17 -15 7 0 18 -11 24 -24 12 -28 89 -67 117 -60 15 3 26 -4 41 -29 13
-20 44 -45 78 -62 38 -19 56 -34 56 -47 0 -11 14 -25 35 -35 19 -9 35 -22 35
-28 0 -7 9 -20 20 -30 16 -14 23 -16 32 -7 12 12 90 17 101 6 8 -8 -39 -46
-76 -62 -39 -17 -86 -15 -93 3 -4 8 -11 15 -17 15 -6 0 -7 -3 -4 -6 3 -4 2
-15 -4 -26 -14 -26 -2 -41 23 -27 16 9 19 8 13 -1 -6 -10 -1 -11 19 -6 24 6
27 4 21 -13 -3 -11 -2 -22 3 -25 14 -8 52 5 45 17 -3 6 -1 7 6 3 17 -11 51 3
51 20 0 9 5 12 11 8 8 -4 8 -1 1 12 -5 11 -7 25 -4 33 3 9 0 11 -9 7 -8 -4 -4
1 9 10 12 9 22 22 22 29 0 7 15 18 33 25 29 11 30 13 12 20 -11 5 -14 9 -7 9
10 1 10 6 -2 23 -20 28 -21 44 -3 29 17 -14 28 -4 20 17 -3 10 12 0 33 -20 68
-65 61 -42 -9 31 -37 38 -67 77 -67 86 0 9 5 13 10 10 6 -3 10 -12 10 -19 0
-7 12 -24 28 -39 25 -24 30 -25 68 -16 33 9 41 15 37 29 -3 10 3 35 13 57 22
45 20 61 -13 126 -13 27 -22 51 -20 54 5 4 -15 24 -86 88 l-28 25 41 16 c22 9
40 21 40 26 0 6 -8 7 -17 3 -40 -16 -53 -17 -53 -3 0 10 -12 13 -47 11 -50 -3
-73 -13 -30 -13 17 0 27 -5 27 -15 0 -8 7 -15 15 -15 8 0 15 -4 15 -9 0 -5 11
-19 25 -32 13 -13 25 -30 25 -36 0 -7 7 -13 16 -13 13 0 14 -3 4 -15 -6 -8 -9
-19 -5 -25 3 -5 1 -10 -6 -10 -8 0 -8 -4 -1 -13 6 -7 9 -22 7 -32 -2 -11 -4
-24 -4 -29 -1 -5 -9 -2 -19 7 -10 10 -25 17 -33 17 -12 0 -11 2 1 10 21 14 -3
13 -35 -2 -26 -12 -32 -23 -15 -33 17 -11 11 -22 -12 -20 -12 1 -24 7 -26 13
-2 7 -9 9 -14 6 -7 -4 -8 -2 -4 5 6 9 11 9 22 0 9 -7 14 -8 14 -1 0 18 -17 23
-43 13 -17 -7 -27 -7 -31 0 -2 5 -3 4 -1 -3 1 -7 7 -12 13 -11 5 1 12 -4 15
-11 8 -20 -60 -12 -84 10 -17 15 -19 15 -25 0 -5 -14 -9 -14 -32 4 -15 12 -33
18 -44 14 -10 -3 -25 0 -33 6 -12 10 -15 10 -15 0 0 -33 26 -93 52 -120 15
-17 23 -30 17 -30 -8 0 -6 -7 4 -17 15 -17 13 -18 -19 -17 -19 1 -38 5 -42 9
-4 5 -1 5 6 1 6 -4 12 -3 12 2 0 17 -13 22 -28 9 -11 -8 -14 -8 -9 0 4 6 4 14
-1 17 -13 8 -7 153 8 170 10 13 10 16 0 16 -9 0 -8 7 4 25 9 13 16 32 16 41 0
10 11 31 24 49 21 28 57 46 135 71 11 4 10 7 -4 18 -10 7 -15 18 -12 23 4 6
-2 20 -13 33 -10 12 -22 35 -25 51 -4 16 -17 37 -29 46 -12 10 -21 23 -19 29
2 6 -8 16 -21 24 -40 21 -48 62 -9 45 10 -5 24 -7 32 -6 7 1 10 -2 7 -8 -4 -6
5 -13 19 -17 14 -3 25 -11 25 -18 0 -6 4 -6 9 3 7 11 11 10 20 -5 10 -18 10
-18 11 1 0 15 2 17 9 6 7 -11 9 -11 14 0 4 12 7 11 16 -1 8 -12 11 -12 11 -1
0 11 3 11 15 1 12 -10 18 -10 30 0 10 9 15 9 15 1 0 -18 20 -12 21 7 0 10 3
12 6 5 2 -7 9 -13 14 -13 6 0 7 5 4 10 -3 6 -1 10 4 10 6 0 11 -4 11 -10 0 -5
7 -10 16 -10 11 0 14 -6 9 -21 -8 -24 -14 -69 -9 -69 2 0 14 11 28 25 14 14
32 25 41 25 8 0 15 4 15 9 0 5 13 9 29 9 17 -1 42 7 57 17 14 9 29 13 33 9 7
-10 114 -60 148 -69 12 -3 39 -20 60 -37 27 -22 32 -28 16 -24 -19 6 -22 4
-16 -11 8 -23 39 -53 54 -53 8 0 9 -4 0 -13 -8 -10 -7 -17 2 -26 9 -10 8 -11
-6 -5 -13 5 -16 2 -10 -12 5 -13 3 -15 -7 -9 -8 5 -11 4 -7 -3 4 -5 -7 -22
-24 -36 -17 -14 -27 -26 -22 -26 5 0 26 14 47 32 29 24 49 32 79 32 22 1 42 6
44 12 2 7 -15 28 -38 47 -47 41 -74 84 -56 90 7 2 10 20 9 45 -3 39 -2 41 29
50 42 10 69 -9 63 -45 -3 -13 2 -31 11 -39 8 -9 13 -19 10 -24 -3 -4 2 -13 10
-20 12 -10 19 -10 33 1 15 12 16 12 4 -2 -11 -15 -8 -16 28 -15 22 0 40 4 40
8 0 5 9 8 20 8 11 0 20 5 20 10 0 6 -10 10 -22 10 -12 0 -19 3 -16 6 10 9 98
11 98 2 0 -4 6 -8 13 -8 7 0 26 -13 42 -30 16 -16 34 -30 39 -30 6 0 3 5 -6
11 -10 5 -18 18 -18 29 0 10 -6 21 -12 23 -7 3 9 3 35 1 27 -2 53 -6 58 -10 5
-3 9 4 9 15 0 14 5 19 16 14 13 -5 13 -7 2 -14 -10 -7 -10 -12 4 -25 16 -16
18 -16 24 -1 8 21 24 22 24 2 0 -8 4 -15 9 -15 4 0 7 -12 5 -26 -2 -25 -2 -25
16 -7 10 11 14 22 9 29 -5 6 -5 15 -1 19 4 5 -2 5 -13 1 -15 -5 -17 -4 -8 5
11 11 37 4 29 -9 -2 -4 2 -13 10 -20 16 -15 18 -4 4 32 -11 31 4 36 20 6 6
-11 16 -17 25 -14 8 4 18 -1 21 -10 10 -26 21 -18 29 20 4 26 2 39 -6 45 -18
11 -6 21 15 13 10 -4 15 -13 11 -21 -4 -11 -1 -13 11 -9 8 3 18 6 20 6 3 0 2
6 -2 12 -13 20 -3 81 14 94 18 13 34 -3 71 -71 23 -44 27 -38 8 15 -18 51 -54
98 -90 117 -18 9 -27 18 -20 20 18 6 134 -27 151 -43 8 -8 17 -12 20 -9 4 3 0
10 -8 15 -12 8 -12 10 -2 10 8 0 16 -9 19 -20 4 -16 8 -18 19 -9 11 9 18 8 30
-2 10 -8 40 -14 73 -14 98 1 92 -14 91 217 -1 132 -5 208 -13 216 -8 10 -7 16
3 22 8 5 12 11 9 15 -3 3 -14 -4 -24 -15 -10 -11 -13 -20 -7 -20 21 0 1 -28
-25 -35 -44 -11 -132 -66 -158 -98 -14 -18 -30 -38 -36 -44 -5 -7 -14 -13 -20
-13 -6 0 6 19 25 42 35 40 42 63 11 38 -8 -7 -15 -8 -15 -2 0 5 30 22 68 38
118 50 170 104 158 167 -4 20 0 43 9 61 12 22 15 70 15 226 0 197 0 198 -22
204 -41 11 -51 7 -45 -15 5 -20 5 -20 -13 -4 -11 10 -23 34 -26 54 -7 37 -23
75 -24 54z m-940 -853 c0 -5 -4 -10 -8 -10 -19 0 -8 -40 14 -55 21 -13 27 -14
38 -2 8 7 15 22 17 32 2 10 13 21 25 25 18 7 20 5 19 -23 -2 -36 21 -67 52
-67 36 0 73 -18 73 -36 0 -10 6 -14 14 -11 8 3 22 0 31 -7 16 -11 12 -14 -31
-19 -27 -4 -60 -10 -73 -13 -16 -5 -22 -4 -18 3 4 6 -4 14 -19 17 -17 5 -24
12 -20 21 4 11 -2 15 -18 15 -13 0 -37 7 -52 15 -16 8 -22 15 -14 15 13 0 13
1 0 10 -8 5 -22 10 -30 10 -13 0 -13 -1 0 -10 11 -7 11 -10 2 -10 -7 0 -10 -4
-7 -10 9 -14 -39 -12 -53 2 -9 9 -12 9 -12 -3 0 -11 -10 -16 -29 -17 -22 0
-28 3 -24 14 3 8 12 14 21 14 13 0 12 3 -4 21 -16 17 -16 22 -4 29 8 6 20 10
25 10 6 0 24 12 40 25 32 27 45 31 45 15z"/>
<path d="M2473 4062 l-21 -29 24 -26 c14 -15 21 -32 18 -41 -4 -9 0 -18 10
-22 9 -3 16 -13 16 -21 0 -9 8 -22 18 -29 15 -12 15 -15 2 -23 -16 -11 -16
-10 20 -32 16 -10 34 -13 50 -8 25 7 25 7 2 8 -13 1 -21 5 -17 11 3 5 12 7 20
3 8 -3 15 -1 16 3 0 5 2 17 4 27 2 10 -3 21 -11 24 -8 3 -14 19 -14 38 0 43
-16 53 -44 26 -32 -30 -40 -26 -19 9 14 24 15 33 5 39 -7 4 -10 15 -6 24 8 21
-12 47 -35 47 -10 0 -27 -13 -38 -28z"/>
<path d="M6160 3923 c1 -20 18 -31 43 -29 26 3 28 1 22 -21 -4 -19 -1 -26 15
-30 15 -4 19 -11 14 -22 -3 -9 -7 -22 -7 -29 0 -8 -17 -21 -38 -30 -36 -15
-66 -48 -33 -35 10 4 12 0 8 -11 -4 -10 -1 -16 8 -16 21 0 58 29 58 46 0 10 6
13 19 9 12 -3 21 0 25 10 3 9 11 13 17 10 7 -5 4 -13 -7 -26 -9 -11 -14 -22
-11 -26 4 -3 7 -1 7 5 0 7 7 12 15 12 8 0 15 5 15 11 0 5 5 7 11 4 6 -4 8 -9
5 -12 -3 -3 1 -18 8 -32 8 -14 17 -34 20 -45 4 -10 12 -16 20 -13 7 3 18 1 24
-5 11 -11 52 -2 52 13 0 5 -9 14 -20 21 -11 7 -20 23 -20 35 0 13 -6 23 -12
23 -9 0 -8 3 2 10 11 7 12 12 3 21 -8 8 -14 6 -23 -11 l-12 -23 -20 32 c-11
17 -26 31 -34 31 -30 0 -1 39 40 54 25 9 17 15 -23 19 -17 2 -46 14 -64 27
-37 28 -67 33 -74 13 -5 -11 -9 -11 -29 2 -13 8 -24 12 -24 8z"/>
<path d="M3740 3790 c-14 -11 -31 -20 -38 -20 -7 0 -15 -6 -18 -14 -3 -8 -19
-18 -35 -21 -32 -7 -34 -9 -43 -48 -4 -18 -3 -26 3 -23 5 4 13 2 16 -4 4 -6
15 -8 25 -5 12 4 19 -1 23 -14 2 -11 20 -24 43 -31 22 -7 47 -20 57 -29 13
-11 38 -16 83 -16 54 0 63 2 59 16 -4 11 9 24 42 42 51 29 113 81 113 96 0 15
-28 33 -34 22 -5 -7 -15 -7 -33 0 -30 11 -88 -4 -101 -27 -7 -12 -11 -10 -22
11 -7 14 -20 25 -27 25 -8 0 -11 -5 -8 -10 4 -6 4 -24 0 -40 -7 -34 -75 -94
-83 -72 -2 6 -11 12 -21 12 -9 0 -26 6 -36 14 -18 13 -18 14 5 26 17 9 19 14
10 20 -9 6 -5 12 16 24 l29 15 -30 1 -29 0 34 29 c39 33 39 50 0 21z"/>
<path d="M3035 3709 c-41 -30 -138 -54 -173 -43 -14 5 -15 4 -2 -5 10 -7 11
-11 3 -11 -24 0 -13 -21 17 -34 17 -7 27 -15 24 -19 -4 -4 -13 -2 -21 4 -7 6
-13 8 -13 5 0 -4 -12 6 -26 21 -24 27 -25 27 -12 3 8 -16 12 -60 11 -128 -1
-91 1 -101 13 -85 14 17 15 17 30 -4 9 -13 22 -23 30 -23 7 0 21 -13 31 -30 9
-16 21 -30 25 -30 4 0 8 -6 8 -14 0 -8 20 -19 48 -26 26 -8 50 -19 55 -26 5
-8 19 -11 42 -7 39 6 47 -7 13 -22 -13 -6 -22 -18 -22 -28 1 -9 -2 -17 -7 -17
-20 0 -7 -20 16 -26 14 -3 25 -10 25 -15 0 -5 8 -9 18 -9 14 0 15 -2 2 -10
-11 -7 -8 -8 13 -6 32 3 49 16 21 16 -15 1 -13 4 9 16 22 12 35 13 59 5 17 -6
34 -8 39 -5 5 3 9 -2 9 -10 0 -9 4 -16 9 -16 5 0 16 -14 25 -30 13 -27 13 -32
-1 -45 -18 -19 -12 -40 16 -55 22 -11 30 3 9 16 -22 14 29 23 88 15 58 -8 87
-1 94 24 6 20 45 75 57 79 7 3 32 -13 55 -34 30 -29 50 -40 72 -40 20 0 36 -7
44 -20 7 -12 18 -17 29 -13 12 5 14 3 8 -8 -7 -12 -6 -12 7 -1 12 10 21 10 43
-2 49 -25 68 -96 26 -96 -14 -1 -14 -2 2 -14 13 -10 15 -15 5 -18 -7 -3 4 -8
25 -12 24 -4 37 -12 37 -22 0 -26 24 -10 45 29 13 24 16 40 10 45 -22 16 -67
93 -81 138 -28 93 -12 132 48 120 18 -4 41 -8 50 -9 9 -1 15 -4 12 -8 -2 -4 3
-10 12 -13 8 -3 13 -2 10 2 -2 4 28 7 67 6 l72 -2 -65 7 c-69 8 -180 56 -180
77 0 20 -13 22 -45 7 l-30 -14 28 4 c15 2 30 0 33 -4 3 -5 2 -9 -3 -10 -38 -4
-63 -8 -93 -14 -31 -8 -34 -7 -22 8 11 13 10 15 -7 10 -16 -4 -21 -1 -21 16 0
15 -6 21 -21 21 -18 0 -19 2 -9 15 10 13 10 19 -5 35 -10 11 -22 17 -28 13 -6
-4 -25 -7 -42 -7 -22 -1 -30 -5 -29 -18 1 -10 -4 -18 -12 -18 -22 0 -25 19 -4
30 16 9 18 14 8 29 -8 14 -21 17 -54 15 -29 -2 -48 2 -59 12 -18 18 -20 34 -4
34 6 0 8 7 5 17 -8 19 9 33 42 33 12 0 22 5 22 10 0 20 68 9 121 -19 55 -29
122 -54 87 -31 -16 10 -16 13 2 43 11 18 20 40 20 51 0 15 -5 17 -27 12 -65
-16 -82 -17 -103 -6 -18 10 -20 14 -9 21 11 7 9 9 -7 9 -24 0 -74 22 -74 33 0
4 -9 3 -20 -3 -18 -10 -20 -8 -20 20 0 37 -13 38 -47 4 -15 -15 -46 -35 -69
-45 -48 -22 -131 -32 -139 -18 -4 5 15 10 42 11 36 1 40 2 16 5 -18 2 -33 8
-33 12 0 5 -14 15 -32 22 -24 10 -33 10 -36 1 -2 -7 -8 -10 -13 -6 -5 3 -9 -2
-9 -11 0 -9 -5 -13 -10 -10 -6 4 -8 11 -5 16 7 10 -7 17 -47 22 -38 4 -104 66
-113 105 -3 18 -10 32 -13 31 -4 0 -25 -14 -47 -30z m7 -138 c-3 -15 26 -71
37 -71 5 0 7 10 3 22 -3 13 -1 19 5 15 6 -4 15 4 21 17 7 16 21 25 44 28 33 5
78 -8 78 -24 0 -4 6 -8 14 -8 8 0 21 -6 28 -14 8 -8 23 -15 33 -17 10 -2 18
-8 18 -14 -1 -5 4 -17 12 -25 7 -8 16 -41 20 -72 4 -31 13 -59 20 -62 10 -4
20 -32 31 -91 1 -5 3 -14 4 -20 1 -5 2 -13 1 -17 -2 -14 11 -8 27 12 l17 21
13 -21 c7 -12 8 -20 2 -20 -5 0 -10 -7 -10 -15 0 -19 -42 -29 -77 -20 -16 5
-33 9 -40 11 -22 4 -70 43 -99 81 -27 33 -38 46 -85 88 -23 22 -41 18 -37 -7
2 -19 -2 -24 -29 -26 -29 -3 -33 0 -33 22 0 13 -6 27 -12 29 -10 4 -9 8 2 17
13 10 13 11 0 7 -9 -2 -15 -15 -15 -30 0 -31 -18 -40 -24 -11 -2 10 -8 22 -13
25 -7 4 -6 14 1 28 7 12 9 26 6 31 -3 6 -2 10 3 10 12 0 14 68 2 75 -13 8 10
67 24 62 6 -3 10 -10 8 -16z"/>
<path d="M2073 3522 c10 -10 17 -20 17 -23 0 -2 -25 -2 -55 -1 -44 3 -55 1
-55 -11 0 -19 20 -26 45 -16 11 4 14 8 6 8 -8 1 -12 4 -8 7 3 3 14 1 24 -4 17
-10 17 -11 -2 -18 -11 -4 -23 -12 -26 -17 -4 -5 -14 -5 -26 1 -16 9 -27 6 -56
-14 -40 -26 -43 -34 -26 -51 11 -11 49 -6 49 7 0 5 -10 6 -22 2 -15 -4 -19 -2
-13 7 4 7 17 10 30 7 16 -4 38 6 79 35 55 39 72 43 41 9 -9 -10 -18 -28 -20
-41 -2 -13 -10 -43 -16 -67 -10 -34 -9 -46 1 -55 9 -9 11 -9 6 0 -3 6 4 22 15
35 31 34 72 158 53 158 -8 0 -14 10 -13 23 0 21 1 21 9 2 7 -19 8 -19 15 -1 9
21 -8 36 -44 36 -23 0 -23 -1 -8 -18z"/>
<path d="M2286 3299 c-8 -12 -26 -23 -39 -24 -14 -2 -34 -8 -45 -14 -11 -6
-42 -18 -68 -27 -32 -10 -61 -30 -83 -55 -39 -45 -51 -48 -51 -16 -1 20 -2 19
-17 -8 -8 -16 -23 -39 -32 -50 -13 -16 -11 -15 10 3 14 12 34 22 44 22 10 0
29 10 42 22 23 22 33 12 11 -10 -7 -7 -8 -12 -3 -12 5 0 -2 -11 -15 -25 -12
-13 -26 -22 -31 -20 -4 3 -10 1 -13 -4 -4 -5 -2 -12 3 -15 10 -7 121 88 138
118 7 12 12 18 13 14 0 -4 11 -3 25 2 16 6 25 6 25 0 0 -6 5 -10 11 -10 7 0 9
9 5 23 -3 13 0 32 7 41 11 15 13 8 12 -43 0 -34 3 -61 7 -61 7 0 12 33 11 69
-1 9 2 10 9 3 5 -5 8 -35 6 -66 -3 -51 -1 -56 16 -54 16 2 20 12 21 53 2 28 4
55 5 60 5 22 -1 36 -12 29 -6 -4 -4 3 5 17 19 26 23 59 8 59 -6 0 -17 -10 -25
-21z"/>
<path d="M1380 3259 c0 -6 14 -24 30 -41 17 -16 30 -34 30 -39 0 -5 9 -9 20
-9 14 0 22 -11 30 -39 6 -25 18 -42 30 -46 12 -4 22 -19 26 -43 4 -20 13 -43
21 -50 13 -13 18 -42 8 -42 -11 0 -45 66 -46 90 -1 23 -2 22 -8 -5 l-7 -30 -7
29 c-10 34 -84 106 -110 106 -15 0 -18 -5 -13 -25 4 -14 3 -25 -1 -25 -18 1
-28 17 -31 50 -5 54 -48 88 -117 95 -5 1 -29 7 -52 15 -35 11 -53 11 -103 0
-33 -7 -60 -16 -60 -20 0 -4 -9 -10 -20 -13 -11 -3 -20 -11 -20 -17 0 -12 49
-5 60 8 6 8 70 10 70 2 -1 -16 -21 -31 -65 -48 -30 -12 -51 -27 -54 -38 -3
-17 -2 -17 24 0 l27 18 -7 -34 -7 -33 21 24 c12 13 24 21 29 16 4 -4 1 -10 -5
-12 -7 -3 -13 -10 -13 -18 0 -7 -6 -18 -14 -24 -11 -9 -15 -8 -20 5 -5 13 -9
15 -18 6 -9 -9 -7 -16 8 -30 25 -25 66 -12 83 25 9 20 14 24 21 14 6 -11 10
-9 19 7 7 14 8 23 1 27 -5 3 -14 14 -19 24 -8 14 -6 17 11 16 12 -1 25 -11 30
-24 6 -18 13 -21 30 -15 30 9 30 8 19 35 -7 17 -10 19 -10 7 -1 -10 -6 -18
-12 -18 -6 0 -9 8 -7 18 6 22 -14 42 -42 42 -11 0 -20 5 -20 10 0 19 73 10
127 -16 29 -15 53 -30 53 -34 0 -4 -9 -15 -20 -25 -11 -10 -20 -13 -20 -7 0 7
5 12 10 12 6 0 10 5 10 10 0 6 -9 10 -19 10 -11 0 -22 6 -25 13 -3 6 -3 2 0
-10 7 -31 -12 -63 -38 -63 -17 0 -19 -3 -10 -12 16 -16 15 -28 -1 -28 -35 0
-85 -90 -79 -141 2 -8 -9 -21 -23 -27 -14 -6 -25 -20 -26 -29 0 -10 -2 -28 -3
-40 -1 -12 3 -24 11 -27 7 -3 13 -11 13 -18 0 -19 -41 -57 -56 -51 -21 8 -17
-3 11 -31 34 -34 32 -50 -5 -42 -25 5 -30 2 -30 -15 0 -24 25 -35 44 -20 23
19 27 -3 7 -39 -23 -43 -41 -50 -41 -16 0 21 -4 25 -25 24 -29 -3 -30 -4 -10
-25 12 -12 13 -18 4 -29 -9 -11 -15 -8 -33 19 -21 31 -66 50 -66 28 0 -11 7
-20 68 -85 19 -20 28 -36 20 -36 -7 0 2 -10 19 -22 33 -23 37 -38 15 -46 -7
-2 -15 5 -19 15 -4 10 -15 24 -25 31 -10 7 -16 17 -13 22 5 9 -33 35 -40 28
-2 -2 5 -21 16 -43 11 -22 17 -45 15 -52 -3 -6 4 -15 15 -18 10 -4 17 -10 14
-15 -3 -4 5 -10 18 -14 35 -9 39 -7 32 15 -6 19 -4 21 14 16 12 -3 19 -1 16 3
-3 5 0 12 6 16 6 3 15 1 19 -6 4 -7 16 -9 28 -6 12 4 23 2 28 -5 4 -8 3 -9 -4
-5 -7 4 -12 3 -12 -3 0 -5 5 -13 10 -16 6 -3 10 -12 10 -18 0 -8 -3 -8 -9 1
-6 10 -10 8 -15 -10 -6 -22 -7 -23 -21 -4 -15 19 -15 19 -15 -1 0 -12 6 -24
13 -27 6 -3 2 -3 -10 0 -23 5 -23 5 -6 -25 20 -33 73 -50 73 -22 0 10 3 12 10
5 7 -7 6 -22 -5 -47 -8 -20 -15 -47 -15 -61 0 -24 -23 -41 -41 -30 -5 3 -8 1
-7 -4 2 -5 -8 -19 -22 -32 l-25 -22 30 19 c17 10 42 25 56 32 22 11 27 22 31
61 4 34 14 60 36 88 17 21 29 42 27 46 -3 3 -2 4 2 1 9 -7 34 16 28 25 -3 5 3
6 14 3 10 -3 22 1 27 8 5 9 2 11 -9 6 -9 -3 -19 -2 -22 3 -4 6 0 10 7 10 8 0
9 3 3 8 -16 11 -3 82 15 82 18 0 19 46 2 70 -44 60 -55 163 -24 214 17 29 95
66 138 66 12 0 65 11 118 25 66 17 126 25 189 26 50 1 84 3 75 6 -10 2 -18 11
-18 18 0 7 -5 15 -11 17 -5 2 -12 16 -13 31 -2 15 -13 38 -25 51 -11 12 -21
27 -21 33 0 6 -3 13 -7 15 -5 2 -19 24 -31 50 -13 25 -32 48 -42 51 -16 4 -15
-2 8 -47 15 -28 25 -54 24 -58 -1 -5 3 -8 8 -8 6 0 10 -8 10 -18 0 -10 5 -23
12 -30 6 -6 8 -15 4 -19 -4 -4 -12 0 -17 10 -6 9 -15 17 -22 17 -7 0 -25 29
-42 65 -16 36 -32 65 -36 65 -4 0 -12 13 -19 29 -7 17 -22 32 -36 35 -13 4
-24 11 -24 16 0 5 -7 7 -15 4 -10 -4 -15 0 -15 11 0 9 -13 30 -29 46 -32 31
-41 35 -41 18z m-104 -243 c0 -1 13 -18 29 -39 16 -22 22 -35 13 -32 -23 9
-31 -35 -10 -52 15 -13 14 -14 -15 -9 -36 6 -57 -12 -24 -21 11 -3 18 -9 15
-14 -3 -5 -1 -9 4 -9 6 0 12 -6 15 -13 3 -8 -6 -12 -27 -12 -29 0 -31 -2 -32
-40 0 -41 -22 -108 -23 -72 -1 9 -6 17 -12 17 -5 0 -7 -6 -3 -12 5 -10 3 -10
-7 0 -12 11 -12 14 1 23 13 8 13 11 -3 20 -14 8 -15 14 -7 24 9 11 7 12 -7 9
-14 -4 -22 6 -35 37 -14 33 -14 38 -3 29 8 -7 15 -19 15 -26 0 -8 2 -14 4 -14
2 0 11 -3 20 -6 9 -3 16 -1 16 5 0 6 -6 11 -14 11 -8 0 -17 8 -20 18 -7 22 -4
102 4 102 4 0 12 16 20 35 9 24 20 35 34 35 18 0 18 2 6 10 -11 8 -7 9 15 4
17 -4 30 -7 31 -8z"/>
<path d="M2373 3100 c-18 -11 -39 -17 -47 -14 -7 3 -16 -2 -20 -12 -6 -14 -8
-15 -29 -1 -21 13 -25 13 -46 -4 -13 -11 -36 -19 -52 -19 -24 0 -72 -15 -89
-28 -2 -2 2 -7 10 -12 11 -7 11 -12 2 -23 -14 -16 -6 -47 12 -47 6 1 25 18 41
39 33 43 68 70 59 47 -3 -8 0 -17 6 -21 7 -4 10 -1 8 10 -2 12 5 19 20 21 13
2 21 0 18 -4 -2 -4 5 -9 17 -9 17 -2 18 0 7 7 -19 12 -14 15 47 33 51 15 55
15 98 -6 25 -12 43 -27 41 -34 -7 -16 25 -26 38 -12 8 9 6 10 -7 5 -13 -4 -17
-2 -15 6 5 15 -5 27 -44 52 -16 10 -28 25 -28 32 0 19 -9 18 -47 -6z"/>
<path d="M2743 3104 c-3 -9 2 -31 11 -50 18 -40 20 -54 6 -54 -5 0 -10 6 -10
13 0 22 -25 67 -35 64 -5 -2 -10 -24 -10 -48 0 -24 -8 -61 -18 -80 -21 -45
-106 -118 -174 -150 -52 -24 -80 -51 -42 -42 21 6 27 -12 7 -20 -8 -3 -6 -6 5
-6 9 -1 17 -5 17 -10 0 -5 8 -8 17 -7 23 1 30 -35 8 -46 -27 -16 1 -38 41 -33
37 5 44 -8 23 -47 -9 -17 -8 -24 5 -33 9 -7 16 -18 16 -24 0 -7 8 -11 18 -10
49 5 59 -12 63 -103 0 -21 15 -24 22 -5 4 9 8 9 15 -2 6 -8 34 -16 64 -19 59
-5 88 11 88 49 0 18 -1 19 -25 3 -15 -10 -34 -14 -49 -10 -14 3 -28 2 -31 -4
-3 -5 -1 -10 6 -10 7 0 10 -2 8 -5 -8 -7 -49 7 -44 15 3 4 -2 11 -11 14 -10 4
-13 2 -9 -7 4 -6 -2 -1 -13 13 -23 28 -22 79 4 118 8 13 16 38 17 57 2 19 18
56 37 85 19 28 45 70 57 93 l21 42 -31 28 c-31 28 -31 29 -12 43 10 8 23 14
28 14 4 0 5 5 2 10 -4 6 -11 8 -16 5 -14 -9 -10 7 6 29 8 11 12 22 7 25 -11 9
-40 100 -33 104 3 2 1 2 -6 1 -7 -2 -15 1 -18 6 -9 15 -25 12 -32 -6z"/>
<path d="M3160 3026 c0 -9 -11 -18 -25 -22 -14 -3 -25 -11 -24 -18 4 -21 -14
-70 -33 -91 -16 -16 -18 -17 -13 -2 4 9 3 17 -2 17 -14 0 -53 -92 -53 -125 0
-28 -1 -28 -16 -9 -15 18 -15 18 -9 -4 4 -12 8 -33 9 -47 2 -14 5 -27 8 -30 7
-7 -11 -56 -38 -110 -28 -54 -39 -99 -22 -89 29 16 48 38 48 55 0 10 5 21 12
25 8 5 9 2 5 -10 -4 -10 -3 -15 3 -11 15 9 23 74 11 89 -13 15 12 75 32 78 7
0 17 2 23 2 16 2 44 32 44 48 0 7 7 26 15 41 15 29 6 67 -15 67 -15 0 -12 37
5 53 8 8 11 18 7 21 -3 4 1 4 10 1 9 -4 19 -1 23 5 11 18 14 69 4 75 -5 4 -9
-1 -9 -9z"/>
<path d="M6398 2818 c-29 -27 -96 -60 -107 -53 -5 2 -16 -4 -26 -15 -10 -11
-29 -20 -42 -20 -26 0 -29 9 -10 29 10 11 9 13 -6 7 -10 -3 -25 -6 -33 -6 -8
0 -14 -7 -14 -15 0 -8 -4 -15 -10 -15 -5 0 -10 4 -10 9 0 6 -12 8 -27 7 -47
-6 -49 -8 -18 -15 17 -3 30 -13 30 -21 0 -11 10 -14 32 -13 18 2 34 -1 38 -6
7 -13 -53 -25 -68 -14 -7 5 -22 8 -34 7 -12 0 -20 3 -17 8 3 5 -3 12 -14 15
-12 3 -18 11 -15 19 4 10 -4 10 -35 -4 -22 -9 -38 -21 -34 -26 3 -5 -3 -6 -14
-2 -15 6 -16 5 -7 -5 10 -10 17 -9 34 7 13 10 19 14 16 7 -4 -7 0 -13 10 -16
11 -2 3 -7 -20 -12 -30 -6 -42 -4 -59 11 -12 11 -18 13 -13 5 6 -10 2 -12 -16
-6 -13 4 -30 12 -37 18 -11 9 -11 12 5 18 12 5 2 8 -29 8 -25 1 -54 4 -64 8
-12 4 -15 3 -10 -5 4 -7 16 -12 27 -12 24 0 83 -29 75 -37 -3 -3 12 -18 34
-34 22 -16 46 -39 54 -52 21 -31 32 -87 17 -87 -6 0 -11 -5 -11 -11 0 -5 5 -7
12 -3 8 5 9 2 3 -12 -5 -10 -9 -33 -9 -51 0 -20 -4 -30 -10 -26 -6 4 -5 -1 3
-10 7 -9 20 -17 27 -17 8 0 14 -4 14 -9 0 -5 6 -11 14 -14 21 -8 13 51 -9 67
-13 9 -15 15 -7 20 7 4 12 2 12 -3 0 -14 27 -14 36 0 3 6 1 15 -6 19 -8 5 -7
9 4 13 9 4 16 2 16 -3 0 -5 8 -7 18 -3 16 6 16 5 1 -13 -19 -22 -14 -44 9 -43
10 0 12 3 5 6 -8 3 -9 10 -4 21 5 9 13 30 17 46 5 16 17 34 26 40 14 8 23 4
45 -21 15 -18 33 -40 40 -50 11 -17 12 -17 12 1 1 10 -13 35 -31 55 -29 33
-30 36 -12 39 10 2 36 22 58 44 21 22 44 37 52 34 8 -3 13 0 11 6 -1 7 5 13
13 14 36 3 40 5 40 17 0 7 13 28 29 47 l28 35 -25 2 c-14 0 -32 -5 -40 -13
-18 -19 -29 -10 -13 10 10 11 8 15 -6 19 -12 3 -8 5 10 6 15 0 27 5 27 10 0 5
9 12 19 16 10 3 21 15 24 25 6 25 5 25 -25 -2z"/>
<path d="M2243 2806 c8 -21 -16 -39 -31 -24 -17 17 -15 5 5 -37 12 -25 23 -35
39 -35 34 0 38 -17 6 -25 -39 -11 -62 -13 -62 -4 0 11 -50 17 -57 6 -3 -5 -1
-7 4 -4 6 4 13 -3 16 -15 8 -28 4 -32 -26 -24 -33 8 -76 53 -99 104 -21 47
-32 51 -64 21 l-22 -20 30 -57 c16 -31 34 -56 41 -54 6 2 4 -5 -6 -16 -21 -23
-22 -32 -3 -32 7 0 19 -7 26 -15 9 -10 9 -15 1 -15 -6 0 -11 -10 -11 -23 0
-24 -37 -67 -58 -67 -6 0 -16 -10 -23 -21 -9 -18 -13 -19 -20 -8 -6 9 -8 -7
-7 -46 l3 -60 45 3 c55 4 95 -22 105 -68 4 -17 11 -30 16 -30 5 0 9 -6 9 -14
0 -8 9 -18 20 -21 23 -7 50 10 50 31 0 8 5 14 10 14 6 0 6 7 -2 19 -6 10 -18
17 -25 14 -17 -7 -16 7 2 31 8 11 15 30 15 42 0 12 9 33 20 47 11 14 20 29 20
33 0 4 -7 -1 -16 -12 -14 -18 -15 -17 -11 21 3 26 0 45 -9 53 -17 15 -25 15
-21 0 4 -21 -51 -18 -56 3 -7 25 15 63 38 67 11 2 31 15 45 28 26 24 50 25 88
5 15 -8 23 -7 31 3 6 7 7 17 3 21 -4 5 -2 5 5 1 6 -3 14 -2 18 4 3 6 17 8 31
6 33 -6 30 10 -5 28 -23 13 -41 34 -41 51 0 10 59 39 78 37 42 -3 22 15 -22
20 -25 3 -64 15 -87 27 -31 17 -40 18 -36 7z"/>
<path d="M6565 2708 c-8 -18 -25 -46 -39 -63 -14 -16 -30 -35 -36 -42 -7 -8
-4 -14 10 -18 21 -7 17 -30 -7 -39 -11 -4 -13 -2 -10 9 4 8 2 17 -3 20 -6 4
-10 2 -10 -4 0 -5 -14 -12 -30 -16 -22 -5 -30 -12 -28 -24 4 -27 -40 -94 -58
-87 -8 3 -12 1 -9 -4 6 -10 -29 -50 -46 -50 -6 0 -26 -12 -44 -26 l-34 -25 -7
35 c-3 20 -4 42 -1 51 4 8 2 17 -2 20 -9 5 -33 -50 -26 -57 2 -2 6 -22 9 -43
3 -31 -1 -45 -17 -62 -21 -23 -11 -33 11 -11 9 9 12 8 12 -5 0 -9 5 -17 10
-17 6 0 10 16 10 35 0 32 7 40 33 36 4 0 7 5 7 11 0 9 3 9 9 -1 8 -12 14 -12
39 -2 46 19 95 58 113 89 9 15 20 27 25 27 5 0 18 6 29 12 17 10 17 12 3 13
-9 0 -19 -6 -21 -12 -3 -8 -6 -6 -6 4 -1 10 8 22 19 28 11 6 20 15 20 21 0 6
-4 7 -10 4 -5 -3 -10 1 -10 10 0 9 4 14 9 11 14 -9 43 19 46 45 1 13 3 30 4
37 0 7 6 10 11 7 6 -3 10 -1 10 5 0 7 10 26 22 43 20 27 22 28 29 11 6 -17 8
-16 18 10 9 23 9 31 -1 38 -24 15 -39 8 -53 -24z"/>
<path d="M5780 2580 c-16 -4 -25 -13 -25 -25 0 -11 -8 -21 -19 -23 -10 -2 -16
0 -12 6 3 5 -5 14 -19 20 -21 10 -28 7 -56 -19 -18 -16 -38 -28 -45 -25 -14 5
-30 -44 -16 -53 5 -3 12 -13 15 -21 4 -11 7 -10 12 8 4 12 14 22 21 22 18 0
18 -8 -1 -26 -8 -8 -12 -21 -9 -29 4 -10 0 -15 -11 -15 -10 0 -13 -5 -9 -12 5
-8 13 -4 26 12 15 18 21 21 27 11 6 -9 11 -10 15 -2 4 6 5 15 2 20 -4 5 7 12
24 16 32 7 46 4 43 -7 -4 -12 45 -9 52 2 3 6 11 10 17 10 6 0 5 -7 -3 -17 -8
-10 -9 -14 -2 -10 6 4 14 3 18 -3 3 -5 25 -10 48 -9 23 0 36 3 29 6 -16 6 3
33 24 33 19 0 18 26 -1 34 -12 4 -13 11 -4 32 7 21 7 31 -4 41 -16 17 -103 31
-137 23z"/>
<path d="M4433 2454 c-18 -8 -33 -19 -33 -25 0 -8 4 -8 14 0 7 6 20 9 28 6 19
-7 19 -35 0 -35 -8 0 -12 6 -8 15 7 19 -1 19 -19 1 -12 -12 -12 -16 0 -26 24
-20 19 -43 -7 -35 -36 11 -44 23 -30 45 7 11 8 20 3 20 -11 0 -36 -30 -25 -30
5 0 3 -4 -5 -9 -11 -7 -9 -10 7 -15 21 -7 25 -15 37 -75 6 -30 5 -33 -10 -27
-15 5 -17 2 -12 -23 7 -34 -25 -84 -47 -75 -8 3 -16 2 -19 -3 -3 -5 13 -9 36
-10 29 -1 37 1 27 7 -14 9 -7 14 14 11 4 -1 14 3 21 9 8 7 16 5 28 -8 18 -19
8 -38 -30 -59 -19 -11 -24 -10 -33 5 -11 16 -11 16 -6 0 3 -11 0 -18 -8 -18
-8 0 -26 -14 -40 -31 -14 -17 -30 -28 -35 -25 -5 3 -12 -1 -15 -10 -9 -24 -8
-26 15 -14 11 7 23 9 27 6 3 -3 0 -6 -7 -6 -7 0 -11 -6 -8 -12 3 -8 -5 -14
-19 -14 -13 -1 -22 1 -20 5 2 3 0 15 -4 26 -8 20 -8 19 -16 -2 -9 -21 -12 -23
-34 -23 -6 0 -10 -8 -8 -17 3 -19 -40 -46 -56 -35 -7 4 -4 8 7 10 9 2 15 8 12
13 -4 5 -1 9 4 9 6 0 11 7 11 15 0 12 -4 14 -19 5 -22 -11 -34 0 -25 24 4 11
0 16 -12 16 -18 1 -18 1 -1 14 13 10 15 15 5 19 -9 3 -8 9 7 22 11 9 15 14 8
10 -7 -3 -17 3 -22 14 -7 13 -7 21 -1 23 6 2 3 13 -6 26 -9 13 -22 21 -30 18
-8 -3 -14 -1 -14 3 0 5 -8 8 -17 7 -10 -2 -17 -6 -15 -9 1 -4 2 -12 2 -18 0
-5 5 -7 12 -3 8 5 9 2 5 -9 -3 -9 -2 -19 3 -22 6 -4 10 -11 10 -18 0 -15 -18
3 -34 35 -7 12 -19 22 -26 20 -11 -3 -11 0 1 14 13 16 12 16 -9 5 -17 -9 -21
-16 -13 -25 6 -7 8 -16 4 -19 -10 -11 -45 -8 -38 3 14 23 -15 7 -49 -27 -21
-21 -43 -38 -49 -38 -7 0 -12 -4 -12 -10 0 -5 -3 -14 -6 -20 -13 -22 -18 -64
-9 -70 6 -4 7 -11 4 -17 -4 -6 1 -8 15 -3 13 4 21 2 21 -5 0 -6 -4 -9 -9 -5
-5 3 -12 1 -16 -5 -3 -5 -1 -10 5 -10 6 0 9 -4 6 -9 -4 -5 12 -1 33 10 50 24
50 24 44 -3 -5 -19 -3 -21 8 -10 7 6 14 35 15 62 2 56 19 87 39 70 9 -7 15 -6
22 2 17 22 22 46 12 52 -5 2 -4 3 3 2 7 -2 12 -10 10 -20 -2 -9 2 -16 8 -16 6
0 9 -13 8 -30 -2 -32 -7 -36 -26 -20 -9 7 -9 7 -2 -2 6 -7 10 -16 10 -21 0 -4
-4 -5 -10 -2 -5 3 -10 1 -10 -4 0 -14 16 -14 41 -1 25 14 25 -1 -1 -23 -11 -9
-20 -23 -20 -31 0 -22 -23 -25 -44 -7 -11 9 -16 11 -13 4 4 -6 1 -15 -6 -20
-8 -4 -18 -19 -22 -33 -7 -22 -6 -23 9 -11 14 12 18 9 31 -23 8 -20 18 -36 21
-36 3 0 3 4 -1 10 -7 11 16 50 29 50 4 0 3 -7 -4 -15 -16 -20 -5 -32 14 -16 8
7 20 10 25 6 6 -3 8 0 5 8 -3 9 3 16 15 20 12 3 21 3 21 1 0 -9 -35 -44 -45
-44 -22 0 -35 -23 -23 -38 10 -11 8 -18 -11 -33 -13 -10 -28 -16 -34 -12 -6 4
-7 1 -2 -6 4 -7 16 -10 27 -7 23 5 58 -22 41 -32 -6 -4 -13 -16 -17 -27 -5
-16 -1 -21 14 -22 11 -1 20 4 20 13 0 20 9 18 31 -8 24 -30 25 -47 0 -19 -19
22 -20 22 -30 3 -6 -11 -8 -22 -4 -26 6 -6 -56 -66 -69 -66 -13 0 -9 18 7 34
9 9 11 17 5 21 -5 3 -10 1 -10 -4 0 -6 -6 -11 -14 -11 -7 0 -16 -10 -19 -22
-6 -20 -7 -20 -32 -4 -15 10 -29 15 -32 12 -3 -3 -15 1 -27 9 -11 8 -30 15
-41 14 -16 0 -15 -2 7 -10 19 -7 26 -16 23 -30 -2 -10 0 -19 6 -19 5 0 9 5 9
10 0 6 5 10 11 10 5 0 7 -4 4 -10 -4 -6 5 -10 19 -10 24 0 25 -2 14 -22 -7
-12 -19 -29 -27 -37 -17 -19 0 -26 28 -12 32 18 36 13 10 -15 -13 -14 -19 -25
-14 -24 6 1 17 2 25 1 12 -1 12 -4 -2 -12 -10 -5 -18 -17 -18 -25 0 -14 -2
-14 -16 0 -19 20 -25 20 -18 2 3 -9 -4 -20 -17 -27 -17 -9 -24 -9 -27 0 -2 6
-10 11 -18 11 -17 0 -18 12 -1 29 10 10 9 11 -5 6 -10 -4 -18 -11 -18 -17 0
-5 -11 -19 -25 -32 -13 -13 -21 -27 -17 -31 6 -8 -3 -5 -43 11 -10 4 -15 0
-15 -10 0 -14 -2 -15 -14 -4 -8 7 -11 17 -8 22 3 5 -9 6 -28 3 -28 -6 -31 -5
-20 8 7 8 19 15 28 15 8 0 24 8 35 18 15 12 18 13 12 2 -8 -13 -7 -13 10 0 18
15 18 15 -1 19 -10 2 -21 7 -24 12 -3 5 -18 -3 -33 -17 -15 -14 -27 -21 -27
-17 0 4 -7 0 -15 -10 -9 -13 -20 -17 -34 -12 -14 4 -23 0 -30 -14 -15 -26 -15
-26 17 -28 61 -4 92 -8 92 -13 0 -12 -38 -36 -82 -53 -25 -10 -49 -25 -52 -32
-3 -8 -10 -15 -16 -15 -6 0 -6 7 2 20 10 16 10 22 0 32 -11 11 -13 10 -10 -1
2 -7 -5 -15 -14 -16 -10 -2 -29 -13 -44 -24 -32 -25 -44 -27 -44 -6 0 20 -16
19 -24 -1 -4 -9 -13 -14 -21 -10 -8 3 -15 0 -15 -7 0 -8 -4 -7 -11 3 -8 12 -9
10 -4 -7 5 -17 2 -23 -9 -23 -9 0 -16 -5 -16 -11 0 -5 5 -7 10 -4 9 6 14 -7
11 -27 0 -4 3 -18 8 -31 10 -27 -12 -72 -30 -62 -5 4 -9 -1 -9 -10 0 -28 29
-29 51 -1 25 32 36 33 50 2 6 -13 23 -30 38 -37 14 -7 27 -14 29 -15 2 -1 -5
-15 -15 -30 -9 -15 -16 -38 -15 -50 2 -16 -6 -30 -27 -45 -17 -13 -31 -29 -31
-36 0 -20 -62 -44 -78 -31 -21 18 5 40 30 27 16 -8 19 -8 13 1 -4 7 -1 17 6
22 10 7 7 7 -8 3 -18 -5 -22 -3 -17 9 4 11 1 16 -10 16 -9 0 -16 -4 -16 -10 0
-5 -5 -10 -11 -10 -6 0 -8 9 -4 22 6 17 4 20 -10 15 -9 -4 -20 -7 -25 -7 -4 0
-10 -8 -13 -18 -2 -11 -17 -22 -36 -25 -17 -4 -41 -15 -52 -26 -29 -27 -57
-16 -65 25 -3 19 -10 37 -15 40 -5 3 -7 10 -4 15 4 5 1 9 -4 9 -6 0 -11 -5
-11 -10 0 -6 -13 -8 -30 -5 -17 3 -30 1 -30 -5 0 -5 -4 -10 -10 -10 -5 0 -10
15 -11 33 0 20 -3 26 -7 17 -18 -40 -41 -62 -61 -57 -13 3 -21 -1 -25 -15 -4
-16 -10 -19 -31 -14 -18 5 -25 3 -20 -4 4 -6 -1 -18 -11 -25 -18 -14 -18 -14
-1 -15 10 0 25 7 33 15 8 8 22 11 30 8 9 -3 25 -7 37 -8 35 -4 37 -5 37 -15 0
-5 -6 -10 -14 -10 -28 0 -29 -39 -2 -71 14 -17 26 -40 26 -51 0 -14 5 -18 15
-15 8 4 22 -4 32 -16 18 -22 46 -25 69 -6 6 5 19 7 28 3 9 -4 16 -1 16 6 0 8
7 9 18 5 9 -4 22 -8 27 -9 6 -1 21 -8 33 -15 26 -14 46 -6 22 9 -8 5 -12 10
-10 12 11 8 140 38 165 38 30 0 75 -21 94 -44 13 -15 75 -20 96 -7 45 27 165
43 165 22 0 -23 44 -22 95 3 34 17 83 30 137 36 104 12 111 12 103 0 -4 -6 8
-10 29 -10 19 0 38 5 41 10 4 6 11 8 16 5 5 -4 9 -2 9 2 0 5 8 9 18 10 66 6
149 20 160 26 7 5 12 3 12 -7 0 -24 15 -19 53 14 18 16 49 32 67 35 18 3 40
10 48 14 8 5 23 6 33 4 11 -3 26 0 35 7 13 11 16 10 20 -6 3 -11 19 -29 37
-41 39 -26 104 -24 127 5 23 28 52 41 81 35 19 -3 28 1 38 20 8 16 30 29 65
40 45 15 54 22 70 57 22 51 63 99 92 110 32 12 77 86 71 116 -2 13 0 25 5 26
4 2 9 17 11 35 1 17 5 29 8 27 4 -2 14 5 24 16 10 11 22 17 26 14 5 -3 6 2 3
10 -4 11 0 16 10 16 15 0 21 12 17 34 -3 17 22 36 41 30 29 -9 118 -10 118 -1
0 4 5 7 11 7 13 0 4 -60 -9 -70 -17 -11 -20 -39 -7 -57 13 -16 14 -16 15 -2 0
23 27 31 53 17 12 -7 26 -11 31 -10 5 2 13 -3 17 -10 5 -8 7 -1 5 17 -3 31
-23 45 -36 25 -12 -20 -40 -3 -40 23 0 35 20 88 31 81 5 -3 4 6 -2 20 -7 14
-17 22 -25 19 -15 -6 -19 12 -5 21 5 3 7 15 4 26 -7 26 22 27 36 3 10 -17 12
-16 29 6 l19 24 6 -23 c4 -17 -2 -26 -30 -42 l-35 -21 22 -17 c19 -15 20 -18
6 -29 -9 -8 -16 -18 -16 -23 0 -6 9 0 19 13 23 29 31 23 33 -25 1 -20 4 -32 8
-25 11 16 22 -5 14 -26 -5 -13 -2 -16 12 -13 12 2 18 11 16 21 -2 14 2 17 22
13 32 -6 46 -14 46 -28 0 -6 -10 -3 -22 8 -21 18 -21 18 -15 0 4 -10 2 -25 -4
-32 -9 -11 -8 -15 3 -19 8 -3 19 -5 24 -4 15 5 54 -12 54 -22 0 -5 5 -9 11 -9
6 0 9 7 5 15 -7 20 -4 19 23 -4 13 -11 20 -24 17 -29 -14 -24 63 -53 87 -34 7
5 26 9 42 8 17 0 35 6 42 14 10 13 12 11 13 -12 0 -29 13 -37 26 -16 4 6 2 14
-4 16 -16 5 -15 23 1 20 6 -2 11 5 11 15 -1 10 7 19 22 23 13 3 24 10 24 16 0
5 5 6 10 3 6 -3 10 1 10 9 0 8 10 25 23 37 12 12 16 18 9 14 -24 -13 2 26 52
79 29 31 46 57 46 73 0 18 4 24 15 19 10 -3 15 1 15 13 0 11 27 43 62 72 35
31 56 45 50 32 -15 -27 -15 -33 -2 -33 6 0 10 5 10 10 0 6 11 28 25 50 22 34
23 41 10 46 -8 4 -15 11 -14 18 4 34 -2 96 -10 96 -4 0 -11 -20 -13 -44 -3
-25 -13 -52 -22 -61 -9 -9 -16 -22 -16 -29 0 -19 -64 -86 -82 -86 -10 0 -18
14 -22 42 -4 23 -20 66 -37 95 -40 69 -55 78 -19 10 23 -41 29 -65 29 -114 0
-35 -4 -63 -10 -63 -5 0 -9 -7 -9 -16 0 -10 -6 -14 -14 -11 -10 4 -23 -7 -36
-29 -12 -18 -29 -34 -38 -35 -11 0 -12 -2 -4 -6 6 -2 12 -10 12 -16 -1 -7 -9
-2 -19 10 -10 12 -22 19 -27 15 -5 -4 -3 0 3 8 7 9 11 35 10 59 -3 43 -3 43
15 21 21 -26 24 -14 3 14 -8 10 -12 23 -9 27 3 5 1 9 -5 9 -5 0 -13 -4 -16
-10 -3 -5 -11 -10 -16 -10 -6 0 -8 4 -4 9 3 5 1 12 -4 15 -5 3 -7 15 -4 26 3
11 1 20 -5 20 -5 0 -12 9 -15 20 -3 11 -11 20 -17 20 -9 0 -10 -3 -1 -14 9
-11 5 -15 -19 -19 -17 -4 -31 -6 -33 -5 -1 0 -17 -12 -35 -28 -18 -16 -28 -30
-23 -32 9 -3 -9 -52 -20 -52 -3 0 -4 -13 -1 -30 2 -17 -2 -35 -10 -43 -14 -14
-68 -29 -68 -18 1 14 16 29 35 33 19 5 19 5 1 13 -12 5 -21 3 -28 -6 -7 -11
-11 -11 -15 -2 -3 10 -8 10 -19 -1 -8 -8 -14 -20 -14 -26 0 -6 -4 -8 -10 -5
-5 3 -10 15 -10 25 0 12 -5 17 -14 14 -7 -3 -16 2 -20 11 -4 10 -2 14 5 9 7
-4 10 -1 7 7 -3 8 -11 13 -17 11 -9 -2 -9 3 -1 17 8 16 6 22 -7 31 -17 11 -16
11 1 5 11 -3 22 -2 25 3 3 4 17 16 31 26 19 14 20 17 5 11 -32 -12 -50 -11
-48 3 2 6 -4 12 -12 12 -8 0 -15 5 -15 10 0 6 5 10 11 10 8 0 8 4 0 13 -8 10
-7 17 1 25 19 19 30 14 23 -9 -7 -21 -5 -22 34 -16 35 4 40 3 30 -9 -25 -31 4
-11 49 32 26 25 59 48 75 51 62 13 37 29 -38 24 -24 -1 -27 0 -15 9 12 9 12
10 -5 6 -11 -3 -33 -8 -50 -12 -16 -4 -34 -10 -40 -13 -20 -13 -62 -12 -90 3
-17 9 -36 16 -42 16 -7 0 -13 5 -13 11 0 5 -5 7 -12 3 -7 -4 -8 -3 -4 5 8 12
-30 81 -44 81 -5 0 -12 -4 -15 -10 -3 -5 1 -10 9 -10 8 0 18 -9 21 -20 3 -11
11 -20 16 -20 6 0 7 -5 4 -11 -4 -6 -18 1 -34 18 -15 15 -53 50 -84 76 -50 43
-56 46 -47 22 7 -17 7 -24 0 -20 -6 3 -10 12 -10 20 0 7 -13 23 -30 35 -16 12
-30 18 -30 13 0 -4 9 -14 20 -21 12 -7 18 -17 15 -22 -3 -5 1 -23 10 -39 14
-29 12 -61 -6 -61 -19 0 -57 47 -63 78 -3 17 -2 32 2 32 5 0 7 23 6 50 -2 28
2 50 7 50 5 0 9 5 9 11 0 6 -7 9 -15 5 -16 -6 -45 18 -45 39 0 20 20 29 33 16
8 -8 6 -11 -8 -11 -15 0 -12 -5 13 -20 28 -17 33 -25 28 -45 -5 -19 -2 -25 9
-25 9 0 14 -4 10 -9 -3 -5 -1 -12 5 -16 10 -6 14 7 11 32 -1 6 18 23 41 37 46
28 36 36 -12 11 -27 -14 -32 -14 -55 1 -35 23 -31 38 4 19 17 -8 37 -12 47 -8
12 4 1 13 -42 33 -57 26 -154 112 -154 136 0 7 -7 14 -15 18 -15 5 26 -68 50
-89 32 -28 35 -41 15 -63 -18 -19 -19 -23 -4 -69 26 -81 26 -80 35 -53 7 20 7
17 5 -13 -4 -42 -16 -63 -16 -29 0 25 -3 26 -31 11 -27 -14 -52 6 -43 34 6 20
5 20 -10 5 -21 -22 -21 -25 13 -91 16 -31 26 -57 22 -57 -4 0 -21 29 -39 65
-26 52 -30 70 -22 85 6 11 15 20 20 20 14 0 12 34 -2 49 -7 8 -8 11 -2 8 6 -4
10 9 8 36 -2 57 -2 59 -15 51 -6 -3 -16 0 -21 7 -10 15 -8 -4 7 -46 3 -11 -1
-8 -10 8 -17 29 -45 37 -45 12 0 -8 -4 -15 -10 -15 -13 0 -13 6 0 31 17 31 -6
22 -31 -12 -12 -17 -38 -38 -58 -47 -75 -31 -140 -36 -124 -8 3 6 3 8 -2 4 -4
-4 -17 -1 -29 7 -11 8 -27 15 -36 14 -11 0 -11 -2 -2 -6 7 -3 23 -15 35 -27
26 -24 25 -73 -1 -78 -11 -2 -8 -7 12 -16 l28 -12 -7 42 c-6 35 -5 41 6 30 7
-6 13 -24 14 -40 0 -15 5 -26 11 -25 5 1 11 -10 12 -25 4 -43 7 -55 24 -87 30
-56 30 -99 2 -140 -15 -23 -22 -44 -19 -56 4 -11 2 -19 -4 -19 -15 0 -14 17 5
104 14 64 15 80 4 107 l-14 32 -22 -28 c-12 -16 -24 -23 -28 -17 -3 6 -16 11
-29 11 -64 1 -66 3 -43 34 16 21 26 22 26 2 0 -23 31 -31 42 -11 7 13 13 14
23 6 9 -8 14 -6 19 5 3 9 2 13 -4 10 -6 -3 -10 -1 -10 5 0 11 -21 35 -54 60
-17 14 -18 13 -12 -7 11 -33 -9 -36 -21 -2 -8 20 -8 29 0 29 5 0 8 3 4 6 -3 3
-13 2 -22 -3 -15 -9 -15 -11 -1 -22 24 -20 19 -38 -11 -44 -34 -6 -40 -2 -24
17 9 11 7 21 -12 50 -24 35 -41 39 -30 8 4 -12 -2 -9 -17 7 -18 19 -20 25 -9
32 21 13 36 11 54 -8 13 -13 19 -13 25 -3 6 10 9 10 13 -1 3 -9 6 -5 6 7 1 14
-7 24 -19 27 -11 3 -20 11 -20 19 0 10 2 11 9 0 6 -10 10 -10 21 3 8 10 9 15
1 15 -25 0 -9 18 21 24 l33 6 -31 19 c-19 11 -41 16 -61 14 -23 -4 -37 1 -54
18 -14 14 -24 18 -27 11 -2 -7 -12 -12 -23 -12 -10 0 -19 -4 -19 -10 0 -5 -7
-10 -15 -10 -8 0 -15 -5 -15 -11 0 -7 -9 -9 -24 -5 -27 7 -44 -18 -26 -39 12
-14 -2 -34 -43 -59 -15 -9 -25 -21 -22 -26 4 -6 1 -10 -5 -10 -8 0 -9 7 -5 18
4 9 8 22 8 29 0 6 6 9 13 6 27 -10 45 23 35 64 -8 37 -8 38 -19 13 -6 -14 -11
-19 -11 -11 -1 11 -4 11 -17 0 -13 -10 -17 -10 -25 2 -12 19 -11 29 2 29 5 0
7 5 4 10 -3 6 -2 10 4 10 5 0 11 -6 14 -12 2 -7 2 0 0 15 -3 15 -1 26 4 25 12
-4 73 23 73 32 0 4 -9 10 -21 13 -17 5 -18 3 -7 -10 11 -14 10 -16 -14 -11
-16 3 -28 1 -28 -3 0 -14 -33 -10 -54 6 -18 13 -16 14 18 13 20 -1 42 4 48 10
8 8 5 9 -11 5 -12 -3 -21 -1 -21 6 0 6 -9 11 -20 11 -11 0 -20 5 -20 10 0 6
11 8 25 6 14 -3 25 -1 25 4 0 4 7 11 16 14 8 3 12 2 9 -3 -3 -5 0 -13 6 -17 6
-3 15 0 20 7 4 8 4 16 -2 19 -5 4 2 13 16 20 14 8 28 24 31 36 3 13 12 28 20
35 8 6 14 16 14 22 0 6 -3 7 -7 4 -3 -4 -14 7 -24 23 -11 17 -24 30 -29 30 -6
0 -9 -4 -5 -9 3 -5 1 -12 -5 -16 -6 -3 -10 3 -10 15 0 16 -5 20 -15 16 -8 -3
-15 -1 -15 4 0 13 -7 12 -47 -6z m585 -664 c-9 -33 -8 -44 5 -58 8 -9 17 -26
19 -37 2 -11 11 -20 21 -21 12 -1 13 -1 2 3 -18 5 -21 44 -3 41 7 -2 20 13 30
32 l18 35 -2 -30 c-1 -16 -6 -33 -11 -36 -4 -3 -3 -17 4 -32 17 -36 6 -57 -26
-51 -18 3 -24 1 -20 -6 4 -6 4 -22 1 -35 -4 -17 -11 -22 -26 -18 -11 3 -20 0
-20 -6 0 -6 -6 -11 -13 -11 -24 0 -38 -22 -25 -38 10 -11 8 -18 -11 -33 l-24
-19 19 -43 c21 -47 34 -61 48 -47 6 6 14 10 18 10 13 0 9 -48 -4 -56 -8 -5 -9
-2 -5 10 4 9 3 15 -2 12 -14 -9 -71 15 -71 30 0 7 -9 18 -20 24 -14 7 -20 7
-20 0 0 -5 6 -10 14 -10 14 0 28 -48 19 -63 -3 -4 -11 -3 -19 4 -11 9 -14 7
-14 -9 0 -12 5 -24 10 -27 15 -10 12 -21 -16 -54 -26 -31 -48 -34 -38 -6 4 8
9 13 13 10 4 -2 8 1 8 8 0 7 4 20 8 30 5 13 3 16 -9 11 -8 -3 -18 -16 -22 -27
-7 -22 -8 -21 -14 3 l-7 25 -11 -25 c-6 -14 -11 -20 -12 -15 0 6 -5 3 -10 -5
-7 -10 -8 -3 -5 25 5 36 4 37 -5 14 -8 -19 -21 -29 -45 -33 -26 -5 -36 -13
-41 -31 -3 -14 -10 -25 -16 -25 -5 0 -7 -4 -3 -9 3 -6 -7 -9 -22 -8 -24 2 -28
-1 -25 -21 3 -20 0 -23 -17 -17 -15 5 -21 2 -21 -9 0 -9 -4 -16 -8 -16 -4 0
-13 -13 -19 -29 -7 -20 -25 -35 -59 -51 -69 -31 -114 -37 -114 -16 0 9 8 16
20 16 11 0 20 2 20 4 0 2 3 11 6 19 3 10 -5 18 -25 25 -17 6 -31 18 -31 26 0
21 -12 20 -30 -1 -16 -20 -21 -84 -6 -94 5 -4 1 -17 -8 -30 l-16 -23 0 22 c0
12 0 25 1 28 0 4 -5 11 -13 16 -10 7 -10 11 0 15 19 7 14 41 -8 55 -33 21 -26
45 13 41 17 -2 26 0 20 3 -17 8 -17 45 0 38 18 -6 46 45 42 79 -3 23 1 27 20
27 37 0 38 -16 5 -61 -31 -44 -43 -80 -12 -40 9 13 26 33 37 44 21 23 32 57
17 57 -4 0 -19 10 -32 22 -21 20 -24 20 -35 5 -7 -9 -15 -14 -19 -10 -13 13
-26 -21 -20 -50 4 -21 0 -35 -17 -53 -29 -31 -36 -30 -36 6 0 22 4 29 14 26 7
-3 13 -4 13 -2 0 3 3 13 7 23 6 16 5 16 -10 4 -9 -7 -17 -10 -17 -5 0 4 -5 3
-12 -4 -18 -18 -30 -14 -23 8 5 16 3 19 -12 13 -10 -3 -28 -14 -41 -24 -20
-15 -52 -17 -52 -2 0 13 66 83 79 84 11 0 12 2 3 6 -7 3 -20 -1 -29 -9 -12
-10 -17 -10 -20 -1 -2 7 -11 9 -19 6 -13 -5 -12 -8 2 -24 18 -21 13 -23 -35
-19 -18 1 -22 -2 -18 -14 4 -9 2 -16 -3 -16 -6 0 -9 17 -7 37 2 29 7 38 26 43
12 3 28 14 34 25 7 11 19 20 27 20 9 0 20 17 28 40 7 22 22 49 33 61 21 23 26
39 7 27 -19 -11 -39 -13 -32 -2 3 5 0 9 -5 9 -6 0 -11 -4 -11 -10 0 -5 -7 -10
-15 -10 -13 0 -14 4 -5 20 6 11 15 18 21 15 5 -4 9 -1 9 4 0 6 -5 11 -12 11
-6 0 -8 3 -5 6 4 4 -2 19 -13 34 -25 35 -25 40 0 40 11 0 20 6 20 14 0 8 9 18
20 21 11 4 31 18 45 32 23 26 24 26 50 9 30 -20 27 -33 -3 -17 -26 14 -43 14
-19 0 9 -5 17 -20 17 -33 0 -20 4 -22 44 -20 33 2 46 -1 50 -13 6 -14 9 -14
26 2 19 17 21 17 40 -5 11 -13 20 -20 20 -16 0 4 5 4 10 1 8 -5 7 -11 -1 -21
-9 -11 -8 -14 6 -14 9 0 19 9 22 20 3 11 8 20 12 20 4 0 17 9 30 21 12 12 25
18 29 14 3 -3 0 -10 -8 -15 -8 -5 -11 -12 -7 -17 5 -4 12 -1 17 6 6 11 14 9
40 -9 21 -15 31 -18 28 -9 -3 8 -1 22 3 31 5 10 5 19 0 22 -5 3 -11 -1 -15 -9
-3 -8 -10 -15 -16 -15 -6 0 -8 5 -5 10 4 6 1 9 -5 8 -17 -4 -34 26 -27 46 4 9
20 24 36 34 21 13 27 22 20 29 -7 7 -3 10 13 9 13 -1 28 0 33 3 19 11 70 10
93 -1 26 -13 30 -32 5 -24 -22 7 -50 -8 -34 -18 20 -13 11 -26 -13 -20 -13 3
-27 1 -30 -5 -5 -7 0 -9 11 -5 14 4 12 1 -6 -15 -12 -12 -27 -18 -32 -15 -12
7 -12 34 1 34 5 0 7 7 3 15 -5 13 -8 12 -20 -5 -13 -19 -13 -23 2 -40 9 -10
14 -24 9 -31 -5 -8 -3 -10 6 -4 10 6 11 4 5 -11 -4 -10 -9 -28 -10 -39 -2 -11
-4 -22 -4 -25 -1 -3 -6 2 -11 10 -8 13 -11 13 -19 1 -5 -8 -14 -10 -22 -5 -12
6 -12 5 -1 -8 8 -9 21 -14 30 -11 13 3 14 2 4 -4 -11 -8 -11 -12 0 -20 22 -18
66 -24 71 -10 3 9 8 9 21 -2 14 -12 18 -12 31 5 8 10 17 27 20 37 8 23 23 22
44 -4 16 -20 18 -20 34 -5 9 9 14 24 11 34 -5 14 -4 15 5 2 9 -13 13 -12 28 6
18 20 35 47 59 93 10 18 10 28 2 38 -15 18 -23 7 -27 -39 -1 -5 -5 -8 -10 -8
-8 0 8 71 30 128 14 36 18 25 7 -18z"/>
<path d="M3130 2442 c0 -4 -12 -12 -26 -19 -21 -10 -25 -10 -20 2 3 9 -2 13
-14 12 -10 -1 -16 -5 -14 -9 3 -4 -1 -8 -9 -8 -8 0 -20 -7 -27 -15 -7 -8 -16
-15 -21 -15 -15 0 2 27 24 38 16 8 17 11 6 11 -21 1 -53 -35 -44 -49 4 -6 20
-8 41 -4 22 4 34 2 34 -5 0 -6 -3 -10 -7 -10 -5 1 -12 1 -17 0 -14 -1 26 -30
42 -31 8 0 25 -9 39 -20 31 -24 93 -27 93 -5 0 8 -5 15 -11 15 -5 0 -7 -4 -4
-10 3 -5 1 -10 -4 -10 -17 0 -13 27 4 34 8 3 15 11 15 17 0 8 -4 8 -15 -1 -11
-9 -15 -9 -15 -1 0 6 7 14 15 17 17 7 20 49 5 59 -5 3 -10 1 -10 -5 0 -6 -5
-8 -10 -5 -6 4 -8 10 -6 14 3 4 -6 8 -20 9 -13 1 -24 -2 -24 -6z"/>
<path d="M2846 2369 c-14 -11 -24 -24 -21 -29 3 -5 -8 -17 -25 -26 -32 -19
-37 -29 -20 -39 6 -4 9 -1 8 6 -3 12 7 13 65 10 12 -1 -7 -11 -46 -25 -37 -12
-76 -32 -87 -44 -21 -22 -27 -37 -11 -27 5 3 13 0 17 -6 4 -8 -3 -9 -24 -5
-38 9 -65 -15 -56 -49 3 -13 1 -32 -5 -44 -7 -12 -9 -42 -5 -74 6 -53 7 -54
25 -36 11 11 33 19 49 19 22 0 33 6 39 22 5 14 10 17 15 10 5 -9 13 -9 27 -2
13 8 19 7 19 0 0 -6 -12 -15 -26 -20 -14 -6 -23 -14 -20 -18 6 -10 36 -9 53 1
6 4 30 0 53 -8 55 -19 70 -19 71 3 0 10 3 12 6 5 7 -18 38 -16 57 3 15 14 16
14 16 -1 0 -13 4 -14 20 -5 11 6 18 15 15 20 -8 12 13 23 28 13 14 -9 58 -5
71 7 5 5 -5 12 -23 17 -31 8 -44 28 -18 28 6 0 18 6 26 13 8 8 24 11 40 7 20
-4 22 -3 11 5 -12 8 -11 10 8 10 16 0 22 6 22 21 0 15 -5 19 -15 15 -17 -6
-21 9 -5 19 6 4 7 11 4 17 -4 6 1 8 15 3 17 -5 21 -2 21 16 0 18 -3 20 -12 11
-8 -8 -16 -6 -29 10 -23 26 -16 38 21 38 20 0 35 -8 46 -25 19 -29 38 -23 29
8 -5 16 -4 18 3 8 11 -15 16 -8 26 31 5 22 3 26 -9 22 -8 -4 -15 -1 -15 5 0 7
-12 5 -32 -6 -18 -9 -53 -20 -78 -25 -25 -5 -57 -11 -72 -15 -17 -3 -28 -1
-28 6 0 6 15 11 33 11 31 1 31 1 12 16 -11 8 -55 33 -97 55 -91 46 -149 52
-192 18z m104 -132 c31 1 30 1 -10 -9 -25 -5 -49 -14 -55 -19 -7 -7 -3 -8 10
-3 18 7 19 6 5 -11 -8 -11 -23 -29 -32 -39 -20 -22 -23 -36 -9 -36 5 0 12 8
15 18 4 10 21 32 38 48 l32 29 -32 -40 c-35 -43 -43 -68 -14 -42 37 33 34 16
-4 -27 -22 -24 -47 -55 -57 -67 -16 -20 -17 -21 -12 -4 4 11 7 27 8 35 0 8 4
21 10 28 5 7 7 15 4 18 -3 3 -19 -15 -37 -41 -17 -25 -36 -43 -41 -39 -7 4 -5
12 4 22 16 19 32 62 28 76 -1 5 4 4 13 -3 11 -9 16 -9 22 0 4 8 3 9 -5 5 -8
-5 -10 0 -7 18 8 47 -34 23 -98 -56 -39 -49 -43 -57 -24 -55 12 2 23 12 24 22
1 10 11 25 20 34 16 14 16 13 -1 -14 -18 -30 -18 -30 2 -12 11 9 24 17 29 17
5 -1 -6 -14 -25 -30 -19 -16 -38 -27 -43 -24 -4 3 -8 1 -8 -5 0 -5 -8 -8 -17
-6 -10 2 -22 4 -27 4 -5 1 5 14 22 30 27 23 31 32 24 52 -5 13 -7 32 -4 42 3
15 6 16 20 5 12 -10 14 -10 8 0 -4 7 -1 15 9 18 11 5 13 10 5 19 -11 13 -3 25
17 25 8 0 21 7 29 15 9 8 27 17 42 21 15 3 34 9 42 13 10 6 20 2 30 -13 11
-15 24 -21 50 -19z"/>
<path d="M6030 2299 c-14 -11 -54 -25 -90 -31 -63 -11 -90 -22 -90 -38 0 -12
36 -18 52 -9 9 5 22 3 34 -6 18 -14 18 -14 -3 -15 -15 0 -21 -5 -17 -15 6 -13
-32 -93 -50 -106 -4 -4 -16 -4 -26 -2 -16 4 -18 0 -13 -36 3 -25 2 -41 -5 -41
-5 0 -12 -8 -14 -17 -3 -11 -23 -23 -51 -32 -51 -14 -55 -21 -31 -45 20 -20
30 -21 14 -1 -7 8 -11 15 -9 16 43 8 53 8 39 0 -8 -6 -12 -12 -9 -16 3 -3 37
10 75 30 38 19 77 35 86 35 9 0 19 4 22 9 3 5 15 7 26 4 11 -3 27 0 35 7 21
17 105 32 119 21 6 -4 23 -11 39 -13 27 -5 31 0 28 35 -1 9 3 17 9 17 8 0 8 6
0 21 -12 21 -7 34 13 34 17 0 32 56 17 65 -9 5 -8 9 3 13 14 5 31 48 18 45 -3
-1 -19 4 -36 11 -16 7 -48 14 -70 16 -22 2 -51 7 -65 11 -24 6 -24 6 -5 -9 19
-14 17 -16 -30 -30 -36 -10 -58 -11 -78 -4 -33 11 -23 31 21 40 29 6 81 42 72
50 -3 3 -16 -4 -30 -14z m151 -69 c6 0 7 -5 4 -10 -4 -6 -10 -8 -15 -5 -5 3
-16 -2 -25 -11 -18 -18 -13 -30 7 -18 7 5 19 9 27 11 8 1 17 7 21 13 4 6 14 8
23 5 14 -6 14 -8 -1 -24 -9 -10 -23 -15 -31 -13 -10 4 -13 -1 -9 -21 3 -15 1
-24 -3 -21 -5 3 -13 -6 -18 -19 -9 -23 -83 -60 -113 -56 -25 3 -58 -13 -58
-28 0 -13 -3 -13 -16 -3 -13 11 -16 10 -21 -8 -3 -15 -13 -22 -29 -22 -12 0
-26 -5 -29 -10 -4 -6 -11 -8 -16 -4 -6 4 -1 16 13 31 13 13 30 45 38 70 13 38
23 50 65 73 38 21 54 26 68 18 17 -9 17 -11 3 -27 -18 -20 -20 -31 -7 -31 5 0
13 9 16 21 4 12 12 18 21 15 7 -3 16 -1 19 4 4 6 -2 10 -12 10 -15 0 -14 3 6
19 18 14 21 20 11 26 -11 7 -9 10 6 16 10 4 25 6 32 3 8 -2 18 -4 23 -4z"/>
<path d="M6448 1977 c5 -7 6 -21 1 -32 -4 -11 -8 -14 -8 -7 -1 14 -11 15 -31
2 -13 -9 -13 -11 0 -20 31 -20 -44 -6 -88 16 l-42 22 -6 -23 c-4 -14 -13 -24
-23 -23 -41 3 -62 -2 -55 -14 6 -10 4 -10 -8 0 -8 7 -22 10 -30 7 -8 -3 -31 1
-52 10 -30 13 -41 13 -52 4 -8 -6 -12 -14 -10 -17 3 -2 0 -14 -6 -25 -10 -19
-11 -19 -20 -3 -8 13 -4 24 13 42 28 30 24 30 -32 2 -38 -19 -41 -23 -21 -26
16 -2 22 -8 18 -18 -4 -10 -2 -12 6 -8 7 4 8 3 4 -4 -4 -7 -14 -12 -21 -12 -8
0 -19 -9 -25 -20 -8 -14 -8 -20 0 -20 7 0 7 -7 -1 -22 -11 -21 -11 -22 4 -10
9 8 22 12 29 10 7 -3 19 1 26 9 22 22 51 15 84 -19 26 -28 28 -29 18 -8 -7 14
-19 29 -26 33 -23 14 -15 25 13 19 26 -5 27 -4 10 12 -19 19 -22 35 -7 37 42
5 55 2 58 -13 2 -13 -2 -15 -20 -11 -22 6 -22 5 3 -15 17 -14 34 -19 50 -16
17 4 20 3 10 -4 -22 -15 5 -25 77 -28 35 -2 73 -6 85 -9 19 -5 19 -4 -3 9 -28
17 -14 21 24 6 14 -5 32 -23 41 -40 12 -22 22 -30 43 -30 35 0 103 55 95 76
-4 12 -8 12 -20 2 -12 -10 -17 -9 -24 5 -13 22 -27 22 -25 1 0 -9 -6 -19 -14
-21 -13 -4 -13 -3 0 6 8 6 10 11 4 11 -7 0 -14 11 -16 25 -4 16 -1 22 6 17 15
-9 56 -10 56 -1 0 5 -9 14 -21 23 -29 20 -53 57 -43 65 14 10 35 51 27 52 -52
8 -64 7 -55 -4z"/>
<path d="M1241 1918 c-1 -51 0 -53 29 -38 21 11 86 -11 73 -25 -5 -4 -3 -5 4
-1 6 3 16 -1 21 -10 5 -9 12 -13 15 -8 7 11 -10 34 -43 58 l-25 18 30 -6 c17
-4 35 -12 40 -19 6 -7 16 -12 23 -13 6 -1 23 -2 37 -2 17 -2 26 -9 31 -27 3
-14 10 -25 14 -25 5 0 18 -16 30 -35 12 -19 27 -35 34 -35 18 0 49 -37 42 -49
-3 -5 0 -12 6 -14 7 -3 -4 -6 -25 -6 -24 -1 -40 -7 -43 -16 -4 -8 -10 -12 -15
-9 -5 3 -9 -1 -9 -9 0 -24 -88 -44 -102 -23 -4 6 -11 0 -17 -14 -5 -14 -10
-19 -10 -12 -1 7 -5 10 -11 7 -15 -9 -12 -25 4 -25 7 0 19 -7 26 -15 18 -21
33 -19 27 5 -3 11 0 23 5 27 7 3 8 1 4 -5 -10 -17 19 -15 33 2 7 8 27 18 44
22 18 3 38 11 45 17 10 8 16 7 22 -2 6 -11 14 -11 40 3 41 20 44 20 36 1 -7
-20 4 -19 21 3 8 9 11 11 7 3 -4 -9 -3 -12 4 -8 5 4 21 3 34 -2 18 -8 19 -10
5 -10 -10 -1 -17 -7 -14 -13 4 -15 85 -18 130 -5 21 6 27 4 27 -8 0 -9 7 -27
16 -40 11 -17 12 -25 5 -25 -7 0 -10 -4 -7 -9 4 -5 20 -3 37 6 31 15 31 15 8
27 -12 6 -25 18 -27 26 -5 13 -3 13 14 0 10 -8 -5 9 -34 38 -64 65 -77 91 -86
165 -4 31 -12 57 -17 57 -6 0 -7 -4 -4 -10 4 -6 -1 -7 -11 -3 -13 5 -16 2 -12
-8 4 -9 -2 -14 -19 -15 -18 -2 -21 1 -13 11 8 9 4 11 -15 7 -25 -4 -111 14
-130 29 -5 4 -23 8 -40 10 -16 2 -37 9 -47 17 -9 7 -22 14 -30 15 -27 5 -78
30 -78 40 0 6 -16 7 -40 4 -27 -3 -43 -1 -51 9 -8 10 -15 11 -24 4 -9 -8 -15
-7 -18 2 -3 7 -6 -8 -6 -34z"/>
<path d="M2484 1838 c-5 -7 -3 -8 6 -3 9 5 11 4 6 -4 -6 -9 -11 -9 -21 -1 -13
11 -22 -9 -31 -65 -4 -19 -3 -19 10 -2 11 14 15 15 20 5 3 -7 3 -3 1 9 -7 24
13 42 25 23 9 -15 -4 -66 -23 -89 -8 -9 -17 -24 -20 -33 -10 -29 -24 -20 -22
13 l2 31 -34 -36 c-19 -20 -41 -36 -49 -36 -8 0 -14 -4 -14 -10 0 -5 -12 -13
-27 -16 -16 -4 -33 -11 -40 -16 -7 -5 -17 -7 -23 -3 -5 3 -10 -2 -10 -13 0
-22 -22 -34 -45 -26 -11 4 -13 2 -9 -9 4 -12 1 -14 -17 -10 -14 4 -20 2 -16
-4 4 -6 0 -16 -8 -23 -8 -7 -15 -9 -15 -4 0 4 -5 3 -12 -4 -16 -16 -48 -15
-48 1 0 8 -3 9 -8 1 -9 -14 -40 -12 -69 4 -33 18 -45 15 -37 -10 9 -31 9 -31
51 -33 45 -2 51 -17 29 -68 l-14 -35 31 9 c41 12 43 11 29 -3 -14 -14 -16 -48
-3 -48 6 0 13 4 16 10 4 6 13 5 24 -2 15 -9 25 -7 53 10 26 16 37 19 46 10 9
-9 12 -5 12 16 0 25 2 27 17 15 15 -12 16 -12 10 4 -3 9 -2 17 4 17 5 0 14
-12 19 -26 7 -17 15 -24 25 -20 8 3 15 2 15 -3 0 -9 -29 -36 -39 -36 -3 0 -5
-4 -3 -9 1 -4 -5 -14 -15 -22 -10 -7 -13 -13 -8 -14 16 0 29 12 60 54 27 35
30 46 31 125 0 47 2 94 2 104 2 24 50 67 73 67 11 0 19 3 19 8 0 4 15 23 33
42 43 46 68 103 60 140 -6 31 -35 42 -49 18z"/>
<path d="M2290 1177 c0 -8 -11 -24 -25 -37 -14 -13 -24 -29 -22 -34 2 -6 -20
-31 -50 -56 -51 -43 -68 -68 -39 -57 10 4 13 1 9 -9 -5 -15 -94 -76 -100 -70
-2 2 4 17 13 35 9 18 13 35 10 38 -3 4 -6 1 -6 -5 0 -7 -16 -29 -35 -49 -20
-21 -33 -44 -30 -51 3 -7 0 -10 -6 -7 -5 4 -7 15 -4 26 5 14 3 17 -9 13 -18
-7 -21 -30 -6 -39 6 -3 10 -15 10 -27 0 -14 5 -18 15 -14 8 3 22 9 31 12 12 5
15 1 14 -17 -3 -37 -1 -49 10 -49 5 0 12 11 16 25 4 16 13 25 26 25 11 0 22 8
25 20 3 10 13 22 23 25 10 3 21 12 24 20 3 8 12 15 19 15 8 0 20 7 27 15 7 8
17 12 24 8 6 -3 3 3 -8 15 -18 21 -18 21 9 46 16 15 32 26 36 26 5 0 9 6 9 14
0 9 -7 12 -19 9 -15 -4 -19 2 -23 32 -3 30 -1 38 16 45 12 4 21 11 21 16 0 5
4 8 9 6 5 -2 5 5 2 14 -4 10 -1 21 6 26 10 6 8 8 -4 8 -10 0 -18 -6 -18 -13z"/>
<path d="M2366 1135 c4 -18 3 -26 -3 -22 -16 10 -33 -17 -37 -59 -2 -22 -11
-43 -22 -51 -14 -11 -19 -28 -20 -71 -1 -32 -5 -68 -9 -81 -11 -36 14 -16 31
25 8 19 19 34 26 34 19 0 47 31 41 46 -3 8 -10 14 -17 14 -17 0 -13 73 6 101
13 19 17 20 17 7 1 -9 -3 -20 -9 -23 -16 -10 -12 -45 5 -45 10 0 15 10 15 33
0 18 6 39 13 46 10 11 10 13 0 7 -9 -5 -13 1 -13 17 0 14 -7 30 -16 38 -13 11
-14 9 -8 -16z"/>
</g>
</svg>
